<?xml version="1.0" standalone="no"?>
<!DOCTYPE svg PUBLIC "-//W3C//DTD SVG 1.1//EN" "http://www.w3.org/Graphics/SVG/1.1/DTD/svg11.dtd" >
<svg xmlns="http://www.w3.org/2000/svg" xmlns:xlink="http://www.w3.org/1999/xlink" version="1.1">
<metadata>
Created by FontForge 20141024 at Tue Jul 14 15:27:54 2015
 By System Administrator
Copyright (c) Mark Simonson, 2005. All rights reserved.
</metadata>
<defs>
<font id="ProximaNova-LightIt" horiz-adv-x="384" >
  <font-face 
    font-family="Proxima Nova Lt"
    font-weight="300"
    font-style="italic"
    font-stretch="normal"
    units-per-em="1000"
    panose-1="2 0 5 6 3 0 0 2 0 4"
    ascent="790"
    descent="-210"
    x-height="483"
    cap-height="667"
    bbox="-225 -259 1148 886"
    underline-thickness="20"
    underline-position="-113"
    stemh="21"
    stemv="61"
    unicode-range="U+0020-FB04"
  />
<missing-glyph horiz-adv-x="517" 
d="M454 -90h-351v842h351v-842zM422 -60v782h-288v-782h288z" />
    <glyph glyph-name="fi" unicode="fi" horiz-adv-x="478" 
d="M97 0h-53l97 437h-80l10 46h80l9 44c21 95 69 150 150 150c29 0 52 -5 76 -21l-23 -42c-15 12 -34 16 -52 16c-56 0 -84 -38 -98 -103l-10 -44h99l-11 -46h-98zM445 559c-20 0 -36 16 -36 35c0 27 25 44 45 44c21 0 37 -16 37 -35c0 -27 -25 -44 -46 -44zM344 0h-52
l107 483h52z" />
    <glyph glyph-name="fl" unicode="fl" horiz-adv-x="478" 
d="M97 0h-53l97 437h-80l10 46h80l9 44c21 95 69 150 150 150c29 0 52 -5 76 -21l-23 -42c-15 12 -34 16 -52 16c-56 0 -84 -38 -98 -103l-10 -44h99l-11 -46h-98zM344 0h-52l147 667h52z" />
    <glyph glyph-name="f_b" unicode="fb" horiz-adv-x="835" 
d="M97 0h-53l97 437h-80l10 46h80l9 44c21 95 69 150 150 150c29 0 52 -5 76 -21l-23 -42c-15 12 -34 16 -52 16c-56 0 -84 -38 -98 -103l-10 -44h99l-11 -46h-98zM536 -12c-80 0 -141 39 -174 94l-18 -82h-52l147 667h52l-56 -257c39 51 97 85 166 85
c110 0 188 -74 188 -198c0 -162 -101 -309 -253 -309zM531 35c122 0 201 125 201 252c0 99 -58 161 -146 161c-68 0 -130 -43 -164 -93l-51 -232c24 -48 82 -88 160 -88z" />
    <glyph glyph-name="f_h" unicode="fh" horiz-adv-x="805" 
d="M97 0h-53l97 437h-80l10 46h80l9 44c21 95 69 150 150 150c29 0 52 -5 76 -21l-23 -42c-15 12 -34 16 -52 16c-56 0 -84 -38 -98 -103l-10 -44h99l-11 -46h-98zM670 0h-52l72 328c2 9 6 27 6 35c0 60 -46 85 -108 85c-60 0 -122 -42 -163 -85l-81 -363h-52l147 667h52
l-56 -257c43 42 106 85 174 85c82 0 141 -39 141 -118c0 -8 -3 -30 -6 -41z" />
    <glyph glyph-name="f_k" unicode="fk" horiz-adv-x="770" 
d="M97 0h-53l97 437h-80l10 46h80l9 44c21 95 69 150 150 150c29 0 52 -5 76 -21l-23 -42c-15 12 -34 16 -52 16c-56 0 -84 -38 -98 -103l-10 -44h99l-11 -46h-98zM697 0h-64l-145 233l-112 -88l-32 -145h-52l147 667h52l-101 -456l342 272h73l-274 -218z" />
    <glyph glyph-name="f_f_j" unicode="ffj" horiz-adv-x="743" 
d="M97 0h-53l97 437h-80l10 46h80l9 44c18 90 66 150 150 150c40 0 69 -10 96 -37l-32 -37c-14 16 -33 27 -63 27c-56 0 -84 -38 -98 -103l-10 -44h99l-11 -46h-98zM362 0h-53l97 437h-80l10 46h80l9 44c21 95 69 150 150 150c29 0 52 -5 76 -21l-23 -42
c-15 12 -34 16 -52 16c-56 0 -84 -38 -98 -103l-10 -44h99l-11 -46h-98zM456 -196c-45 0 -84 14 -107 43l31 40c15 -20 41 -36 70 -36c46 0 79 26 93 88l121 544h52l-121 -544c-20 -90 -62 -135 -139 -135zM710 559c-20 0 -36 16 -36 35c0 27 25 44 45 44
c21 0 37 -16 37 -35c0 -27 -25 -44 -46 -44z" />
    <glyph glyph-name="f_j" unicode="fj" horiz-adv-x="478" 
d="M97 0h-53l97 437h-80l10 46h80l9 44c21 95 69 150 150 150c29 0 52 -5 76 -21l-23 -42c-15 12 -34 16 -52 16c-56 0 -84 -38 -98 -103l-10 -44h99l-11 -46h-98zM191 -196c-45 0 -84 14 -107 43l31 40c15 -20 41 -36 70 -36c46 0 79 26 93 88l121 544h52l-121 -544
c-20 -90 -62 -135 -139 -135zM445 559c-20 0 -36 16 -36 35c0 27 25 44 45 44c21 0 37 -16 37 -35c0 -27 -25 -44 -46 -44z" />
    <glyph glyph-name="f_f" unicode="ff" horiz-adv-x="530" 
d="M97 0h-53l97 437h-80l10 46h80l9 44c21 90 66 150 150 150c40 0 69 -10 96 -37l-32 -37c-14 16 -33 27 -63 27c-56 0 -84 -38 -98 -103l-10 -44h99l-11 -46h-98zM362 0h-53l97 437h-80l10 46h80l9 44c21 90 66 150 150 150c40 0 69 -10 96 -37l-32 -37
c-14 16 -33 27 -63 27c-56 0 -84 -38 -98 -103l-10 -44h99l-11 -46h-98z" />
    <glyph glyph-name="f_f_i" unicode="ffi" horiz-adv-x="743" 
d="M97 0h-53l97 437h-80l10 46h80l9 44c21 90 66 150 150 150c40 0 69 -10 96 -37l-32 -37c-14 16 -33 27 -63 27c-56 0 -84 -38 -98 -103l-10 -44h99l-11 -46h-98zM362 0h-53l97 437h-80l10 46h80l9 44c21 95 69 150 150 150c29 0 52 -5 76 -21l-23 -42
c-15 12 -34 16 -52 16c-56 0 -84 -38 -98 -103l-10 -44h99l-11 -46h-98zM710 559c-20 0 -36 16 -36 35c0 27 25 44 45 44c21 0 37 -16 37 -35c0 -27 -25 -44 -46 -44zM609 0h-52l107 483h52z" />
    <glyph glyph-name="f_f_l" unicode="ffl" horiz-adv-x="743" 
d="M97 0h-53l97 437h-80l10 46h80l9 44c21 90 66 150 150 150c40 0 69 -10 96 -37l-32 -37c-14 16 -33 27 -63 27c-56 0 -84 -38 -98 -103l-10 -44h99l-11 -46h-98zM362 0h-53l97 437h-80l10 46h80l9 44c21 95 69 150 150 150c29 0 52 -5 76 -21l-23 -42
c-15 12 -34 16 -52 16c-56 0 -84 -38 -98 -103l-10 -44h99l-11 -46h-98zM609 0h-52l147 667h52z" />
    <glyph glyph-name=".notdef" horiz-adv-x="517" 
d="M454 -90h-351v842h351v-842zM422 -60v782h-288v-782h288z" />
    <glyph glyph-name="space" unicode=" " horiz-adv-x="259" 
 />
    <glyph glyph-name="exclam" unicode="!" horiz-adv-x="219" 
d="M114 174h-41l96 493h67zM59 -10c-23 0 -40 18 -40 41c0 26 22 47 48 47c23 0 40 -18 40 -40c0 -27 -22 -48 -48 -48z" />
    <glyph glyph-name="quotedbl" unicode="&#x22;" horiz-adv-x="317" 
d="M147 427h-29s23 192 25 206c2 26 18 44 42 44c17 0 32 -14 32 -33c0 -6 -4 -16 -5 -20c-1 -3 -65 -197 -65 -197zM278 427h-29s23 192 25 206c3 26 18 44 42 44c18 0 32 -14 32 -33c0 -6 -4 -16 -5 -20c-1 -3 -65 -197 -65 -197z" />
    <glyph glyph-name="numbersign" unicode="#" horiz-adv-x="579" 
d="M229 0h-47l105 186h-119l-103 -186h-47l103 186h-110l21 41h112l119 213h-112l20 41h115l102 186h47l-102 -186h117l102 186h48l-104 -186h111l-20 -41h-113l-119 -213h115l-21 -41h-116zM307 227l120 213h-117l-119 -213h116z" />
    <glyph glyph-name="dollar" unicode="$" horiz-adv-x="584" 
d="M281 -12c-7 0 -13 0 -20 1l-19 -89h-46l21 94c-87 14 -158 57 -191 111l42 41c36 -51 92 -88 160 -101l62 277c-84 36 -169 76 -169 170c0 101 98 186 225 186c8 0 15 0 23 -1l20 91h46l-22 -97c72 -14 131 -50 163 -97l-43 -40c-31 45 -79 73 -131 85l-56 -251
c85 -37 171 -80 171 -176c0 -100 -81 -204 -236 -204zM454 185c0 60 -56 91 -122 120l-59 -265h13c119 0 168 80 168 145zM183 498c0 -55 55 -84 121 -113l53 240c-5 1 -11 1 -16 1c-89 0 -158 -62 -158 -128z" />
    <glyph glyph-name="percent" unicode="%" horiz-adv-x="720" 
d="M119 0h-45l573 667h46zM494 -12c-81 0 -145 54 -145 134c0 116 84 194 175 194c81 0 145 -54 145 -134c0 -116 -84 -194 -175 -194zM495 27c67 0 127 64 127 151c0 57 -42 99 -99 99c-67 0 -128 -65 -128 -151c0 -57 43 -99 100 -99zM234 349c-80 0 -144 54 -144 134
c0 116 83 194 175 194c80 0 144 -54 144 -133c0 -116 -84 -195 -175 -195zM236 388c66 0 127 65 127 151c0 57 -42 99 -100 99c-67 0 -127 -64 -127 -151c0 -57 42 -99 100 -99z" />
    <glyph glyph-name="ampersand" unicode="&#x26;" horiz-adv-x="639" 
d="M526 0h-72c-15 18 -32 41 -50 65c-54 -45 -117 -77 -189 -77c-108 0 -194 57 -194 163c0 130 96 185 198 228c-16 41 -25 80 -25 119c0 98 83 179 176 179c77 0 137 -39 137 -113c0 -118 -110 -159 -218 -203c16 -35 36 -70 58 -106c25 -42 47 -77 70 -112
c53 57 94 121 113 157l43 -25c-33 -53 -76 -117 -128 -171c24 -33 50 -66 81 -104zM220 34c56 0 109 30 156 70c-31 45 -61 91 -76 118c-25 42 -47 81 -64 117c-84 -38 -155 -85 -155 -181c0 -83 66 -124 139 -124zM250 499c0 -30 8 -64 22 -99c95 37 181 73 181 159
c0 49 -38 74 -82 74c-54 0 -121 -47 -121 -134z" />
    <glyph glyph-name="quoteright" unicode="&#x2019;" horiz-adv-x="219" 
d="M242 629c0 -57 -50 -118 -103 -146l-24 26c37 19 69 53 78 84h-7c-18 0 -34 16 -34 36c0 27 22 48 47 48c24 0 43 -16 43 -48z" />
    <glyph glyph-name="parenleft" unicode="(" horiz-adv-x="227" 
d="M117 -179l-36 -20c-34 80 -56 175 -56 283c0 207 88 416 251 601l26 -26c-137 -184 -221 -378 -221 -599c0 -75 16 -164 36 -239z" />
    <glyph glyph-name="parenright" unicode=")" horiz-adv-x="227" 
d="M109 665l36 20c34 -80 56 -175 56 -283c0 -207 -88 -416 -251 -601l-26 26c137 184 221 378 221 599c0 75 -16 164 -36 239z" />
    <glyph glyph-name="asterisk" unicode="*" horiz-adv-x="335" 
d="M220 399h-39l33 119l-112 -52l-11 34l115 41l-91 63l25 30l84 -73l20 116h38l-32 -118l112 51l11 -34l-115 -41l91 -63l-26 -30l-83 73z" />
    <glyph glyph-name="plus" unicode="+" horiz-adv-x="496" 
d="M483 316h-197l-48 -217h-44l48 217h-197l9 42h197l46 211h45l-46 -211h197z" />
    <glyph glyph-name="comma" unicode="," horiz-adv-x="219" 
d="M109 30c0 -57 -50 -119 -103 -146l-24 26c37 19 69 53 78 84h-7c-18 0 -34 16 -34 36c0 27 22 48 47 48c24 0 43 -17 43 -48z" />
    <glyph glyph-name="hyphen" unicode="-" horiz-adv-x="300" 
d="M264 218h-240l10 48h240z" />
    <glyph glyph-name="period" unicode="." horiz-adv-x="219" 
d="M59 -10c-23 0 -40 18 -40 41c0 26 22 47 48 47c23 0 40 -18 40 -40c0 -27 -22 -48 -48 -48z" />
    <glyph glyph-name="slash" unicode="/" horiz-adv-x="282" 
d="M-13 -20h-46l393 707h47z" />
    <glyph glyph-name="zero" unicode="0" horiz-adv-x="608" 
d="M276 -12c-139 0 -211 102 -211 256c0 194 114 433 308 433c139 0 208 -101 208 -255c0 -194 -112 -434 -305 -434zM280 40c150 0 242 219 242 386c0 113 -43 199 -155 199c-150 0 -242 -218 -242 -385c0 -113 43 -200 155 -200z" />
    <glyph glyph-name="one" unicode="1" horiz-adv-x="308" 
d="M171 0h-57l129 589l-131 -114l-27 37l181 155h52z" />
    <glyph glyph-name="two" unicode="2" horiz-adv-x="582" 
d="M442 0h-440l14 60c262 167 476 310 476 449c0 73 -64 116 -154 116c-76 0 -133 -27 -173 -67l-31 40c47 47 125 79 206 79c109 0 213 -52 213 -166c0 -160 -220 -312 -451 -459h351z" />
    <glyph glyph-name="three" unicode="3" horiz-adv-x="544" 
d="M241 -12c-109 0 -209 57 -240 139l46 30c30 -72 107 -117 193 -117c109 0 176 68 176 160c0 70 -63 118 -159 118c-27 0 -46 -1 -57 -2l13 54c9 -1 62 -1 89 -1c89 0 173 45 173 137c0 66 -63 119 -162 119c-57 0 -117 -19 -171 -70l-28 40c50 51 127 82 202 82
c124 0 217 -59 217 -166c0 -106 -96 -167 -181 -173c64 -15 121 -64 121 -141c0 -113 -93 -209 -232 -209z" />
    <glyph glyph-name="four" unicode="4" horiz-adv-x="541" 
d="M354 0h-57l40 182h-316l13 55l386 430h81l-96 -433h98l-11 -52h-98zM348 234l83 376l-340 -376h257z" />
    <glyph glyph-name="five" unicode="5" horiz-adv-x="582" 
d="M271 -12c-114 0 -187 45 -229 135l46 33c35 -80 99 -116 188 -116c100 0 184 79 184 182c0 92 -69 142 -161 142c-55 0 -100 -17 -146 -50l-38 22l73 331h385l-11 -52h-328l-55 -247c30 23 82 46 143 46c104 0 198 -64 198 -187c0 -128 -102 -239 -249 -239z" />
    <glyph glyph-name="six" unicode="6" horiz-adv-x="584" 
d="M275 -12c-138 0 -214 87 -214 240c0 176 94 449 316 449c91 0 158 -39 192 -104l-43 -37c-25 56 -79 89 -152 89c-144 0 -214 -154 -244 -287c-3 -9 -4 -15 -5 -19c36 41 116 93 200 93c117 0 199 -65 199 -173c0 -133 -106 -251 -249 -251zM277 40c109 0 187 92 187 191
c0 81 -63 131 -157 131c-72 0 -137 -38 -189 -96c-1 -9 -2 -40 -2 -53c0 -101 56 -173 161 -173z" />
    <glyph glyph-name="seven" unicode="7" horiz-adv-x="502" 
d="M133 0h-66l414 615h-366l11 52h437l-9 -40z" />
    <glyph glyph-name="eight" unicode="8" horiz-adv-x="571" 
d="M266 -12c-129 0 -229 58 -229 167c0 104 87 174 209 196c-58 22 -122 70 -122 143c0 125 120 183 225 183c113 0 215 -59 215 -161c0 -100 -83 -162 -196 -178c55 -23 131 -74 131 -160c0 -110 -105 -190 -233 -190zM313 368c109 9 190 57 190 142c0 65 -70 114 -156 114
s-165 -48 -165 -133c0 -63 76 -110 131 -123zM267 40c85 0 174 52 174 142c0 73 -82 122 -139 137c-116 -8 -204 -68 -204 -154c0 -82 78 -125 169 -125z" />
    <glyph glyph-name="nine" unicode="9" horiz-adv-x="584" 
d="M347 678c138 0 214 -87 214 -240c0 -176 -93 -449 -316 -449c-91 0 -157 39 -191 104l42 37c25 -56 79 -89 153 -89c143 0 213 154 244 287c2 9 4 15 4 19c-36 -41 -116 -93 -200 -93c-117 0 -199 65 -199 173c0 133 107 251 249 251zM345 626c-108 0 -187 -92 -187 -191
c0 -81 63 -131 157 -131c72 0 138 38 189 96c1 9 2 40 2 53c0 101 -55 173 -161 173z" />
    <glyph glyph-name="colon" unicode=":" horiz-adv-x="217" 
d="M59 -10c-23 0 -40 18 -40 41c0 26 22 47 48 47c23 0 40 -18 40 -40c0 -27 -22 -48 -48 -48zM150 403c-23 0 -40 17 -40 40c0 26 22 47 48 47c23 0 40 -18 40 -40c0 -27 -22 -47 -48 -47z" />
    <glyph glyph-name="semicolon" unicode=";" horiz-adv-x="219" 
d="M109 30c0 -57 -50 -119 -103 -146l-24 26c37 19 69 53 78 84h-7c-18 0 -34 16 -34 36c0 27 22 48 47 48c24 0 43 -17 43 -48zM150 403c-23 0 -40 17 -40 40c0 26 22 47 48 47c23 0 40 -18 40 -40c0 -27 -22 -47 -48 -47z" />
    <glyph glyph-name="less" unicode="&#x3c;" horiz-adv-x="496" 
d="M432 90l-388 226l9 37l488 227l-12 -52l-428 -196l341 -195z" />
    <glyph glyph-name="equal" unicode="=" horiz-adv-x="496" 
d="M504 411h-438l9 42h438zM461 216h-439l10 41h438z" />
    <glyph glyph-name="greater" unicode="&#x3e;" horiz-adv-x="496" 
d="M483 316l-489 -226l12 52l430 194l-343 197l10 47l388 -227z" />
    <glyph glyph-name="question" unicode="?" horiz-adv-x="464" 
d="M244 201l-45 -25c-18 23 -26 45 -26 72c0 144 255 132 255 276c0 60 -51 101 -138 101c-66 0 -122 -25 -168 -72l-27 39c59 59 124 85 199 85c117 0 197 -59 197 -146c0 -178 -266 -171 -266 -285c0 -13 4 -30 19 -45zM172 -10c-22 0 -40 18 -40 41c0 26 22 47 48 47
c23 0 40 -18 40 -40c0 -27 -21 -48 -48 -48z" />
    <glyph glyph-name="at" unicode="@" horiz-adv-x="783" 
d="M372 -70c-182 0 -317 137 -317 314c0 217 189 394 397 394c188 0 315 -143 315 -322c0 -151 -79 -231 -162 -231c-54 0 -87 41 -88 85l-1 6c-35 -49 -97 -91 -164 -91c-92 0 -153 63 -153 160c0 143 120 255 239 255c67 0 111 -39 130 -83l13 65h49l-59 -282
c-1 -6 -2 -13 -2 -19c0 -35 23 -55 50 -55c39 0 116 43 116 191c0 165 -116 289 -286 289c-195 0 -362 -173 -362 -361c0 -161 122 -284 289 -284c73 0 133 23 187 57l17 -25c-62 -40 -134 -63 -208 -63zM362 127c75 0 132 53 164 100l32 148c-12 35 -48 83 -114 83
c-107 0 -193 -104 -193 -211c0 -69 41 -120 111 -120z" />
    <glyph glyph-name="A" unicode="A" horiz-adv-x="647" 
d="M578 0h-63l-30 164h-353l-102 -164h-69l420 667h71zM478 216l-72 390l-244 -390h316z" />
    <glyph glyph-name="B" unicode="B" horiz-adv-x="615" 
d="M314 0h-285l147 667h257c90 0 165 -59 165 -151c0 -96 -72 -170 -155 -180c55 -14 97 -75 97 -138c0 -101 -72 -198 -226 -198zM386 368c111 0 149 75 149 142c0 60 -51 105 -115 105h-198l-54 -247h218zM317 52c107 0 164 74 164 149c0 65 -45 115 -122 115h-203
l-59 -264h220z" />
    <glyph glyph-name="C" unicode="C" horiz-adv-x="671" 
d="M367 -12c-175 0 -300 115 -300 289c0 243 183 401 370 401c117 0 211 -51 262 -143l-55 -25c-46 83 -125 116 -211 116c-152 0 -304 -134 -304 -347c0 -143 93 -239 241 -239c65 0 129 24 189 76l40 -34c-67 -65 -152 -94 -232 -94z" />
    <glyph glyph-name="D" unicode="D" horiz-adv-x="692" 
d="M241 0h-212l147 667h208c149 0 271 -119 271 -284c0 -184 -135 -383 -414 -383zM253 52h-2c211 0 344 152 344 329c0 135 -95 234 -222 234h-151l-125 -563h156z" />
    <glyph glyph-name="E" unicode="E" horiz-adv-x="564" 
d="M452 0h-423l147 667h423l-11 -52h-366l-54 -247h358l-12 -52h-358l-59 -264h366z" />
    <glyph glyph-name="F" unicode="F" horiz-adv-x="542" 
d="M86 0h-57l147 667h423l-11 -52h-366l-54 -247h358l-12 -52h-358z" />
    <glyph glyph-name="G" unicode="G" horiz-adv-x="711" 
d="M367 -12c-183 0 -300 121 -300 289c0 233 172 401 373 401c119 0 208 -54 257 -137l-51 -26c-41 74 -123 111 -213 111c-157 0 -304 -144 -304 -347c0 -146 96 -239 241 -239c85 0 149 38 194 80l35 160h-252l11 52h310l-53 -239c-69 -67 -154 -105 -248 -105z" />
    <glyph glyph-name="H" unicode="H" horiz-adv-x="703" 
d="M567 0h-58l70 317h-423l-70 -317h-57l147 667h57l-65 -298h422l66 298h58z" />
    <glyph glyph-name="I" unicode="I" horiz-adv-x="223" 
d="M86 0h-57l147 667h57z" />
    <glyph glyph-name="J" unicode="J" horiz-adv-x="470" 
d="M156 -12c-76 0 -142 30 -175 88l39 40c25 -47 71 -76 133 -76c92 0 145 63 165 153l105 474h57l-104 -474c-31 -139 -109 -205 -220 -205z" />
    <glyph glyph-name="K" unicode="K" horiz-adv-x="586" 
d="M508 0h-68l-208 317l-94 -84l-52 -233h-57l147 667h57l-79 -358l397 358h77l-354 -318z" />
    <glyph glyph-name="L" unicode="L" horiz-adv-x="484" 
d="M396 0h-381l147 667h58l-136 -615h322z" />
    <glyph glyph-name="M" unicode="M" horiz-adv-x="790" 
d="M653 0h-58l131 595l-374 -595h-22l-112 595l-132 -595h-57l147 667h82l104 -555l350 555h88z" />
    <glyph glyph-name="N" unicode="N" horiz-adv-x="699" 
d="M562 0h-56l-292 578l-128 -578h-57l147 667h58l291 -570l127 570h57z" />
    <glyph glyph-name="O" unicode="O" horiz-adv-x="764" 
d="M367 -12c-166 0 -300 103 -300 289c0 226 167 401 370 401c165 0 299 -103 299 -289c0 -225 -166 -401 -369 -401zM370 40c161 0 304 145 304 347c0 156 -110 239 -242 239c-162 0 -303 -145 -303 -347c0 -156 109 -239 241 -239z" />
    <glyph glyph-name="P" unicode="P" horiz-adv-x="571" 
d="M86 0h-57l147 667h239c98 0 170 -78 170 -167c0 -103 -70 -223 -247 -223h-190zM345 329h-1c120 0 180 79 180 167c0 63 -52 119 -123 119h-179l-63 -286h186z" />
    <glyph glyph-name="Q" unicode="Q" horiz-adv-x="764" 
d="M367 -12c-166 0 -300 103 -300 289c0 226 167 401 370 401c165 0 299 -103 299 -289c0 -136 -61 -255 -154 -327l45 -60l-46 -29l-44 59c-51 -28 -109 -44 -170 -44zM370 40c47 0 93 13 134 36l-86 117l46 29l85 -116c75 62 125 161 125 281c0 156 -110 239 -242 239
c-162 0 -303 -145 -303 -347c0 -156 109 -239 241 -239z" />
    <glyph glyph-name="R" unicode="R" horiz-adv-x="594" 
d="M489 0h-65l-126 276h-151l-61 -276h-57l147 667h229c90 0 181 -61 181 -168c0 -124 -90 -216 -228 -220zM343 328h2c117 0 179 78 179 168c0 70 -62 119 -125 119h-177l-63 -287h184z" />
    <glyph glyph-name="S" unicode="S" horiz-adv-x="581" 
d="M279 -12c-114 0 -214 51 -255 117l42 41c46 -65 123 -106 218 -106c119 0 168 80 168 145c0 147 -333 121 -333 307c0 101 98 186 225 186c102 0 189 -42 230 -104l-43 -40c-42 63 -117 92 -192 92c-89 0 -158 -62 -158 -128c0 -134 334 -116 334 -306
c0 -100 -81 -204 -236 -204z" />
    <glyph glyph-name="T" unicode="T" horiz-adv-x="564" 
d="M257 0h-58l136 615h-218l11 52h494l-11 -52h-218z" />
    <glyph glyph-name="U" unicode="U" horiz-adv-x="686" 
d="M328 -12c-154 0 -247 84 -247 217c0 21 3 40 5 51l90 411h58l-90 -410c-2 -8 -6 -26 -6 -45c0 -101 69 -172 190 -172c131 0 190 82 220 217l90 410h58l-90 -411c-37 -164 -109 -268 -278 -268z" />
    <glyph glyph-name="V" unicode="V" horiz-adv-x="647" 
d="M305 0h-71l-126 667h63l109 -603l376 603h69z" />
    <glyph glyph-name="W" unicode="W" horiz-adv-x="867" 
d="M604 0h-64l-34 573l-286 -573h-64l-44 667h63l30 -587l294 587h52l34 -587l290 587h66z" />
    <glyph glyph-name="X" unicode="X" horiz-adv-x="645" 
d="M572 0h-65l-170 302l-295 -302h-77l342 346l-180 321h66l157 -283l276 283h78l-323 -328z" />
    <glyph glyph-name="Y" unicode="Y" horiz-adv-x="618" 
d="M284 0h-58l64 285l-182 382h64l153 -328l297 328h74l-349 -382z" />
    <glyph glyph-name="Z" unicode="Z" horiz-adv-x="581" 
d="M477 0h-481l11 50l522 565h-396l10 52h474l-10 -49l-523 -566h404z" />
    <glyph glyph-name="bracketleft" unicode="[" horiz-adv-x="228" 
d="M114 -190h-173l192 868h174l-10 -43h-129l-174 -782h129z" />
    <glyph glyph-name="backslash" unicode="\" horiz-adv-x="282" 
d="M178 -20l-80 707h45l80 -707h-45z" />
    <glyph glyph-name="bracketright" unicode="]" horiz-adv-x="228" 
d="M94 -190h-173l10 43h128l174 782h-130l10 43h174z" />
    <glyph glyph-name="asciicircum" unicode="^" horiz-adv-x="428" 
d="M428 333h-45l-82 293l-212 -293h-51l248 334h42z" />
    <glyph glyph-name="underscore" unicode="_" horiz-adv-x="564" 
d="M494 -83h-569l10 43h569z" />
    <glyph glyph-name="quoteleft" unicode="&#x2018;" horiz-adv-x="219" 
d="M116 531c0 57 50 118 103 146l24 -26c-37 -19 -69 -53 -78 -84h7c18 0 34 -16 34 -37c0 -26 -22 -47 -47 -47c-24 0 -43 16 -43 48z" />
    <glyph glyph-name="a" unicode="a" horiz-adv-x="571" 
d="M299 495c79 0 141 -39 174 -94l17 82h53l-107 -483h-53l17 73c-40 -51 -97 -85 -166 -85c-111 0 -189 74 -189 198c0 163 101 309 254 309zM303 448c-121 0 -201 -125 -201 -252c0 -99 58 -161 146 -161c68 0 131 43 164 93l51 232c-24 48 -82 88 -160 88z" />
    <glyph glyph-name="b" unicode="b" horiz-adv-x="571" 
d="M271 -12c-80 0 -141 39 -174 94l-18 -82h-52l147 667h52l-56 -257c39 51 97 85 166 85c110 0 188 -74 188 -198c0 -162 -101 -309 -253 -309zM266 35c122 0 201 125 201 252c0 99 -58 161 -146 161c-68 0 -130 -43 -164 -93l-51 -232c24 -48 82 -88 160 -88z" />
    <glyph glyph-name="c" unicode="c" horiz-adv-x="494" 
d="M261 -12c-124 0 -215 77 -215 214c0 159 117 293 268 293c83 0 140 -32 173 -88l-40 -30c-28 49 -78 71 -131 71c-133 0 -215 -120 -215 -247c0 -110 72 -166 165 -166c54 0 100 25 131 62l30 -36c-42 -43 -93 -73 -166 -73z" />
    <glyph glyph-name="d" unicode="d" horiz-adv-x="571" 
d="M299 495c79 0 141 -39 174 -94l58 266h53l-148 -667h-53l17 73c-40 -51 -97 -85 -166 -85c-111 0 -189 74 -189 198c0 163 101 309 254 309zM303 448c-121 0 -201 -125 -201 -252c0 -99 58 -161 146 -161c68 0 131 43 164 93l51 232c-24 48 -82 88 -160 88z" />
    <glyph glyph-name="e" unicode="e" horiz-adv-x="567" 
d="M276 -12c-145 0 -230 87 -230 213c0 161 118 294 268 294c129 0 205 -91 205 -209c0 -21 -5 -49 -8 -61h-408c-1 -6 -2 -19 -2 -28c0 -89 59 -164 177 -164c49 0 104 17 146 52l20 -38c-43 -33 -105 -59 -168 -59zM465 266h3c1 5 1 16 1 22c0 94 -57 162 -161 162
c-97 0 -183 -85 -200 -184h357z" />
    <glyph glyph-name="f" unicode="f" horiz-adv-x="265" 
d="M97 0h-53l97 437h-80l10 46h80l9 44c18 90 66 150 150 150c40 0 69 -10 96 -37l-32 -37c-14 16 -33 27 -63 27c-56 0 -84 -38 -98 -103l-10 -44h99l-11 -46h-98z" />
    <glyph glyph-name="g" unicode="g" horiz-adv-x="570" 
d="M212 -196c-90 0 -159 18 -208 82l37 39c34 -52 93 -74 171 -74c77 0 149 41 172 153l15 73c-39 -50 -99 -85 -171 -85c-102 0 -183 65 -183 201c0 155 97 302 251 302c69 0 140 -41 175 -94l19 82h53l-107 -479c-33 -147 -120 -200 -224 -200zM247 39c62 0 126 40 163 86
l53 234c-29 54 -96 89 -165 89c-122 0 -197 -128 -197 -248c0 -101 57 -161 146 -161z" />
    <glyph glyph-name="h" unicode="h" horiz-adv-x="540" 
d="M405 0h-52l72 328c2 9 6 27 6 35c0 60 -46 85 -108 85c-60 0 -122 -42 -163 -85l-81 -363h-52l147 667h52l-56 -257c43 42 106 85 174 85c82 0 141 -39 141 -118c0 -8 -3 -30 -6 -41z" />
    <glyph glyph-name="i" unicode="i" horiz-adv-x="214" 
d="M180 559c-20 0 -36 16 -36 35c0 27 25 44 45 44c21 0 37 -16 37 -35c0 -27 -25 -44 -46 -44zM79 0h-52l107 483h52z" />
    <glyph glyph-name="j" unicode="j" horiz-adv-x="214" 
d="M-74 -196c-45 0 -84 14 -107 43l31 40c15 -20 41 -36 70 -36c46 0 79 26 93 88l121 544h52l-121 -544c-20 -90 -62 -135 -139 -135zM180 559c-20 0 -36 16 -36 35c0 27 25 44 45 44c21 0 37 -16 37 -35c0 -27 -25 -44 -46 -44z" />
    <glyph glyph-name="k" unicode="k" horiz-adv-x="505" 
d="M432 0h-64l-145 233l-112 -88l-32 -145h-52l147 667h52l-101 -456l342 272h73l-274 -218z" />
    <glyph glyph-name="l" unicode="l" horiz-adv-x="214" 
d="M79 0h-52l147 667h52z" />
    <glyph glyph-name="m" unicode="m" horiz-adv-x="789" 
d="M654 0h-52l74 336c1 4 4 17 4 27c0 55 -41 85 -88 85c-51 0 -108 -40 -145 -84l-80 -364h-53l75 336c2 15 4 20 4 33c-1 45 -32 79 -90 79c-50 0 -105 -40 -143 -84l-81 -364h-52l107 483h52l-16 -73c27 31 84 85 154 85c81 0 122 -58 122 -96v-2c39 48 98 98 166 98
c65 0 122 -41 122 -118c0 -10 -3 -27 -6 -41z" />
    <glyph glyph-name="n" unicode="n" horiz-adv-x="540" 
d="M405 0h-52l72 328c2 9 6 23 6 35c0 60 -46 85 -108 85c-60 0 -122 -41 -163 -84l-81 -364h-52l107 483h52l-16 -73c43 42 106 85 174 85c82 0 141 -39 141 -118c0 -9 -3 -30 -6 -41z" />
    <glyph glyph-name="o" unicode="o" horiz-adv-x="571" 
d="M258 -12c-130 0 -213 84 -213 212c0 153 113 295 266 295c130 0 213 -84 213 -212c0 -153 -113 -295 -266 -295zM259 35c121 0 208 121 208 246c0 101 -58 167 -157 167c-121 0 -208 -121 -208 -246c0 -101 58 -167 157 -167z" />
    <glyph glyph-name="p" unicode="p" horiz-adv-x="567" 
d="M271 -12c-80 0 -141 39 -174 94l-59 -266h-52l148 667h52l-16 -73c39 51 97 85 166 85c110 0 188 -74 188 -198c0 -162 -101 -309 -253 -309zM266 35c122 0 201 125 201 252c0 99 -58 161 -146 161c-68 0 -130 -43 -164 -93l-51 -232c24 -48 82 -88 160 -88z" />
    <glyph glyph-name="q" unicode="q" horiz-adv-x="567" 
d="M299 495c79 0 141 -39 174 -94l17 82h53l-148 -667h-53l58 257c-40 -51 -97 -85 -166 -85c-111 0 -189 74 -189 198c0 163 101 309 254 309zM303 448c-121 0 -201 -125 -201 -252c0 -99 58 -161 146 -161c68 0 131 43 164 93l51 232c-24 48 -82 88 -160 88z" />
    <glyph glyph-name="r" unicode="r" horiz-adv-x="317" 
d="M79 0h-52l107 483h52l-18 -78c50 58 97 88 184 88l-13 -56c-6 1 -18 3 -35 3c-59 0 -116 -44 -147 -88z" />
    <glyph glyph-name="s" unicode="s" horiz-adv-x="459" 
d="M202 -12c-87 0 -154 29 -194 85l37 36c25 -40 84 -77 158 -77c80 0 128 48 128 100c0 103 -258 90 -258 220c0 78 64 143 176 143c83 0 149 -37 176 -79l-34 -34c-21 38 -82 69 -146 69c-73 0 -119 -38 -119 -87c0 -98 258 -83 258 -221c0 -80 -65 -155 -182 -155z" />
    <glyph glyph-name="t" unicode="t" horiz-adv-x="275" 
d="M151 -12c-60 0 -97 25 -97 80c0 5 1 17 4 26l76 343h-80l10 46h80l29 132h53l-29 -132h98l-11 -46h-98l-74 -335c-1 -6 -2 -12 -2 -21c0 -29 16 -46 49 -46c19 0 39 9 51 18l10 -42c-18 -13 -41 -23 -69 -23z" />
    <glyph glyph-name="u" unicode="u" horiz-adv-x="540" 
d="M133 483h53l-73 -327c-2 -9 -5 -24 -5 -36c0 -60 46 -85 107 -85s123 41 164 85l81 363h52l-107 -483h-52l16 73c-43 -42 -106 -85 -174 -85c-82 0 -141 39 -141 118c0 9 3 30 6 41z" />
    <glyph glyph-name="v" unicode="v" horiz-adv-x="481" 
d="M216 0h-59l-97 483h56l81 -422l269 422h61z" />
    <glyph glyph-name="w" unicode="w" horiz-adv-x="719" 
d="M491 0h-50l-44 413l-227 -413h-50l-50 483h53l38 -410l227 410h44l45 -410l220 410h58z" />
    <glyph glyph-name="x" unicode="x" horiz-adv-x="479" 
d="M408 0h-59l-113 213l-207 -213h-66l245 248l-127 235h59l105 -199l193 199h66l-233 -235z" />
    <glyph glyph-name="y" unicode="y" horiz-adv-x="481" 
d="M-46 -186l20 50c10 -5 28 -9 47 -9c26 0 47 12 76 55l58 87l-95 486h56l81 -422l269 422h61l-381 -589c-38 -60 -80 -90 -135 -90c-20 0 -41 4 -57 10z" />
    <glyph glyph-name="z" unicode="z" horiz-adv-x="469" 
d="M359 0h-357l9 43l370 394h-282l10 46h353l-9 -42l-373 -395h288z" />
    <glyph glyph-name="braceleft" unicode="{" horiz-adv-x="249" 
d="M135 -190h-49c-51 0 -101 37 -101 97c0 9 1 19 4 27l49 219c1 6 2 12 2 18c0 29 -15 53 -39 53l9 40c40 0 60 34 68 71l49 219c19 82 70 124 139 124h62l-10 -43h-62c-44 0 -74 -30 -85 -81l-51 -227c-9 -42 -28 -74 -64 -87c21 -11 29 -32 29 -54c0 -10 -1 -22 -4 -34
l-48 -218c-1 -6 -2 -14 -2 -21c0 -35 25 -60 58 -60h56z" />
    <glyph glyph-name="bar" unicode="|" horiz-adv-x="208" 
d="M146 -20h-43v707h43v-707z" />
    <glyph glyph-name="braceright" unicode="}" horiz-adv-x="249" 
d="M113 678h49c51 0 100 -37 100 -97c0 -9 -1 -21 -3 -27l-49 -219c-1 -6 -2 -12 -2 -18c0 -29 15 -53 39 -53l-9 -40c-40 0 -60 -34 -68 -71l-49 -219c-19 -82 -70 -124 -139 -124h-62l10 43h61c45 0 75 30 86 81l50 227c10 42 29 74 65 88c-21 10 -29 31 -29 53
c0 10 1 22 4 34l48 218c1 6 2 14 2 21c0 35 -25 60 -58 60h-56z" />
    <glyph glyph-name="asciitilde" unicode="~" horiz-adv-x="499" 
d="M522 667l42 -5c-28 -121 -80 -234 -174 -234c-134 0 -57 196 -150 196c-53 0 -100 -74 -129 -198l-42 7c28 122 81 232 173 232c135 0 58 -197 151 -197c53 0 99 75 129 199z" />
    <glyph glyph-name="exclamdown" unicode="&#xa1;" horiz-adv-x="219" 
d="M103 309h41l-96 -493h-67zM158 493c23 0 40 -18 40 -41c0 -26 -22 -47 -48 -47c-23 0 -40 18 -40 40c0 27 22 48 48 48z" />
    <glyph glyph-name="cent" unicode="&#xa2;" horiz-adv-x="494" 
d="M261 -12c-6 0 -12 0 -18 1l-19 -89h-44l21 95c-93 20 -155 93 -155 207c0 158 116 292 266 293l16 70h44l-17 -73c61 -9 105 -39 132 -85l-40 -30c-23 40 -60 62 -102 69l-91 -411h12c54 0 100 25 131 62l30 -36c-42 -43 -93 -73 -166 -73zM101 201
c0 -88 45 -141 110 -159l91 405c-125 -8 -201 -124 -201 -246z" />
    <glyph glyph-name="sterling" unicode="&#xa3;" horiz-adv-x="504" 
d="M23 267l9 42h132c-25 47 -66 86 -66 153c0 110 103 215 235 215c87 0 173 -46 193 -113l-53 -24c-13 50 -70 87 -138 87c-92 0 -175 -64 -175 -167c0 -67 41 -103 64 -151h147l-9 -42h-126c1 -7 2 -13 2 -20c0 -73 -66 -140 -117 -172c17 5 29 8 48 8
c67 0 107 -44 167 -44c41 0 73 19 96 41l16 -47c-32 -27 -69 -47 -114 -47c-91 0 -116 47 -205 47c-34 0 -75 -16 -116 -40l-12 48c100 39 182 121 182 199c0 9 -1 18 -3 27h-157z" />
    <glyph glyph-name="fraction" unicode="&#x2044;" horiz-adv-x="130" 
d="M394 667l-574 -667h-45l573 667h46z" />
    <glyph glyph-name="fraction" unicode="&#x2215;" horiz-adv-x="130" 
d="M394 667l-574 -667h-45l573 667h46z" />
    <glyph glyph-name="yen" unicode="&#xa5;" horiz-adv-x="618" 
d="M287 0h-58l28 126h-262l9 41h262l27 118h-262l8 42h234l-162 340h64l153 -328l297 328h74l-311 -340h227l-9 -42h-256l-26 -118h255l-9 -41h-255z" />
    <glyph glyph-name="florin" unicode="&#x192;" horiz-adv-x="422" 
d="M37 -161h-59l94 421h-74v49h84l49 221c21 91 68 147 149 147c38 0 69 -8 99 -38l-29 -40c-16 19 -38 26 -61 26c-53 0 -87 -39 -101 -102l-48 -214h151v-49h-161z" />
    <glyph glyph-name="section" unicode="&#xa7;" horiz-adv-x="461" 
d="M423 317c0 -59 -39 -116 -128 -141c57 -30 73 -63 73 -105c0 -76 -65 -152 -179 -152c-94 0 -162 29 -205 80l38 33c31 -45 94 -72 165 -72c75 0 127 47 127 105c0 108 -255 83 -255 226c0 63 52 122 153 135c-58 21 -99 55 -99 111c0 68 61 140 172 140
c86 0 151 -29 189 -75l-36 -30c-34 46 -96 64 -150 64c-71 0 -123 -41 -123 -91c0 -110 258 -78 258 -228zM369 307c0 52 -48 76 -105 97c-106 -14 -152 -58 -152 -105c0 -54 54 -75 137 -104c89 25 120 71 120 112z" />
    <glyph glyph-name="currency" unicode="&#xa4;" horiz-adv-x="522" 
d="M461 136l-34 -27l-37 49c-46 -33 -93 -44 -132 -44c-58 0 -105 21 -145 59l-79 -66l-23 31l77 63c-21 38 -31 62 -31 108c0 66 28 122 80 173l-37 49l32 26l39 -48c46 33 94 43 133 43c58 0 103 -20 143 -57l78 64l25 -30l-78 -64c22 -36 31 -66 31 -108
c0 -66 -29 -121 -80 -173zM454 351c0 91 -64 153 -155 153c-102 0 -193 -87 -193 -189c0 -91 64 -153 155 -153c102 0 193 87 193 189z" />
    <glyph glyph-name="quotesingle" unicode="'" horiz-adv-x="187" 
d="M147 427h-29s23 192 25 206c2 26 18 44 42 44c17 0 32 -14 32 -33c0 -6 -4 -16 -5 -20c-1 -3 -65 -197 -65 -197z" />
    <glyph glyph-name="quotedblleft" unicode="&#x201c;" horiz-adv-x="361" 
d="M267 531c0 57 49 118 102 146l24 -26c-36 -19 -69 -53 -78 -84h7c19 0 35 -16 35 -37c0 -26 -23 -47 -48 -47c-24 0 -42 16 -42 48zM126 531c0 57 49 118 102 146l25 -26c-37 -19 -69 -53 -78 -84h7c18 0 34 -16 34 -37c0 -26 -23 -47 -48 -47c-23 0 -42 16 -42 48z" />
    <glyph glyph-name="guillemotleft" unicode="&#xab;" horiz-adv-x="402" 
d="M202 63h-53l-120 180l200 177h61l-204 -182zM327 63h-53l-120 180l200 177h61l-204 -182z" />
    <glyph glyph-name="guilsinglleft" unicode="&#x2039;" horiz-adv-x="277" 
d="M202 63h-53l-120 180l200 177h61l-204 -182z" />
    <glyph glyph-name="guilsinglright" unicode="&#x203a;" horiz-adv-x="277" 
d="M77 420h53l120 -180l-200 -177h-61l204 182z" />
    <glyph glyph-name="endash" unicode="&#x2013;" horiz-adv-x="593" 
d="M557 218h-533l10 48h533z" />
    <glyph glyph-name="dagger" unicode="&#x2020;" horiz-adv-x="257" 
d="M297 535l-88 4l-43 -212h-39l51 212l-90 -4l8 35l88 -3l21 110h39l-29 -110l90 3z" />
    <glyph glyph-name="daggerdbl" unicode="&#x2021;" horiz-adv-x="257" 
d="M305 570l-8 -35l-88 4l-49 -221l90 4l-8 -35l-88 3l-21 -110h-39l29 110l-90 -3l8 35l88 -4l49 221l-90 -4l8 35l88 -3l21 110h39l-29 -110z" />
    <glyph glyph-name="periodcentered" unicode="&#xb7;" horiz-adv-x="219" 
d="M106 201c-23 0 -41 18 -41 40c0 27 22 47 49 47c22 0 40 -17 40 -40c0 -26 -22 -47 -48 -47z" />
    <glyph glyph-name="periodcentered" unicode="&#x2219;" horiz-adv-x="219" 
d="M106 201c-23 0 -41 18 -41 40c0 27 22 47 49 47c22 0 40 -17 40 -40c0 -26 -22 -47 -48 -47z" />
    <glyph glyph-name="paragraph" unicode="&#xb6;" horiz-adv-x="449" 
d="M291 -100h-38l162 729h-93l-162 -729h-38l94 423c-74 0 -137 65 -137 156c0 94 82 188 194 188h188z" />
    <glyph glyph-name="bullet" unicode="&#x2022;" horiz-adv-x="358" 
d="M283 252c0 -61 -54 -112 -115 -112c-53 0 -93 40 -93 93c0 61 54 112 115 112c53 0 93 -40 93 -93z" />
    <glyph glyph-name="quotesinglbase" unicode="&#x201a;" horiz-adv-x="219" 
d="M109 30c0 -57 -50 -119 -103 -146l-24 26c37 19 69 53 78 84h-7c-18 0 -34 16 -34 36c0 27 22 48 47 48c24 0 43 -17 43 -48z" />
    <glyph glyph-name="quotedblbase" unicode="&#x201e;" horiz-adv-x="361" 
d="M109 30c0 -57 -50 -119 -103 -146l-24 26c37 19 69 53 78 84h-7c-18 0 -34 16 -34 36c0 27 22 48 47 48c24 0 43 -17 43 -48zM249 30c0 -57 -49 -119 -102 -146l-24 26c36 19 69 53 78 84h-7c-19 0 -35 16 -35 36c0 27 23 48 48 48c24 0 42 -17 42 -48z" />
    <glyph glyph-name="quotedblright" unicode="&#x201d;" horiz-adv-x="361" 
d="M242 629c0 -57 -50 -118 -103 -146l-24 26c37 19 69 53 78 84h-7c-18 0 -34 16 -34 36c0 27 22 48 47 48c24 0 43 -16 43 -48zM382 629c0 -57 -49 -118 -102 -146l-24 26c37 19 69 53 78 84h-7c-19 0 -34 16 -34 36c0 27 22 48 47 48c24 0 42 -16 42 -48z" />
    <glyph glyph-name="guillemotright" unicode="&#xbb;" horiz-adv-x="402" 
d="M77 420h53l120 -180l-200 -177h-61l204 182zM202 420h53l120 -180l-200 -177h-62l205 182z" />
    <glyph glyph-name="ellipsis" unicode="&#x2026;" horiz-adv-x="657" 
d="M59 -10c-23 0 -40 18 -40 41c0 26 22 47 48 47c23 0 40 -18 40 -40c0 -27 -22 -48 -48 -48zM278 -10c-23 0 -40 18 -40 41c0 26 22 47 48 47c23 0 40 -18 40 -40c0 -27 -22 -48 -48 -48zM497 -10c-22 0 -40 18 -40 41c0 26 22 47 48 47c23 0 40 -18 40 -40
c0 -27 -21 -48 -48 -48z" />
    <glyph glyph-name="perthousand" unicode="&#x2030;" horiz-adv-x="1067" 
d="M119 0h-45l573 667h46zM494 -12c-81 0 -145 54 -145 134c0 116 84 194 175 194c81 0 145 -54 145 -134c0 -116 -84 -194 -175 -194zM495 27c67 0 127 64 127 151c0 57 -42 99 -99 99c-67 0 -128 -65 -128 -151c0 -57 43 -99 100 -99zM234 349c-80 0 -144 54 -144 134
c0 116 83 194 175 194c80 0 144 -54 144 -133c0 -116 -84 -195 -175 -195zM236 388c66 0 127 65 127 151c0 57 -42 99 -100 99c-67 0 -127 -64 -127 -151c0 -57 42 -99 100 -99zM841 -12c-81 0 -145 54 -145 134c0 116 84 194 175 194c81 0 145 -54 145 -134
c0 -116 -84 -194 -175 -194zM842 27c67 0 128 64 128 151c0 57 -43 99 -100 99c-67 0 -127 -65 -127 -151c0 -57 42 -99 99 -99z" />
    <glyph glyph-name="questiondown" unicode="&#xbf;" horiz-adv-x="392" 
d="M218 282l46 24c18 -22 26 -44 26 -71c0 -144 -256 -132 -256 -277c0 -59 51 -100 139 -100c65 0 122 25 167 72l28 -39c-60 -59 -124 -85 -200 -85c-117 0 -196 59 -196 145c0 179 266 172 266 286c0 13 -5 30 -20 45zM290 492c23 0 40 -17 40 -40c0 -26 -21 -47 -48 -47
c-22 0 -40 18 -40 40c0 27 22 47 48 47z" />
    <glyph glyph-name="grave" unicode="`" horiz-adv-x="216" 
d="M285 556h-44l-140 144h62z" />
    <glyph glyph-name="grave" unicode="&#x2cb;" horiz-adv-x="216" 
d="M285 556h-44l-140 144h62z" />
    <glyph glyph-name="acute" unicode="&#xb4;" horiz-adv-x="216" 
d="M316 700l-204 -144h-45l186 144h63z" />
    <glyph glyph-name="circumflex" unicode="&#x2c6;" horiz-adv-x="250" 
d="M319 556h-38l-62 113l-108 -113h-42l129 144h54z" />
    <glyph glyph-name="tilde" unicode="&#x2dc;" horiz-adv-x="307" 
d="M292 554c-75 0 -58 102 -117 102c-30 0 -53 -28 -69 -96h-36c15 75 52 134 112 134c75 0 59 -102 117 -102c30 0 53 29 70 96h36c-16 -75 -53 -134 -113 -134z" />
    <glyph glyph-name="macron" unicode="&#xaf;" horiz-adv-x="363" 
d="M439 591h-362l8 38h362z" />
    <glyph glyph-name="macron" unicode="&#x203e;" horiz-adv-x="363" 
d="M439 591h-362l8 38h362z" />
    <glyph glyph-name="breve" unicode="&#x2d8;" horiz-adv-x="351" 
d="M441 654c-52 -54 -122 -88 -194 -88c-71 0 -128 34 -157 88l33 25c23 -46 69 -75 130 -75c62 0 120 29 163 75z" />
    <glyph glyph-name="dotaccent" unicode="&#x2d9;" horiz-adv-x="85" 
d="M164 624c0 -23 -20 -42 -43 -42c-19 0 -34 14 -34 34c0 22 20 42 43 42c19 0 34 -15 34 -34z" />
    <glyph glyph-name="dieresis" unicode="&#xa8;" horiz-adv-x="262" 
d="M349 605c0 -22 -19 -41 -41 -41c-19 0 -34 14 -34 33c0 22 20 41 42 41c19 0 33 -14 33 -33zM145 605c0 -22 -19 -41 -42 -41c-18 0 -33 14 -33 33c0 22 20 41 42 41c19 0 33 -14 33 -33z" />
    <glyph glyph-name="ring" unicode="&#x2da;" horiz-adv-x="191" 
d="M176 557c-51 0 -87 36 -87 87c0 56 48 105 105 105c51 0 87 -36 87 -87c0 -57 -49 -105 -105 -105zM177 589c38 0 72 32 72 70c0 34 -23 58 -56 58c-39 0 -72 -32 -72 -70c0 -34 22 -58 56 -58z" />
    <glyph glyph-name="cedilla" unicode="&#xb8;" horiz-adv-x="198" 
d="M15 -189c-46 0 -82 16 -104 37l23 30c22 -23 54 -34 83 -34c45 0 66 23 66 51c0 20 -15 34 -40 34c-13 0 -27 -6 -37 -18l-24 16l49 84h38l-41 -67c11 8 22 11 34 11c34 0 58 -21 58 -57c0 -51 -42 -87 -105 -87z" />
    <glyph glyph-name="hungarumlaut" unicode="&#x2dd;" horiz-adv-x="291" 
d="M253 700l-147 -144h-39l129 144h57zM392 700l-147 -144h-39l129 144h57z" />
    <glyph glyph-name="ogonek" unicode="&#x2db;" horiz-adv-x="171" 
d="M63 -110l26 -18c-19 -31 -45 -58 -90 -58c-44 0 -77 24 -77 70c0 61 47 106 115 136l25 -20c-62 -27 -104 -62 -104 -110c0 -29 18 -43 46 -43c25 0 44 16 59 43z" />
    <glyph glyph-name="caron" unicode="&#x2c7;" horiz-adv-x="250" 
d="M223 556h-54l-68 144h38l61 -113l109 113h42z" />
    <glyph glyph-name="emdash" unicode="&#x2014;" horiz-adv-x="833" 
d="M797 218h-773l10 48h773z" />
    <glyph glyph-name="AE" unicode="&#xc6;" horiz-adv-x="939" 
d="M825 0h-423l36 164h-271l-138 -164h-69l568 667h444l-11 -52h-365l-55 -247h358l-11 -52h-359l-58 -264h365zM450 216l85 385l-327 -385h242z" />
    <glyph glyph-name="ordfeminine" unicode="&#xaa;" horiz-adv-x="409" 
d="M267 613c-74 0 -131 -73 -131 -157c0 -67 39 -103 94 -103c47 0 82 27 108 57l34 152c-17 31 -59 51 -105 51zM389 640h43l-70 -314h-43l11 50c-31 -38 -66 -58 -113 -58c-66 0 -126 44 -126 135c0 102 72 195 170 195c53 0 94 -22 117 -57z" />
    <glyph glyph-name="Lslash" unicode="&#x141;" horiz-adv-x="520" 
d="M9 234l12 52l104 54l72 327h58l-65 -294l119 62l-11 -53l-120 -61l-59 -269h322l-10 -52h-381l63 287z" />
    <glyph glyph-name="Oslash" unicode="&#xd8;" horiz-adv-x="764" 
d="M367 -12c-72 0 -138 19 -189 56l-38 -44h-51l59 69c-50 49 -81 119 -81 208c0 226 167 401 370 401c70 0 134 -19 185 -54l37 43h52l-58 -68c51 -49 83 -120 83 -210c0 -225 -166 -401 -369 -401zM370 40c161 0 304 145 304 347c0 71 -23 126 -60 166l-399 -465
c42 -32 96 -48 155 -48zM129 279c0 -70 21 -125 57 -165l398 466c-42 30 -95 46 -152 46c-162 0 -303 -145 -303 -347z" />
    <glyph glyph-name="OE" unicode="&#x152;" horiz-adv-x="1115" 
d="M1001 0h-423l25 114c-56 -77 -142 -126 -255 -126c-168 0 -281 120 -281 289c0 236 174 400 375 400c107 0 208 -44 248 -172l35 162h423l-11 -52h-365l-55 -247h358l-12 -52h-358l-58 -264h365zM621 194l51 231c-18 128 -107 200 -233 200c-168 0 -310 -147 -310 -346
c0 -147 96 -239 235 -239c101 0 201 57 257 154z" />
    <glyph glyph-name="ordmasculine" unicode="&#xba;" horiz-adv-x="405" 
d="M238 318c-88 0 -145 57 -145 141c0 102 78 189 179 189c88 0 145 -57 145 -141c0 -102 -78 -189 -179 -189zM239 355c81 0 134 73 134 152c0 61 -41 103 -101 103c-81 0 -134 -72 -134 -151c0 -61 40 -104 101 -104z" />
    <glyph glyph-name="ae" unicode="&#xe6;" horiz-adv-x="947" 
d="M664 -12c-111 0 -178 60 -199 144l-29 -132h-53l16 73c-39 -51 -97 -85 -165 -85c-111 0 -189 74 -189 198c0 163 101 309 253 309c80 0 142 -39 174 -94l18 82h53l-20 -91c46 62 112 103 186 103c127 0 190 -89 190 -207c0 -22 -4 -51 -7 -63h-403c-1 -6 -2 -19 -2 -28
c0 -89 59 -164 177 -164c49 0 99 18 141 52l20 -38c-43 -33 -101 -59 -161 -59zM303 448c-121 0 -201 -125 -201 -252c0 -99 58 -161 146 -161c68 0 130 43 164 93l51 232c-24 48 -82 88 -160 88zM848 266c1 5 2 16 2 22c0 94 -52 162 -156 162c-97 0 -183 -85 -200 -184
h354z" />
    <glyph glyph-name="dotlessi" unicode="&#x131;" horiz-adv-x="214" 
d="M79 0h-52l107 483h52z" />
    <glyph glyph-name="lslash" unicode="&#x142;" horiz-adv-x="277" 
d="M9 238l11 46l114 58l72 325h52l-65 -295l114 58l-10 -46l-114 -58l-72 -326h-52l65 296z" />
    <glyph glyph-name="oslash" unicode="&#xf8;" horiz-adv-x="571" 
d="M65 0h-46l66 66c-26 35 -40 81 -40 134c0 153 113 295 266 295c60 0 110 -18 147 -51l38 39h46l-61 -62c28 -36 43 -83 43 -138c0 -153 -113 -295 -266 -295c-63 0 -115 19 -152 54zM259 35c121 0 208 121 208 246c0 39 -9 73 -26 100l-297 -301c27 -29 66 -45 115 -45z
M102 202c0 -37 7 -70 22 -96l297 301c-27 26 -65 41 -111 41c-121 0 -208 -121 -208 -246z" />
    <glyph glyph-name="oe" unicode="&#x153;" horiz-adv-x="975" 
d="M920 225h-404c-1 -5 -2 -17 -2 -28c0 -89 59 -164 175 -164c52 0 106 20 144 52l21 -38c-44 -35 -105 -59 -167 -59c-132 0 -203 91 -210 151c-33 -56 -92 -151 -221 -151c-124 0 -211 79 -211 212c0 152 110 295 264 295c128 0 187 -97 193 -151c32 55 100 151 223 151
c119 0 203 -80 203 -209c0 -21 -4 -45 -8 -61zM521 266h356c1 6 2 12 2 22c0 91 -55 162 -159 162c-108 0 -187 -103 -199 -184zM463 281c0 119 -75 167 -155 167c-115 0 -206 -115 -206 -246c0 -100 56 -167 155 -167c117 0 206 116 206 246z" />
    <glyph glyph-name="germandbls" unicode="&#xdf;" horiz-adv-x="578" 
d="M537 141c0 -75 -60 -153 -180 -153c-91 0 -147 27 -199 90l37 33c34 -45 85 -79 163 -79c83 0 127 53 127 102c0 103 -252 77 -252 212s203 123 203 210c0 47 -58 74 -105 74c-66 0 -122 -46 -139 -121l-113 -509h-52l112 509c21 94 88 168 192 168
c79 0 159 -43 159 -113c0 -129 -204 -109 -204 -211c0 -97 251 -74 251 -212z" />
    <glyph glyph-name="onesuperior" unicode="&#xb9;" horiz-adv-x="214" 
d="M193 421h-46l74 337l-77 -66l-22 30l119 99h40z" />
    <glyph glyph-name="logicalnot" unicode="&#xac;" horiz-adv-x="499" 
d="M513 453l-52 -237h-44l43 195h-394l9 42h438z" />
    <glyph glyph-name="mu" unicode="&#xb5;" horiz-adv-x="540" 
d="M38 -184h-52l148 667h52l-75 -340c-2 -10 -3 -23 -3 -33c0 -59 37 -77 94 -77c62 0 135 39 175 82l83 368h52l-107 -483h-52l15 71c-49 -44 -122 -83 -192 -83c-42 0 -73 8 -94 25z" />
    <glyph glyph-name="mu" unicode="&#x3bc;" horiz-adv-x="540" 
d="M38 -184h-52l148 667h52l-75 -340c-2 -10 -3 -23 -3 -33c0 -59 37 -77 94 -77c62 0 135 39 175 82l83 368h52l-107 -483h-52l15 71c-49 -44 -122 -83 -192 -83c-42 0 -73 8 -94 25z" />
    <glyph glyph-name="trademark" unicode="&#x2122;" horiz-adv-x="454" 
d="M464 447h-28l40 182l-115 -182h-8l-35 182l-40 -182h-28l48 220h43l29 -160l99 160h43zM257 641h-62l-43 -194h-28l43 194h-62l5 26h152z" />
    <glyph glyph-name="Eth" unicode="&#xd0;" horiz-adv-x="721" 
d="M270 0h-212l68 309h-101l11 50h101l68 308h208c149 0 271 -119 271 -284c0 -184 -135 -383 -414 -383zM362 309h-179l-57 -257h154c211 0 344 152 344 329c0 135 -95 234 -222 234h-151l-57 -256h179z" />
    <glyph glyph-name="onehalf" unicode="&#xbd;" horiz-adv-x="781" 
d="M661 667l-574 -667h-45l573 667h46zM676 0h-281l9 39c167 101 290 177 290 260c0 48 -46 69 -91 69c-47 0 -86 -17 -113 -47l-22 30c33 35 81 55 135 55c63 0 137 -28 137 -105c0 -97 -130 -179 -269 -263h213zM159 267h-46l74 337l-77 -66l-22 30l119 99h40z" />
    <glyph glyph-name="plusminus" unicode="&#xb1;" horiz-adv-x="496" 
d="M485 323h-197l-48 -218h-45l48 218h-197l10 41h196l47 212h44l-46 -212h197zM413 0h-438l9 41h438z" />
    <glyph glyph-name="Thorn" unicode="&#xde;" horiz-adv-x="571" 
d="M86 0h-57l147 667h57l-27 -124h181c95 0 171 -74 171 -167c0 -103 -72 -223 -248 -223h-190zM316 205c123 0 180 82 180 167c0 67 -56 119 -123 119h-178l-63 -286h184z" />
    <glyph glyph-name="onequarter" unicode="&#xbc;" horiz-adv-x="742" 
d="M661 667l-574 -667h-45l573 667h46zM671 107h-60l-24 -107h-44l23 107h-196l8 35l236 258h61l-57 -256h60zM574 144l47 211l-196 -211h149zM159 267h-46l74 337l-77 -66l-22 30l119 99h40z" />
    <glyph glyph-name="divide" unicode="&#xf7;" horiz-adv-x="511" 
d="M498 316h-453l9 42h453zM228 100c-20 0 -35 16 -35 36c0 24 19 42 43 42c20 0 36 -16 36 -36c0 -24 -20 -42 -44 -42zM315 492c-20 0 -36 16 -36 36c0 23 20 42 43 42c21 0 36 -16 36 -36c0 -24 -19 -42 -43 -42z" />
    <glyph glyph-name="brokenbar" unicode="&#xa6;" horiz-adv-x="208" 
d="M146 -20h-43v316h43v-316zM146 371h-43v316h43v-316z" />
    <glyph glyph-name="degree" unicode="&#xb0;" horiz-adv-x="282" 
d="M327 560c0 -64 -53 -115 -117 -115s-116 51 -116 115s52 117 116 117s117 -53 117 -117zM288 560c0 43 -36 78 -78 78s-76 -35 -76 -78c0 -42 33 -76 75 -76s79 34 79 76z" />
    <glyph glyph-name="thorn" unicode="&#xfe;" horiz-adv-x="567" 
d="M271 -12c-80 0 -141 39 -174 94l-59 -266h-52l188 851h52l-56 -257c39 51 97 85 166 85c110 0 188 -74 188 -198c0 -162 -101 -309 -253 -309zM266 35c122 0 201 125 201 252c0 99 -58 161 -146 161c-68 0 -130 -43 -164 -93l-51 -232c24 -48 82 -88 160 -88z" />
    <glyph glyph-name="threequarters" unicode="&#xbe;" horiz-adv-x="859" 
d="M778 667l-574 -667h-45l573 667h46zM788 107h-60l-24 -107h-44l23 107h-196l8 35l236 258h61l-57 -256h60zM691 144l47 211l-196 -211h149zM365 382c0 -59 -53 -122 -143 -122c-70 0 -125 26 -152 72l32 25c25 -39 68 -59 119 -59c61 0 98 40 98 90c0 39 -43 67 -104 67
c-10 0 -21 0 -28 -1l8 38c15 -1 41 -2 59 -2c59 0 100 29 100 77c0 43 -46 68 -98 68c-42 0 -75 -14 -109 -44l-20 29c31 28 80 53 131 53c74 0 141 -32 141 -100c0 -62 -49 -100 -111 -105c38 -7 77 -39 77 -86z" />
    <glyph glyph-name="twosuperior" unicode="&#xb2;" 
d="M372 421h-281l9 39c167 101 290 177 290 260c0 48 -46 69 -91 69c-47 0 -86 -17 -113 -47l-22 30c33 35 81 55 135 55c63 0 137 -28 137 -105c0 -97 -130 -179 -269 -263h213z" />
    <glyph glyph-name="registered" unicode="&#xae;" horiz-adv-x="494" 
d="M508 465c0 -117 -95 -212 -213 -212c-117 0 -211 95 -211 212c0 118 95 212 212 212c118 0 212 -94 212 -212zM481 465c0 103 -84 185 -186 185s-184 -82 -184 -185c0 -101 82 -185 184 -185s186 84 186 185zM366 343h-36l-42 96h-48l-21 -96h-30l53 243h91
c35 0 69 -22 69 -64c0 -49 -43 -82 -80 -82zM370 518c0 26 -19 40 -42 40h-62l-20 -90h69c30 0 55 22 55 50z" />
    <glyph glyph-name="minus" unicode="&#x2212;" horiz-adv-x="496" 
d="M482 313h-438l9 42h439z" />
    <glyph glyph-name="eth" unicode="&#xf0;" horiz-adv-x="571" 
d="M189 523l-7 33l135 40c-22 20 -45 39 -70 58l39 40c33 -25 64 -51 92 -80l119 36l7 -33l-100 -30c74 -85 120 -185 120 -286c0 -173 -110 -313 -263 -313c-128 0 -215 88 -215 205c0 163 114 294 253 294c61 0 133 -28 168 -105c-26 69 -68 132 -122 187zM262 35
c111 0 203 111 203 245c0 75 -47 160 -161 160c-109 0 -202 -104 -202 -240c0 -95 58 -165 160 -165z" />
    <glyph glyph-name="multiply" unicode="&#xd7;" horiz-adv-x="496" 
d="M381 155l-117 150l-186 -153l-26 31l187 154l-117 150l33 27l116 -151l188 153l25 -31l-187 -154l116 -150z" />
    <glyph glyph-name="threesuperior" unicode="&#xb3;" 
d="M399 536c0 -59 -53 -122 -143 -122c-70 0 -125 26 -152 72l32 25c25 -39 68 -59 119 -59c61 0 98 40 98 90c0 39 -43 67 -104 67c-10 0 -21 0 -28 -1l8 38c15 -1 41 -2 59 -2c59 0 100 29 100 77c0 43 -46 68 -98 68c-42 0 -75 -14 -109 -44l-20 29c31 28 80 53 131 53
c74 0 141 -32 141 -100c0 -62 -49 -100 -111 -105c38 -7 77 -39 77 -86z" />
    <glyph glyph-name="copyright" unicode="&#xa9;" horiz-adv-x="778" 
d="M754 334c0 -190 -155 -345 -346 -345c-190 0 -344 155 -344 345c0 191 154 345 344 345c191 0 346 -154 346 -345zM726 334c0 175 -143 317 -318 317c-174 0 -316 -142 -316 -317c0 -174 142 -317 316 -317c175 0 318 143 318 317zM505 197l17 -25
c-36 -30 -80 -52 -133 -52c-121 0 -192 84 -192 187c0 138 117 242 236 242c69 0 123 -26 155 -80l-27 -19c-24 45 -71 69 -128 69c-98 0 -203 -89 -203 -212c0 -85 64 -157 159 -157c43 0 88 20 116 47z" />
    <glyph glyph-name="Aacute" unicode="&#xc1;" horiz-adv-x="647" 
d="M619 872l-204 -144h-45l186 144h63zM578 0h-63l-30 164h-353l-102 -164h-69l420 667h71zM478 216l-72 390l-244 -390h316z" />
    <glyph glyph-name="Acircumflex" unicode="&#xc2;" horiz-adv-x="647" 
d="M557 728h-38l-62 113l-108 -113h-42l129 144h54zM578 0h-63l-30 164h-353l-102 -164h-69l420 667h71zM478 216l-72 390l-244 -390h316z" />
    <glyph glyph-name="Adieresis" unicode="&#xc4;" horiz-adv-x="647" 
d="M580 773c0 -22 -19 -41 -41 -41c-19 0 -34 14 -34 33c0 22 20 41 42 41c19 0 33 -14 33 -33zM376 773c0 -22 -19 -41 -42 -41c-18 0 -33 14 -33 33c0 22 20 41 42 41c19 0 33 -14 33 -33zM578 0h-63l-30 164h-353l-102 -164h-69l420 667h71zM478 216l-72 390l-244 -390
h316z" />
    <glyph glyph-name="Agrave" unicode="&#xc0;" horiz-adv-x="647" 
d="M491 728h-44l-140 144h62zM578 0h-63l-30 164h-353l-102 -164h-69l420 667h71zM478 216l-72 390l-244 -390h316z" />
    <glyph glyph-name="Aring" unicode="&#xc5;" horiz-adv-x="647" 
d="M434 692c-51 0 -87 36 -87 87c0 56 48 105 105 105c51 0 87 -36 87 -87c0 -57 -49 -105 -105 -105zM435 724c38 0 72 32 72 70c0 34 -23 58 -56 58c-39 0 -72 -32 -72 -70c0 -34 22 -58 56 -58zM578 0h-63l-30 164h-353l-102 -164h-69l420 667h71zM478 216l-72 390
l-244 -390h316z" />
    <glyph glyph-name="Atilde" unicode="&#xc3;" horiz-adv-x="647" 
d="M501 726c-75 0 -58 102 -117 102c-30 0 -53 -28 -69 -96h-36c15 75 52 134 112 134c75 0 59 -102 117 -102c30 0 53 29 70 96h36c-16 -75 -53 -134 -113 -134zM578 0h-63l-30 164h-353l-102 -164h-69l420 667h71zM478 216l-72 390l-244 -390h316z" />
    <glyph glyph-name="Ccedilla" unicode="&#xc7;" horiz-adv-x="671" 
d="M367 -12c-7 0 -13 0 -19 1l-27 -45c11 8 22 11 34 11c34 0 58 -21 58 -57c0 -51 -42 -87 -105 -87c-46 0 -82 16 -104 37l23 30c22 -23 54 -34 83 -34c45 0 66 23 66 51c0 20 -15 34 -40 34c-13 0 -27 -6 -37 -18l-24 16l38 65c-146 21 -246 129 -246 285
c0 243 183 401 370 401c117 0 211 -51 262 -143l-55 -25c-46 83 -125 116 -211 116c-152 0 -304 -134 -304 -347c0 -143 93 -239 241 -239c65 0 129 24 189 76l40 -34c-67 -65 -152 -94 -232 -94z" />
    <glyph glyph-name="Eacute" unicode="&#xc9;" horiz-adv-x="564" 
d="M589 872l-204 -144h-45l186 144h63zM452 0h-423l147 667h423l-11 -52h-366l-54 -247h358l-12 -52h-358l-59 -264h366z" />
    <glyph glyph-name="Ecircumflex" unicode="&#xca;" horiz-adv-x="564" 
d="M525 728h-38l-62 113l-108 -113h-42l129 144h54zM452 0h-423l147 667h423l-11 -52h-366l-54 -247h358l-12 -52h-358l-59 -264h366z" />
    <glyph glyph-name="Edieresis" unicode="&#xcb;" horiz-adv-x="564" 
d="M548 773c0 -22 -19 -41 -41 -41c-19 0 -34 14 -34 33c0 22 20 41 42 41c19 0 33 -14 33 -33zM344 773c0 -22 -19 -41 -42 -41c-18 0 -33 14 -33 33c0 22 20 41 42 41c19 0 33 -14 33 -33zM452 0h-423l147 667h423l-11 -52h-366l-54 -247h358l-12 -52h-358l-59 -264h366z
" />
    <glyph glyph-name="Egrave" unicode="&#xc8;" horiz-adv-x="564" 
d="M461 728h-44l-140 144h62zM452 0h-423l147 667h423l-11 -52h-366l-54 -247h358l-12 -52h-358l-59 -264h366z" />
    <glyph glyph-name="Iacute" unicode="&#xcd;" horiz-adv-x="223" 
d="M407 872l-204 -144h-45l186 144h63zM86 0h-57l147 667h57z" />
    <glyph glyph-name="Icircumflex" unicode="&#xce;" horiz-adv-x="223" 
d="M345 728h-38l-62 113l-108 -113h-42l129 144h54zM86 0h-57l147 667h57z" />
    <glyph glyph-name="Idieresis" unicode="&#xcf;" horiz-adv-x="223" 
d="M367 773c0 -22 -19 -41 -41 -41c-19 0 -34 14 -34 33c0 22 20 41 42 41c19 0 33 -14 33 -33zM163 773c0 -22 -19 -41 -42 -41c-18 0 -33 14 -33 33c0 22 20 41 42 41c19 0 33 -14 33 -33zM86 0h-57l147 667h57z" />
    <glyph glyph-name="Igrave" unicode="&#xcc;" horiz-adv-x="223" 
d="M279 728h-44l-140 144h62zM86 0h-57l147 667h57z" />
    <glyph glyph-name="Ntilde" unicode="&#xd1;" horiz-adv-x="699" 
d="M525 726c-75 0 -58 102 -117 102c-30 0 -53 -28 -69 -96h-36c15 75 52 134 112 134c75 0 59 -102 117 -102c30 0 53 29 70 96h36c-16 -75 -53 -134 -113 -134zM562 0h-56l-292 578l-128 -578h-57l147 667h58l291 -570l127 570h57z" />
    <glyph glyph-name="Oacute" unicode="&#xd3;" horiz-adv-x="764" 
d="M678 872l-204 -144h-45l186 144h63zM367 -12c-166 0 -300 103 -300 289c0 226 167 401 370 401c165 0 299 -103 299 -289c0 -225 -166 -401 -369 -401zM370 40c161 0 304 145 304 347c0 156 -110 239 -242 239c-162 0 -303 -145 -303 -347c0 -156 109 -239 241 -239z" />
    <glyph glyph-name="Ocircumflex" unicode="&#xd4;" horiz-adv-x="764" 
d="M616 728h-38l-62 113l-108 -113h-42l129 144h54zM367 -12c-166 0 -300 103 -300 289c0 226 167 401 370 401c165 0 299 -103 299 -289c0 -225 -166 -401 -369 -401zM370 40c161 0 304 145 304 347c0 156 -110 239 -242 239c-162 0 -303 -145 -303 -347
c0 -156 109 -239 241 -239z" />
    <glyph glyph-name="Odieresis" unicode="&#xd6;" horiz-adv-x="764" 
d="M636 773c0 -22 -19 -41 -41 -41c-19 0 -34 14 -34 33c0 22 20 41 42 41c19 0 33 -14 33 -33zM432 773c0 -22 -19 -41 -42 -41c-18 0 -33 14 -33 33c0 22 20 41 42 41c19 0 33 -14 33 -33zM367 -12c-166 0 -300 103 -300 289c0 226 167 401 370 401
c165 0 299 -103 299 -289c0 -225 -166 -401 -369 -401zM370 40c161 0 304 145 304 347c0 156 -110 239 -242 239c-162 0 -303 -145 -303 -347c0 -156 109 -239 241 -239z" />
    <glyph glyph-name="Ograve" unicode="&#xd2;" horiz-adv-x="764" 
d="M553 728h-44l-140 144h62zM367 -12c-166 0 -300 103 -300 289c0 226 167 401 370 401c165 0 299 -103 299 -289c0 -225 -166 -401 -369 -401zM370 40c161 0 304 145 304 347c0 156 -110 239 -242 239c-162 0 -303 -145 -303 -347c0 -156 109 -239 241 -239z" />
    <glyph glyph-name="Otilde" unicode="&#xd5;" horiz-adv-x="764" 
d="M559 726c-75 0 -58 102 -117 102c-30 0 -53 -28 -69 -96h-36c15 75 52 134 112 134c75 0 59 -102 117 -102c30 0 53 29 70 96h36c-16 -75 -53 -134 -113 -134zM367 -12c-166 0 -300 103 -300 289c0 226 167 401 370 401c165 0 299 -103 299 -289
c0 -225 -166 -401 -369 -401zM370 40c161 0 304 145 304 347c0 156 -110 239 -242 239c-162 0 -303 -145 -303 -347c0 -156 109 -239 241 -239z" />
    <glyph glyph-name="Scaron" unicode="&#x160;" horiz-adv-x="581" 
d="M419 728h-54l-68 144h38l61 -113l109 113h42zM279 -12c-114 0 -214 51 -255 117l42 41c46 -65 123 -106 218 -106c119 0 168 80 168 145c0 147 -333 121 -333 307c0 101 98 186 225 186c102 0 189 -42 230 -104l-43 -40c-42 63 -117 92 -192 92c-89 0 -158 -62 -158 -128
c0 -134 334 -116 334 -306c0 -100 -81 -204 -236 -204z" />
    <glyph glyph-name="Uacute" unicode="&#xda;" horiz-adv-x="686" 
d="M637 872l-204 -144h-45l186 144h63zM328 -12c-154 0 -247 84 -247 217c0 21 3 40 5 51l90 411h58l-90 -410c-2 -8 -6 -26 -6 -45c0 -101 69 -172 190 -172c131 0 190 82 220 217l90 410h58l-90 -411c-37 -164 -109 -268 -278 -268z" />
    <glyph glyph-name="Ucircumflex" unicode="&#xdb;" horiz-adv-x="686" 
d="M579 728h-38l-62 113l-108 -113h-42l129 144h54zM328 -12c-154 0 -247 84 -247 217c0 21 3 40 5 51l90 411h58l-90 -410c-2 -8 -6 -26 -6 -45c0 -101 69 -172 190 -172c131 0 190 82 220 217l90 410h58l-90 -411c-37 -164 -109 -268 -278 -268z" />
    <glyph glyph-name="Udieresis" unicode="&#xdc;" horiz-adv-x="686" 
d="M599 773c0 -22 -19 -41 -41 -41c-19 0 -34 14 -34 33c0 22 20 41 42 41c19 0 33 -14 33 -33zM395 773c0 -22 -19 -41 -42 -41c-18 0 -33 14 -33 33c0 22 20 41 42 41c19 0 33 -14 33 -33zM328 -12c-154 0 -247 84 -247 217c0 21 3 40 5 51l90 411h58l-90 -410
c-2 -8 -6 -26 -6 -45c0 -101 69 -172 190 -172c131 0 190 82 220 217l90 410h58l-90 -411c-37 -164 -109 -268 -278 -268z" />
    <glyph glyph-name="Ugrave" unicode="&#xd9;" horiz-adv-x="686" 
d="M512 728h-44l-140 144h62zM328 -12c-154 0 -247 84 -247 217c0 21 3 40 5 51l90 411h58l-90 -410c-2 -8 -6 -26 -6 -45c0 -101 69 -172 190 -172c131 0 190 82 220 217l90 410h58l-90 -411c-37 -164 -109 -268 -278 -268z" />
    <glyph glyph-name="Yacute" unicode="&#xdd;" horiz-adv-x="618" 
d="M608 872l-204 -144h-45l186 144h63zM284 0h-58l64 285l-182 382h64l153 -328l297 328h74l-349 -382z" />
    <glyph glyph-name="Ydieresis" unicode="&#x178;" horiz-adv-x="618" 
d="M568 773c0 -22 -19 -41 -41 -41c-19 0 -34 14 -34 33c0 22 20 41 42 41c19 0 33 -14 33 -33zM364 773c0 -22 -19 -41 -42 -41c-18 0 -33 14 -33 33c0 22 20 41 42 41c19 0 33 -14 33 -33zM284 0h-58l64 285l-182 382h64l153 -328l297 328h74l-349 -382z" />
    <glyph glyph-name="Zcaron" unicode="&#x17d;" horiz-adv-x="581" 
d="M426 728h-54l-68 144h38l61 -113l109 113h42zM477 0h-481l11 50l522 565h-396l10 52h474l-10 -49l-523 -566h404z" />
    <glyph glyph-name="aacute" unicode="&#xe1;" horiz-adv-x="571" 
d="M299 495c79 0 141 -39 174 -94l17 82h53l-107 -483h-53l17 73c-40 -51 -97 -85 -166 -85c-111 0 -189 74 -189 198c0 163 101 309 254 309zM303 448c-121 0 -201 -125 -201 -252c0 -99 58 -161 146 -161c68 0 131 43 164 93l51 232c-24 48 -82 88 -160 88zM527 700
l-204 -144h-45l186 144h63z" />
    <glyph glyph-name="acircumflex" unicode="&#xe2;" horiz-adv-x="571" 
d="M299 495c79 0 141 -39 174 -94l17 82h53l-107 -483h-53l17 73c-40 -51 -97 -85 -166 -85c-111 0 -189 74 -189 198c0 163 101 309 254 309zM303 448c-121 0 -201 -125 -201 -252c0 -99 58 -161 146 -161c68 0 131 43 164 93l51 232c-24 48 -82 88 -160 88zM466 556h-38
l-62 113l-108 -113h-42l129 144h54z" />
    <glyph glyph-name="adieresis" unicode="&#xe4;" horiz-adv-x="571" 
d="M299 495c79 0 141 -39 174 -94l17 82h53l-107 -483h-53l17 73c-40 -51 -97 -85 -166 -85c-111 0 -189 74 -189 198c0 163 101 309 254 309zM303 448c-121 0 -201 -125 -201 -252c0 -99 58 -161 146 -161c68 0 131 43 164 93l51 232c-24 48 -82 88 -160 88zM490 605
c0 -22 -19 -41 -41 -41c-19 0 -34 14 -34 33c0 22 20 41 42 41c19 0 33 -14 33 -33zM286 605c0 -22 -19 -41 -42 -41c-18 0 -33 14 -33 33c0 22 20 41 42 41c19 0 33 -14 33 -33z" />
    <glyph glyph-name="agrave" unicode="&#xe0;" horiz-adv-x="571" 
d="M299 495c79 0 141 -39 174 -94l17 82h53l-107 -483h-53l17 73c-40 -51 -97 -85 -166 -85c-111 0 -189 74 -189 198c0 163 101 309 254 309zM303 448c-121 0 -201 -125 -201 -252c0 -99 58 -161 146 -161c68 0 131 43 164 93l51 232c-24 48 -82 88 -160 88zM399 556h-44
l-140 144h62z" />
    <glyph glyph-name="aring" unicode="&#xe5;" horiz-adv-x="571" 
d="M299 495c79 0 141 -39 174 -94l17 82h53l-107 -483h-53l17 73c-40 -51 -97 -85 -166 -85c-111 0 -189 74 -189 198c0 163 101 309 254 309zM303 448c-121 0 -201 -125 -201 -252c0 -99 58 -161 146 -161c68 0 131 43 164 93l51 232c-24 48 -82 88 -160 88zM353 550
c-51 0 -87 36 -87 87c0 56 48 105 105 105c51 0 87 -36 87 -87c0 -57 -49 -105 -105 -105zM354 582c38 0 72 32 72 70c0 34 -23 58 -56 58c-39 0 -72 -32 -72 -70c0 -34 22 -58 56 -58z" />
    <glyph glyph-name="atilde" unicode="&#xe3;" horiz-adv-x="571" 
d="M299 495c79 0 141 -39 174 -94l17 82h53l-107 -483h-53l17 73c-40 -51 -97 -85 -166 -85c-111 0 -189 74 -189 198c0 163 101 309 254 309zM303 448c-121 0 -201 -125 -201 -252c0 -99 58 -161 146 -161c68 0 131 43 164 93l51 232c-24 48 -82 88 -160 88zM409 554
c-75 0 -58 102 -117 102c-30 0 -53 -28 -69 -96h-36c15 75 52 134 112 134c75 0 59 -102 117 -102c30 0 53 29 70 96h36c-16 -75 -53 -134 -113 -134z" />
    <glyph glyph-name="ccedilla" unicode="&#xe7;" horiz-adv-x="494" 
d="M207 -189c-46 0 -82 16 -104 37l23 30c22 -23 54 -34 83 -34c45 0 66 23 66 51c0 20 -15 34 -40 34c-13 0 -27 -6 -37 -18l-24 16l38 65c-99 18 -166 91 -166 210c0 159 117 293 268 293c83 0 140 -32 173 -88l-40 -30c-28 49 -78 71 -131 71c-133 0 -215 -120 -215 -247
c0 -110 72 -166 165 -166c54 0 100 25 131 62l30 -36c-42 -43 -93 -73 -166 -73c-5 0 -10 1 -14 1l-27 -45c11 8 22 11 34 11c34 0 58 -21 58 -57c0 -51 -42 -87 -105 -87z" />
    <glyph glyph-name="eacute" unicode="&#xe9;" horiz-adv-x="567" 
d="M276 -12c-145 0 -230 87 -230 213c0 161 118 294 268 294c129 0 205 -91 205 -209c0 -21 -5 -49 -8 -61h-408c-1 -6 -2 -19 -2 -28c0 -89 59 -164 177 -164c49 0 104 17 146 52l20 -38c-43 -33 -105 -59 -168 -59zM465 266h3c1 5 1 16 1 22c0 94 -57 162 -161 162
c-97 0 -183 -85 -200 -184h357zM544 700l-204 -144h-45l186 144h63z" />
    <glyph glyph-name="ecircumflex" unicode="&#xea;" horiz-adv-x="567" 
d="M276 -12c-145 0 -230 87 -230 213c0 161 118 294 268 294c129 0 205 -91 205 -209c0 -21 -5 -49 -8 -61h-408c-1 -6 -2 -19 -2 -28c0 -89 59 -164 177 -164c49 0 104 17 146 52l20 -38c-43 -33 -105 -59 -168 -59zM465 266h3c1 5 1 16 1 22c0 94 -57 162 -161 162
c-97 0 -183 -85 -200 -184h357zM482 556h-38l-62 113l-108 -113h-42l129 144h54z" />
    <glyph glyph-name="edieresis" unicode="&#xeb;" horiz-adv-x="567" 
d="M276 -12c-145 0 -230 87 -230 213c0 161 118 294 268 294c129 0 205 -91 205 -209c0 -21 -5 -49 -8 -61h-408c-1 -6 -2 -19 -2 -28c0 -89 59 -164 177 -164c49 0 104 17 146 52l20 -38c-43 -33 -105 -59 -168 -59zM465 266h3c1 5 1 16 1 22c0 94 -57 162 -161 162
c-97 0 -183 -85 -200 -184h357zM505 605c0 -22 -19 -41 -41 -41c-19 0 -34 14 -34 33c0 22 20 41 42 41c19 0 33 -14 33 -33zM301 605c0 -22 -19 -41 -42 -41c-18 0 -33 14 -33 33c0 22 20 41 42 41c19 0 33 -14 33 -33z" />
    <glyph glyph-name="egrave" unicode="&#xe8;" horiz-adv-x="567" 
d="M276 -12c-145 0 -230 87 -230 213c0 161 118 294 268 294c129 0 205 -91 205 -209c0 -21 -5 -49 -8 -61h-408c-1 -6 -2 -19 -2 -28c0 -89 59 -164 177 -164c49 0 104 17 146 52l20 -38c-43 -33 -105 -59 -168 -59zM465 266h3c1 5 1 16 1 22c0 94 -57 162 -161 162
c-97 0 -183 -85 -200 -184h357zM416 556h-44l-140 144h62z" />
    <glyph glyph-name="iacute" unicode="&#xed;" horiz-adv-x="214" 
d="M364 700l-204 -144h-45l186 144h63zM79 0h-52l107 483h52z" />
    <glyph glyph-name="icircumflex" unicode="&#xee;" horiz-adv-x="214" 
d="M301 556h-38l-62 113l-108 -113h-42l129 144h54zM79 0h-52l107 483h52z" />
    <glyph glyph-name="idieresis" unicode="&#xef;" horiz-adv-x="214" 
d="M325 605c0 -22 -19 -41 -41 -41c-19 0 -34 14 -34 33c0 22 20 41 42 41c19 0 33 -14 33 -33zM121 605c0 -22 -19 -41 -42 -41c-18 0 -33 14 -33 33c0 22 20 41 42 41c19 0 33 -14 33 -33zM79 0h-52l107 483h52z" />
    <glyph glyph-name="igrave" unicode="&#xec;" horiz-adv-x="214" 
d="M235 556h-44l-140 144h62zM79 0h-52l107 483h52z" />
    <glyph glyph-name="ntilde" unicode="&#xf1;" horiz-adv-x="540" 
d="M407 0h-52l72 328c2 9 6 23 6 35c0 60 -46 85 -108 85c-60 0 -122 -41 -163 -84l-81 -364h-52l107 483h52l-16 -73c43 42 106 85 174 85c82 0 141 -39 141 -118c0 -9 -3 -30 -6 -41zM409 554c-75 0 -58 102 -117 102c-30 0 -53 -28 -69 -96h-36c15 75 52 134 112 134
c75 0 59 -102 117 -102c30 0 53 29 70 96h36c-16 -75 -53 -134 -113 -134z" />
    <glyph glyph-name="oacute" unicode="&#xf3;" horiz-adv-x="571" 
d="M258 -12c-130 0 -213 84 -213 212c0 153 113 295 266 295c130 0 213 -84 213 -212c0 -153 -113 -295 -266 -295zM259 35c121 0 208 121 208 246c0 101 -58 167 -157 167c-121 0 -208 -121 -208 -246c0 -101 58 -167 157 -167zM543 700l-204 -144h-45l186 144h63z" />
    <glyph glyph-name="ocircumflex" unicode="&#xf4;" horiz-adv-x="571" 
d="M258 -12c-130 0 -213 84 -213 212c0 153 113 295 266 295c130 0 213 -84 213 -212c0 -153 -113 -295 -266 -295zM259 35c121 0 208 121 208 246c0 101 -58 167 -157 167c-121 0 -208 -121 -208 -246c0 -101 58 -167 157 -167zM481 556h-38l-62 113l-108 -113h-42l129 144
h54z" />
    <glyph glyph-name="odieresis" unicode="&#xf6;" horiz-adv-x="571" 
d="M258 -12c-130 0 -213 84 -213 212c0 153 113 295 266 295c130 0 213 -84 213 -212c0 -153 -113 -295 -266 -295zM259 35c121 0 208 121 208 246c0 101 -58 167 -157 167c-121 0 -208 -121 -208 -246c0 -101 58 -167 157 -167zM504 605c0 -22 -19 -41 -41 -41
c-19 0 -34 14 -34 33c0 22 20 41 42 41c19 0 33 -14 33 -33zM300 605c0 -22 -19 -41 -42 -41c-18 0 -33 14 -33 33c0 22 20 41 42 41c19 0 33 -14 33 -33z" />
    <glyph glyph-name="ograve" unicode="&#xf2;" horiz-adv-x="571" 
d="M258 -12c-130 0 -213 84 -213 212c0 153 113 295 266 295c130 0 213 -84 213 -212c0 -153 -113 -295 -266 -295zM259 35c121 0 208 121 208 246c0 101 -58 167 -157 167c-121 0 -208 -121 -208 -246c0 -101 58 -167 157 -167zM415 556h-44l-140 144h62z" />
    <glyph glyph-name="otilde" unicode="&#xf5;" horiz-adv-x="571" 
d="M258 -12c-130 0 -213 84 -213 212c0 153 113 295 266 295c130 0 213 -84 213 -212c0 -153 -113 -295 -266 -295zM259 35c121 0 208 121 208 246c0 101 -58 167 -157 167c-121 0 -208 -121 -208 -246c0 -101 58 -167 157 -167zM424 554c-75 0 -58 102 -117 102
c-30 0 -53 -28 -69 -96h-36c15 75 52 134 112 134c75 0 59 -102 117 -102c30 0 53 29 70 96h36c-16 -75 -53 -134 -113 -134z" />
    <glyph glyph-name="scaron" unicode="&#x161;" horiz-adv-x="459" 
d="M202 -12c-87 0 -154 29 -194 85l37 36c25 -40 84 -77 158 -77c80 0 128 48 128 100c0 103 -258 90 -258 220c0 78 64 143 176 143c83 0 149 -37 176 -79l-34 -34c-21 38 -82 69 -146 69c-73 0 -119 -38 -119 -87c0 -98 258 -83 258 -221c0 -80 -65 -155 -182 -155z
M323 556h-54l-68 144h38l61 -113l109 113h42z" />
    <glyph glyph-name="uacute" unicode="&#xfa;" horiz-adv-x="540" 
d="M133 483h53l-73 -327c-2 -9 -5 -24 -5 -36c0 -60 46 -85 107 -85s123 41 164 85l81 363h52l-107 -483h-52l16 73c-43 -42 -106 -85 -174 -85c-82 0 -141 39 -141 118c0 9 3 30 6 41zM528 700l-204 -144h-45l186 144h63z" />
    <glyph glyph-name="ucircumflex" unicode="&#xfb;" horiz-adv-x="540" 
d="M133 483h53l-73 -327c-2 -9 -5 -24 -5 -36c0 -60 46 -85 107 -85s123 41 164 85l81 363h52l-107 -483h-52l16 73c-43 -42 -106 -85 -174 -85c-82 0 -141 39 -141 118c0 9 3 30 6 41zM464 556h-38l-62 113l-108 -113h-42l129 144h54z" />
    <glyph glyph-name="udieresis" unicode="&#xfc;" horiz-adv-x="540" 
d="M133 483h53l-73 -327c-2 -9 -5 -24 -5 -36c0 -60 46 -85 107 -85s123 41 164 85l81 363h52l-107 -483h-52l16 73c-43 -42 -106 -85 -174 -85c-82 0 -141 39 -141 118c0 9 3 30 6 41zM492 605c0 -22 -19 -41 -41 -41c-19 0 -34 14 -34 33c0 22 20 41 42 41
c19 0 33 -14 33 -33zM288 605c0 -22 -19 -41 -42 -41c-18 0 -33 14 -33 33c0 22 20 41 42 41c19 0 33 -14 33 -33z" />
    <glyph glyph-name="ugrave" unicode="&#xf9;" horiz-adv-x="540" 
d="M133 483h53l-73 -327c-2 -9 -5 -24 -5 -36c0 -60 46 -85 107 -85s123 41 164 85l81 363h52l-107 -483h-52l16 73c-43 -42 -106 -85 -174 -85c-82 0 -141 39 -141 118c0 9 3 30 6 41zM401 556h-44l-140 144h62z" />
    <glyph glyph-name="yacute" unicode="&#xfd;" horiz-adv-x="481" 
d="M-46 -186l20 50c10 -5 28 -9 47 -9c26 0 47 12 76 55l58 87l-95 486h56l81 -422l269 422h61l-381 -589c-38 -60 -80 -90 -135 -90c-20 0 -41 4 -57 10zM498 700l-204 -144h-45l186 144h63z" />
    <glyph glyph-name="ydieresis" unicode="&#xff;" horiz-adv-x="481" 
d="M-46 -186l20 50c10 -5 28 -9 47 -9c26 0 47 12 76 55l58 87l-95 486h56l81 -422l269 422h61l-381 -589c-38 -60 -80 -90 -135 -90c-20 0 -41 4 -57 10zM459 605c0 -22 -19 -41 -41 -41c-19 0 -34 14 -34 33c0 22 20 41 42 41c19 0 33 -14 33 -33zM255 605
c0 -22 -19 -41 -42 -41c-18 0 -33 14 -33 33c0 22 20 41 42 41c19 0 33 -14 33 -33z" />
    <glyph glyph-name="zcaron" unicode="&#x17e;" horiz-adv-x="469" 
d="M359 0h-357l9 43l370 394h-282l10 46h353l-9 -42l-373 -395h288zM325 556h-54l-68 144h38l61 -113l109 113h42z" />
    <glyph glyph-name="dollarsuperior" unicode="&#xf6e4;" horiz-adv-x="365" 
d="M253 414h-13l-11 -53h-33l12 56c-57 9 -100 35 -121 70l34 28c21 -32 54 -54 95 -62l35 156c-55 20 -112 43 -112 106c0 57 56 112 145 112c5 0 10 0 14 -1l13 56h33l-14 -61c45 -10 82 -33 101 -61l-32 -25c-15 24 -44 43 -76 52l-32 -144c55 -20 110 -46 110 -110
c0 -57 -43 -119 -148 -119zM353 529c0 35 -32 53 -72 68l-33 -147h5c62 0 100 33 100 79zM187 719c0 -33 33 -49 74 -64l30 137h-7c-54 0 -97 -30 -97 -73z" />
    <glyph glyph-name="parenleftsuperior" unicode="&#x207d;" horiz-adv-x="148" 
d="M165 368l-28 -12c-26 49 -39 109 -39 171c0 138 58 256 156 359l22 -12c-81 -114 -134 -226 -134 -362c0 -47 8 -101 23 -144z" />
    <glyph glyph-name="parenrightsuperior" unicode="&#x207e;" horiz-adv-x="148" 
d="M164 874l28 12c25 -49 38 -109 38 -171c0 -138 -57 -256 -155 -359l-23 12c82 114 134 226 134 362c0 47 -8 102 -22 144z" />
    <glyph glyph-name="commasuperior" unicode="&#xf6e2;" horiz-adv-x="131" 
d="M137 447c0 -39 -36 -83 -67 -101l-17 20c21 12 44 34 48 52c0 0 -2 -1 -4 -1c-11 0 -23 10 -23 27c0 20 17 34 35 34c15 0 28 -12 28 -31z" />
    <glyph glyph-name="periodsuperior" unicode="&#xf6e8;" horiz-adv-x="136" 
d="M143 450c0 -18 -18 -34 -36 -34c-16 0 -28 12 -28 28c0 18 18 34 36 34c16 0 28 -12 28 -28z" />
    <glyph glyph-name="asuperior" unicode="&#xf6e9;" horiz-adv-x="375" 
d="M267 613c-74 0 -131 -73 -131 -157c0 -67 39 -103 94 -103c47 0 82 27 108 57l34 152c-17 31 -59 51 -105 51zM389 640h43l-70 -314h-43l11 50c-31 -38 -66 -58 -113 -58c-66 0 -126 44 -126 135c0 102 72 195 170 195c53 0 94 -22 117 -57z" />
    <glyph glyph-name="bsuperior" unicode="&#xf6ea;" horiz-adv-x="408" 
d="M248 353c73 0 130 73 130 157c0 67 -39 103 -94 103c-47 0 -82 -27 -108 -56l-33 -152c17 -32 58 -52 105 -52zM126 326h-43l96 434h43l-38 -170c32 38 67 58 113 58c67 0 126 -44 126 -135c0 -102 -71 -195 -170 -195c-53 0 -94 22 -117 57z" />
    <glyph glyph-name="centsuperior" unicode="&#xf6e0;" horiz-adv-x="305" 
d="M196 416l12 57c-60 14 -97 61 -97 126c0 92 71 172 163 174l10 42h33l-10 -45c38 -7 65 -26 81 -54l-33 -21c-13 24 -32 37 -55 42l-52 -235h1c32 0 56 12 80 39l25 -25c-23 -24 -60 -47 -106 -47h-8l-11 -53h-33zM154 600c0 -47 22 -82 62 -94l51 232
c-67 -6 -113 -71 -113 -138z" />
    <glyph glyph-name="dsuperior" unicode="&#xf6eb;" horiz-adv-x="409" 
d="M267 613c-74 0 -131 -73 -131 -157c0 -67 39 -103 94 -103c47 0 82 27 108 57l34 152c-17 31 -59 51 -105 51zM415 760h43l-96 -434h-43l11 50c-31 -38 -66 -58 -113 -58c-66 0 -126 44 -126 135c0 102 72 195 170 195c53 0 94 -22 117 -57z" />
    <glyph glyph-name="esuperior" unicode="&#xf6ec;" horiz-adv-x="401" 
d="M249 318c-94 0 -156 54 -156 143c0 100 83 187 182 187c82 0 138 -54 138 -136c0 -11 -1 -31 -4 -43h-271c-1 -6 -1 -9 -1 -12c0 -58 43 -106 114 -106c38 0 74 14 101 36l15 -28c-34 -26 -75 -41 -118 -41zM373 502h1c1 1 1 6 1 9c0 59 -39 104 -102 104
c-73 0 -119 -60 -131 -113h231z" />
    <glyph glyph-name="isuperior" unicode="&#xf6ed;" horiz-adv-x="152" 
d="M176 690c-14 0 -26 12 -26 26c0 19 17 35 35 35c15 0 26 -12 26 -27c0 -18 -16 -34 -35 -34zM115 326h-43l69 314h43z" />
    <glyph glyph-name="lsuperior" unicode="&#xf6ee;" horiz-adv-x="172" 
d="M126 326h-43l96 434h43z" />
    <glyph glyph-name="msuperior" unicode="&#xf6ef;" horiz-adv-x="561" 
d="M514 326h-42l47 214c2 8 3 15 3 22c0 31 -20 50 -58 50c-33 0 -71 -28 -94 -55l-50 -231h-42l47 214c2 8 3 15 3 22c0 31 -20 50 -59 50c-33 0 -69 -28 -93 -55l-50 -231h-43l69 314h43l-10 -47c17 22 58 55 105 55c45 0 77 -26 84 -59c24 30 64 59 111 59
c45 0 81 -25 81 -75c0 -6 0 -14 -3 -26z" />
    <glyph glyph-name="nsuperior" unicode="&#x207f;" horiz-adv-x="393" 
d="M346 326h-43l46 207c1 5 2 15 2 20c0 39 -26 59 -71 59c-41 0 -78 -29 -104 -55l-50 -231h-43l69 314h43l-10 -47c27 29 70 55 115 55c61 0 97 -28 97 -78c0 -6 -2 -22 -4 -32z" />
    <glyph glyph-name="osuperior" unicode="&#xf6f0;" horiz-adv-x="405" 
d="M238 318c-88 0 -145 57 -145 141c0 102 78 189 179 189c88 0 145 -57 145 -141c0 -102 -78 -189 -179 -189zM239 355c81 0 134 73 134 152c0 61 -41 103 -101 103c-81 0 -134 -72 -134 -151c0 -61 40 -104 101 -104z" />
    <glyph glyph-name="rsuperior" unicode="&#xf6f1;" horiz-adv-x="233" 
d="M126 326h-43l69 314h43l-12 -52c39 38 72 59 122 59l-10 -43c-4 2 -12 2 -18 2c-36 0 -80 -24 -102 -53z" />
    <glyph glyph-name="ssuperior" unicode="&#xf6f2;" horiz-adv-x="328" 
d="M197 318c-58 0 -100 18 -132 60l27 23c19 -29 59 -51 105 -51c50 0 82 27 82 58c0 75 -173 52 -173 149c0 44 44 91 121 91c57 0 99 -24 121 -54l-26 -24c-20 27 -55 46 -97 46c-48 0 -76 -25 -76 -57c0 -66 173 -38 173 -148c0 -42 -42 -93 -125 -93z" />
    <glyph glyph-name="tsuperior" unicode="&#xf6f3;" horiz-adv-x="193" 
d="M158 318c-33 0 -65 12 -65 54c0 4 1 14 2 19l47 216h-53l7 33h54l19 86h42l-19 -86h66l-8 -33h-65l-46 -211c-1 -5 -2 -12 -2 -16c0 -19 13 -27 31 -27c15 0 25 6 33 12l7 -31c-13 -10 -28 -16 -50 -16z" />
    <glyph glyph-name="parenleftinferior" unicode="&#x208d;" horiz-adv-x="148" 
d="M40 -199l-28 -12c-26 49 -39 109 -39 171c0 138 58 256 156 359l22 -12c-81 -114 -134 -226 -134 -362c0 -47 8 -101 23 -144z" />
    <glyph glyph-name="parenrightinferior" unicode="&#x208e;" horiz-adv-x="148" 
d="M39 307l28 12c25 -49 38 -109 38 -171c0 -138 -57 -256 -155 -359l-23 12c82 114 134 226 134 362c0 47 -8 102 -22 144z" />
    <glyph glyph-name="hyphensuperior" unicode="&#xf6e6;" horiz-adv-x="184" 
d="M245 603h-148l7 36h148z" />
    <glyph glyph-name="colonmonetary" unicode="&#x20a1;" horiz-adv-x="674" 
d="M370 -12c-19 0 -37 2 -54 4l-51 -92h-42l55 100c-27 6 -52 17 -75 30l-72 -130h-43l84 151c-64 51 -102 129 -102 226c0 243 183 401 370 401c27 0 53 -3 77 -8l55 98h43l-61 -109c26 -9 49 -21 71 -37l81 146h43l-95 -170c18 -18 35 -39 48 -63l-55 -25
c-7 12 -15 23 -23 34l-280 -503c9 -1 19 -1 29 -1c65 0 129 24 189 76l40 -34c-67 -65 -152 -94 -232 -94zM132 279c0 -74 25 -135 69 -177l289 519c-17 4 -36 5 -54 5c-152 0 -304 -134 -304 -347zM230 78c22 -14 47 -24 75 -31l292 525c-21 17 -45 30 -70 39z" />
    <glyph glyph-name="rupiah" unicode="&#xf6dd;" horiz-adv-x="1103" 
d="M489 0h-65l-126 276h-151l-61 -276h-57l147 667h229c90 0 181 -61 181 -168c0 -124 -90 -216 -228 -220zM343 328h2c117 0 179 78 179 168c0 70 -62 119 -125 119h-177l-63 -287h184zM807 -12c-80 0 -141 39 -174 94l-59 -266h-52l148 667h52l-16 -73c39 51 97 85 166 85
c110 0 188 -74 188 -198c0 -162 -101 -309 -253 -309zM802 35c122 0 201 125 201 252c0 99 -58 161 -146 161c-68 0 -130 -43 -164 -93l-51 -232c24 -48 82 -88 160 -88z" />
    <glyph glyph-name="hypheninferior" unicode="&#xf6e5;" horiz-adv-x="184" 
d="M120 35h-148l7 36h148z" />
    <glyph glyph-name="oneeighth" unicode="&#x215b;" horiz-adv-x="781" 
d="M661 667l-574 -667h-45l573 667h46zM704 106c0 -65 -63 -113 -148 -113c-81 0 -147 38 -147 105c0 57 54 104 129 112c-40 15 -78 42 -78 86c0 74 73 110 140 110c66 0 141 -31 141 -97c0 -53 -37 -98 -119 -108c41 -15 82 -47 82 -95zM696 300c0 48 -43 69 -96 69
c-51 0 -96 -28 -96 -75c0 -45 59 -68 81 -73c45 3 111 23 111 79zM659 108c0 36 -34 66 -82 81c-75 -5 -123 -40 -123 -88c0 -43 48 -72 100 -72c54 0 105 32 105 79zM159 267h-46l74 337l-77 -66l-22 30l119 99h40z" />
    <glyph glyph-name="threeeighths" unicode="&#x215c;" horiz-adv-x="898" 
d="M778 667l-574 -667h-45l573 667h46zM821 106c0 -65 -63 -113 -148 -113c-81 0 -147 38 -147 105c0 57 54 104 129 112c-40 15 -78 42 -78 86c0 74 73 110 140 110c66 0 141 -31 141 -97c0 -53 -37 -98 -119 -108c41 -15 82 -47 82 -95zM813 300c0 48 -43 69 -96 69
c-51 0 -96 -28 -96 -75c0 -45 59 -68 81 -73c45 3 111 23 111 79zM776 108c0 36 -34 66 -82 81c-75 -5 -123 -40 -123 -88c0 -43 48 -72 100 -72c54 0 105 32 105 79zM365 382c0 -59 -53 -122 -143 -122c-70 0 -125 26 -152 72l32 25c25 -39 68 -59 119 -59
c61 0 98 40 98 90c0 39 -43 67 -104 67c-10 0 -21 0 -28 -1l8 38c15 -1 41 -2 59 -2c59 0 100 29 100 77c0 43 -46 68 -98 68c-42 0 -75 -14 -109 -44l-20 29c31 28 80 53 131 53c74 0 141 -32 141 -100c0 -62 -49 -100 -111 -105c38 -7 77 -39 77 -86z" />
    <glyph glyph-name="fiveeighths" unicode="&#x215d;" horiz-adv-x="896" 
d="M777 667l-574 -667h-45l573 667h46zM819 106c0 -65 -63 -113 -148 -113c-81 0 -147 38 -147 105c0 57 54 104 129 112c-40 15 -78 42 -78 86c0 74 73 110 140 110c66 0 141 -31 141 -97c0 -53 -37 -98 -119 -108c41 -15 82 -47 82 -95zM811 300c0 48 -43 69 -96 69
c-51 0 -96 -28 -96 -75c0 -45 59 -68 81 -73c45 3 111 23 111 79zM774 108c0 36 -34 66 -82 81c-75 -5 -123 -40 -123 -88c0 -43 48 -72 100 -72c54 0 105 32 105 79zM370 409c0 -85 -66 -149 -155 -149c-70 0 -121 29 -144 73l33 25c22 -37 58 -60 111 -60
c64 0 109 45 109 105c0 53 -43 79 -93 79c-36 0 -65 -12 -94 -39l-31 14l47 210h248l-8 -38h-203l-32 -145c24 21 53 34 90 34c63 0 122 -40 122 -109z" />
    <glyph glyph-name="seveneighths" unicode="&#x215e;" horiz-adv-x="811" 
d="M692 667l-574 -667h-45l573 667h46zM734 106c0 -65 -63 -113 -148 -113c-81 0 -147 38 -147 105c0 57 54 104 129 112c-40 15 -78 42 -78 86c0 74 73 110 140 110c66 0 141 -31 141 -97c0 -53 -37 -98 -119 -108c41 -15 82 -47 82 -95zM726 300c0 48 -43 69 -96 69
c-51 0 -96 -28 -96 -75c0 -45 59 -68 81 -73c45 3 111 23 111 79zM689 108c0 36 -34 66 -82 81c-75 -5 -123 -40 -123 -88c0 -43 48 -72 100 -72c54 0 105 32 105 79zM401 636l-255 -369h-50l252 362h-228l8 38h280z" />
    <glyph glyph-name="onethird" unicode="&#x2153;" horiz-adv-x="781" 
d="M661 667l-574 -667h-45l573 667h46zM703 115c0 -59 -53 -122 -143 -122c-70 0 -125 26 -152 72l32 25c25 -39 68 -59 119 -59c61 0 98 40 98 90c0 39 -43 67 -104 67c-10 0 -21 0 -28 -1l8 38c15 -1 41 -2 59 -2c59 0 100 29 100 77c0 43 -46 68 -98 68
c-42 0 -75 -14 -109 -44l-20 29c31 28 80 53 131 53c74 0 141 -32 141 -100c0 -62 -49 -100 -111 -105c38 -7 77 -39 77 -86zM159 267h-46l74 337l-77 -66l-22 30l119 99h40z" />
    <glyph glyph-name="twothirds" unicode="&#x2154;" horiz-adv-x="898" 
d="M778 667l-574 -667h-45l573 667h46zM820 115c0 -59 -53 -122 -143 -122c-70 0 -125 26 -152 72l32 25c25 -39 68 -59 119 -59c61 0 98 40 98 90c0 39 -43 67 -104 67c-10 0 -21 0 -28 -1l8 38c15 -1 41 -2 59 -2c59 0 100 29 100 77c0 43 -46 68 -98 68
c-42 0 -75 -14 -109 -44l-20 29c31 28 80 53 131 53c74 0 141 -32 141 -100c0 -62 -49 -100 -111 -105c38 -7 77 -39 77 -86zM338 267h-281l9 39c167 101 290 177 290 260c0 48 -46 69 -91 69c-47 0 -86 -17 -113 -47l-22 30c33 35 81 55 135 55c63 0 137 -28 137 -105
c0 -97 -130 -179 -269 -263h213z" />
    <glyph glyph-name="zerosuperior" unicode="&#x2070;" 
d="M429 672c0 -87 -49 -258 -191 -258c-90 0 -136 64 -136 155c0 87 49 258 191 258c90 0 136 -63 136 -155zM383 673c0 73 -28 116 -91 116c-109 0 -144 -144 -144 -221c0 -73 28 -116 91 -116c109 0 144 144 144 221z" />
    <glyph glyph-name="foursuperior" unicode="&#x2074;" 
d="M397 528h-60l-24 -107h-44l23 107h-196l8 35l236 258h61l-57 -256h60zM300 565l47 211l-196 -211h149z" />
    <glyph glyph-name="fivesuperior" unicode="&#x2075;" 
d="M395 563c0 -85 -66 -149 -155 -149c-70 0 -121 29 -144 73l33 25c22 -37 58 -60 111 -60c64 0 109 45 109 105c0 53 -43 79 -93 79c-36 0 -65 -12 -94 -39l-31 14l47 210h248l-8 -38h-203l-32 -145c24 21 53 34 90 34c63 0 122 -40 122 -109z" />
    <glyph glyph-name="sixsuperior" unicode="&#x2076;" 
d="M401 563c0 -75 -53 -149 -152 -149c-96 0 -142 60 -142 143c0 142 82 270 197 270c53 0 102 -19 124 -50l-29 -31c-16 26 -50 43 -96 43c-100 0 -148 -136 -148 -178v-4c23 27 66 65 121 65c67 0 125 -36 125 -109zM355 557c0 51 -39 78 -95 78c-42 0 -77 -26 -108 -64
c-2 -5 -2 -14 -2 -22c0 -60 40 -97 98 -97c69 0 107 53 107 105z" />
    <glyph glyph-name="sevensuperior" unicode="&#x2077;" horiz-adv-x="359" 
d="M426 790l-255 -369h-50l252 362h-228l8 38h280z" />
    <glyph glyph-name="eightsuperior" unicode="&#x2078;" 
d="M391 527c0 -65 -63 -113 -148 -113c-81 0 -147 38 -147 105c0 57 54 104 129 112c-40 15 -78 42 -78 86c0 74 73 110 140 110c66 0 141 -31 141 -97c0 -53 -37 -98 -119 -108c41 -15 82 -47 82 -95zM383 721c0 48 -43 69 -96 69c-51 0 -96 -28 -96 -75
c0 -45 59 -68 81 -73c45 3 111 23 111 79zM346 529c0 36 -34 66 -82 81c-75 -5 -123 -40 -123 -88c0 -43 48 -72 100 -72c54 0 105 32 105 79z" />
    <glyph glyph-name="ninesuperior" unicode="&#x2079;" 
d="M131 679c0 75 54 149 153 149c96 0 141 -60 141 -143c0 -142 -82 -270 -196 -270c-54 0 -102 19 -125 50l30 31c16 -26 50 -43 95 -43c100 0 148 136 148 178v4c-23 -27 -66 -65 -121 -65c-67 0 -125 36 -125 109zM177 685c0 -51 40 -78 96 -78c41 0 76 26 107 64
c2 5 2 14 2 22c0 60 -39 97 -98 97c-68 0 -107 -53 -107 -105z" />
    <glyph glyph-name="zeroinferior" unicode="&#x2080;" 
d="M313 105c0 -87 -49 -258 -191 -258c-90 0 -136 64 -136 155c0 87 49 258 191 258c90 0 136 -63 136 -155zM267 106c0 73 -28 116 -91 116c-109 0 -144 -144 -144 -221c0 -73 28 -116 91 -116c109 0 144 144 144 221z" />
    <glyph glyph-name="oneinferior" unicode="&#x2081;" horiz-adv-x="214" 
d="M68 -146h-46l74 337l-77 -66l-22 30l119 99h40z" />
    <glyph glyph-name="twoinferior" unicode="&#x2082;" 
d="M247 -146h-281l9 39c167 101 290 177 290 260c0 48 -46 69 -91 69c-47 0 -86 -17 -113 -47l-22 30c33 35 81 55 135 55c63 0 137 -28 137 -105c0 -97 -130 -179 -269 -263h213z" />
    <glyph glyph-name="threeinferior" unicode="&#x2083;" 
d="M274 -31c0 -59 -53 -122 -143 -122c-70 0 -125 26 -152 72l32 25c25 -39 68 -59 119 -59c61 0 98 40 98 90c0 39 -43 67 -104 67c-10 0 -21 0 -28 -1l8 38c15 -1 41 -2 59 -2c59 0 100 29 100 77c0 43 -46 68 -98 68c-42 0 -75 -14 -109 -44l-20 29c31 28 80 53 131 53
c74 0 141 -32 141 -100c0 -62 -49 -100 -111 -105c38 -7 77 -39 77 -86z" />
    <glyph glyph-name="fourinferior" unicode="&#x2084;" 
d="M281 -39h-60l-24 -107h-44l23 107h-196l8 35l236 258h61l-57 -256h60zM184 -2l47 211l-196 -211h149z" />
    <glyph glyph-name="fiveinferior" unicode="&#x2085;" 
d="M279 -4c0 -85 -66 -149 -155 -149c-70 0 -121 29 -144 73l33 25c22 -37 58 -60 111 -60c64 0 109 45 109 105c0 53 -43 79 -93 79c-36 0 -65 -12 -94 -39l-31 14l47 210h248l-8 -38h-203l-32 -145c24 21 53 34 90 34c63 0 122 -40 122 -109z" />
    <glyph glyph-name="sixinferior" unicode="&#x2086;" 
d="M285 -4c0 -75 -53 -149 -152 -149c-96 0 -142 60 -142 143c0 142 82 270 197 270c53 0 102 -19 124 -50l-29 -31c-16 26 -50 43 -96 43c-100 0 -148 -136 -148 -178v-4c23 27 66 65 121 65c67 0 125 -36 125 -109zM239 -10c0 51 -39 78 -95 78c-42 0 -77 -26 -108 -64
c-2 -5 -2 -14 -2 -22c0 -60 40 -97 98 -97c69 0 107 53 107 105z" />
    <glyph glyph-name="seveninferior" unicode="&#x2087;" horiz-adv-x="359" 
d="M310 223l-255 -369h-50l252 362h-228l8 38h280z" />
    <glyph glyph-name="eightinferior" unicode="&#x2088;" 
d="M275 -40c0 -65 -63 -113 -148 -113c-81 0 -147 38 -147 105c0 57 54 104 129 112c-40 15 -78 42 -78 86c0 74 73 110 140 110c66 0 141 -31 141 -97c0 -53 -37 -98 -119 -108c41 -15 82 -47 82 -95zM267 154c0 48 -43 69 -96 69c-51 0 -96 -28 -96 -75
c0 -45 59 -68 81 -73c45 3 111 23 111 79zM230 -38c0 36 -34 66 -82 81c-75 -5 -123 -40 -123 -88c0 -43 48 -72 100 -72c54 0 105 32 105 79z" />
    <glyph glyph-name="nineinferior" unicode="&#x2089;" 
d="M15 112c0 75 54 149 153 149c96 0 141 -60 141 -143c0 -142 -82 -270 -196 -270c-54 0 -102 19 -125 50l30 31c16 -26 50 -43 95 -43c100 0 148 136 148 178v4c-23 -27 -66 -65 -121 -65c-67 0 -125 36 -125 109zM61 118c0 -51 40 -78 96 -78c41 0 76 26 107 64
c2 5 2 14 2 22c0 60 -39 97 -98 97c-68 0 -107 -53 -107 -105z" />
    <glyph glyph-name="centinferior" unicode="&#xf6df;" horiz-adv-x="305" 
d="M71 -151l12 57c-60 14 -97 61 -97 126c0 92 71 172 163 174l10 42h33l-10 -45c38 -7 65 -26 81 -54l-33 -21c-13 24 -32 37 -55 42l-52 -235h1c32 0 56 12 80 39l25 -25c-23 -24 -60 -47 -106 -47h-8l-11 -53h-33zM29 33c0 -46 22 -81 62 -93l51 231
c-67 -6 -113 -71 -113 -138z" />
    <glyph glyph-name="dollarinferior" unicode="&#xf6e3;" horiz-adv-x="365" 
d="M128 -153h-13l-11 -53h-33l12 57c-57 9 -99 35 -121 69l34 28c21 -31 54 -53 95 -61l35 155c-55 20 -112 43 -112 106c0 57 56 112 145 112c5 0 10 0 14 -1l13 56h33l-14 -61c45 -10 82 -33 101 -61l-32 -25c-15 24 -44 43 -76 52l-32 -144c55 -20 110 -46 110 -110
c0 -57 -43 -119 -148 -119zM228 -38c0 36 -32 53 -72 68l-33 -147h5c62 0 100 33 100 79zM62 152c0 -33 33 -49 74 -64l30 137h-7c-54 0 -97 -30 -97 -73z" />
    <glyph glyph-name="periodinferior" unicode="&#xf6e7;" horiz-adv-x="136" 
d="M18 -117c0 -18 -18 -34 -36 -34c-16 0 -28 12 -28 28c0 18 18 34 36 34c16 0 28 -12 28 -28z" />
    <glyph glyph-name="commainferior" unicode="&#xf6e1;" horiz-adv-x="131" 
d="M12 -120c0 -39 -36 -83 -67 -101l-17 20c21 12 44 34 48 52c0 0 -2 -1 -4 -1c-11 0 -23 10 -23 27c0 20 17 34 35 34c15 0 28 -12 28 -31z" />
    <glyph glyph-name="notequal" unicode="&#x2260;" horiz-adv-x="496" 
d="M85 93h-48l105 123h-120l10 41h145l133 154h-244l9 42h271l104 121h49l-104 -121h118l-9 -42h-145l-133 -154h244l-9 -41h-270z" />
    <glyph glyph-name="infinity" unicode="&#x221e;" horiz-adv-x="642" 
d="M177 175c-82 0 -131 52 -131 131c0 98 67 189 168 189c69 0 119 -48 136 -115c37 62 85 115 153 115c82 0 131 -52 131 -131c0 -98 -67 -189 -169 -189c-68 0 -118 48 -135 114c-37 -61 -85 -114 -153 -114zM468 217c75 0 123 67 123 145c0 53 -36 91 -92 91
c-63 0 -104 -58 -139 -120c11 -74 49 -116 108 -116zM181 217c63 0 106 58 140 121c-11 74 -50 115 -109 115c-75 0 -123 -66 -123 -144c0 -53 36 -92 92 -92z" />
    <glyph glyph-name="lessequal" unicode="&#x2264;" horiz-adv-x="496" 
d="M433 95l-388 225l9 38l488 227l-12 -52l-429 -197l342 -195zM413 0h-438l9 41h438z" />
    <glyph glyph-name="greaterequal" unicode="&#x2265;" horiz-adv-x="496" 
d="M484 320l-489 -225l12 51l430 195l-343 197l10 47l388 -227zM413 0h-439l9 41h438z" />
    <glyph glyph-name="partialdiff" unicode="&#x2202;" horiz-adv-x="571" 
d="M261 -12c-128 0 -216 88 -216 205c0 163 115 294 254 294c61 0 133 -28 168 -105c-40 107 -118 197 -220 272l39 40c140 -102 238 -245 238 -393c0 -173 -110 -313 -263 -313zM262 35c111 0 203 111 203 245c0 75 -47 160 -161 160c-109 0 -202 -104 -202 -240
c0 -95 58 -165 160 -165z" />
    <glyph glyph-name="summation" unicode="&#x2211;" horiz-adv-x="571" 
d="M382 293l-175 322h388l11 52h-454l-11 -52l172 -317l-318 -336l-11 -52h455l11 52h-382z" />
    <glyph glyph-name="product" unicode="&#x220f;" horiz-adv-x="673" 
d="M453 -90h-58l156 705h-265l-156 -705h-58l156 705h-111l11 52h603l-11 -52h-111z" />
    <glyph glyph-name="pi" unicode="&#x3c0;" horiz-adv-x="535" 
d="M367 0h-55l100 452h-198l-99 -452h-55l100 452h-79l10 48h465l-10 -48h-80z" />
    <glyph glyph-name="integral" unicode="&#x222b;" horiz-adv-x="337" 
d="M2 -100h-61l9 43h62c44 0 74 31 85 81l138 620c18 83 68 124 139 124h62l-10 -43h-62c-44 0 -74 -31 -85 -81l-138 -620c-19 -83 -68 -124 -139 -124z" />
    <glyph glyph-name="Omega" unicode="&#x3a9;" horiz-adv-x="764" 
d="M23 0l11 52h157c-71 54 -120 132 -120 237c0 201 148 389 366 389c177 0 298 -110 298 -290c0 -158 -94 -272 -221 -336h131l-11 -52h-227l11 52c139 28 254 162 254 334c0 147 -96 239 -236 239c-179 0 -307 -158 -307 -346c0 -116 62 -189 132 -227l-11 -52h-227z" />
    <glyph glyph-name="Omega" unicode="&#x2126;" horiz-adv-x="764" 
d="M23 0l11 52h157c-71 54 -120 132 -120 237c0 201 148 389 366 389c177 0 298 -110 298 -290c0 -158 -94 -272 -221 -336h131l-11 -52h-227l11 52c139 28 254 162 254 334c0 147 -96 239 -236 239c-179 0 -307 -158 -307 -346c0 -116 62 -189 132 -227l-11 -52h-227z" />
    <glyph glyph-name="radical" unicode="&#x221a;" horiz-adv-x="744" 
d="M382 0h-46l-64 338l-179 -67l-6 39l219 81l64 -335l385 611h47z" />
    <glyph glyph-name="approxequal" unicode="&#x2248;" horiz-adv-x="496" 
d="M22 216l11 47c27 -24 65 -35 102 -35c97 0 122 62 231 62c37 0 77 -10 105 -29l-11 -47c-27 23 -66 34 -103 34c-97 0 -122 -61 -231 -61c-36 0 -76 10 -104 29zM65 407l10 47c28 -23 66 -34 102 -34c97 0 122 61 232 61c37 0 76 -10 104 -28l-10 -48
c-28 24 -67 35 -103 35c-97 0 -122 -61 -232 -61c-36 0 -76 9 -103 28z" />
    <glyph glyph-name="Delta" unicode="&#x394;" horiz-adv-x="647" 
d="M578 0h-617l420 667h71zM508 52l-102 554l-347 -554h449z" />
    <glyph glyph-name="Delta" unicode="&#x2206;" horiz-adv-x="647" 
d="M578 0h-617l420 667h71zM508 52l-102 554l-347 -554h449z" />
    <glyph glyph-name="nbspace" unicode="&#xa0;" horiz-adv-x="259" 
 />
    <glyph glyph-name="lozenge" unicode="&#x25ca;" horiz-adv-x="375" 
d="M144 0h-21l-84 334l231 333h21l85 -333zM142 45l197 293l-67 284l-196 -292z" />
    <glyph glyph-name="Euro" unicode="&#x20ac;" horiz-adv-x="690" 
d="M389 -12c-163 0 -283 100 -298 254h-57l9 41h46c0 36 5 70 13 102h-36l9 41h39c57 156 199 252 345 252c117 0 211 -51 262 -143l-55 -25c-46 83 -125 116 -211 116c-113 0 -226 -75 -277 -200h339l-10 -41h-343c-8 -32 -13 -66 -13 -102h334l-9 -41h-323
c15 -123 104 -202 239 -202c65 0 129 24 189 76l40 -34c-67 -65 -152 -94 -232 -94z" />
    <glyph glyph-name="uni2318" unicode="&#x2318;" horiz-adv-x="667" 
d="M210 153l17 79h-86c-48 0 -87 -41 -87 -89c0 -38 28 -68 66 -68c48 0 80 30 90 78zM271 435l16 69c2 8 2 14 2 21c0 41 -28 67 -69 67c-47 0 -87 -38 -87 -86c0 -43 30 -71 73 -71h65zM269 265h137l31 137h-137zM573 161c0 43 -30 71 -73 71h-66l-15 -69
c-2 -8 -2 -15 -2 -21c0 -41 28 -67 69 -67c47 0 87 38 87 86zM652 524c0 38 -28 68 -66 68c-48 0 -79 -30 -90 -78l-17 -79h86c48 0 87 42 87 89zM607 160c0 -65 -63 -118 -128 -118c-56 0 -98 42 -98 98c0 10 1 19 3 29l15 63h-137l-20 -87c-14 -61 -64 -103 -125 -103
c-55 0 -99 42 -99 97c0 65 59 126 125 126h91l31 137h-66c-61 0 -100 43 -100 105c0 65 62 118 127 118c56 0 98 -42 98 -98c0 -10 -1 -19 -3 -29l-14 -63h137l19 87c14 61 64 103 125 103c55 0 100 -42 100 -97c0 -66 -59 -126 -125 -126h-91l-31 -137h63
c62 0 103 -43 103 -105z" />
    <glyph glyph-name="uni2318" unicode="&#xf8ff;" horiz-adv-x="667" 
d="M210 153l17 79h-86c-48 0 -87 -41 -87 -89c0 -38 28 -68 66 -68c48 0 80 30 90 78zM271 435l16 69c2 8 2 14 2 21c0 41 -28 67 -69 67c-47 0 -87 -38 -87 -86c0 -43 30 -71 73 -71h65zM269 265h137l31 137h-137zM573 161c0 43 -30 71 -73 71h-66l-15 -69
c-2 -8 -2 -15 -2 -21c0 -41 28 -67 69 -67c47 0 87 38 87 86zM652 524c0 38 -28 68 -66 68c-48 0 -79 -30 -90 -78l-17 -79h86c48 0 87 42 87 89zM607 160c0 -65 -63 -118 -128 -118c-56 0 -98 42 -98 98c0 10 1 19 3 29l15 63h-137l-20 -87c-14 -61 -64 -103 -125 -103
c-55 0 -99 42 -99 97c0 65 59 126 125 126h91l31 137h-66c-61 0 -100 43 -100 105c0 65 62 118 127 118c56 0 98 -42 98 -98c0 -10 -1 -19 -3 -29l-14 -63h137l19 87c14 61 64 103 125 103c55 0 100 -42 100 -97c0 -66 -59 -126 -125 -126h-91l-31 -137h63
c62 0 103 -43 103 -105z" />
    <glyph glyph-name="f.alt1" horiz-adv-x="265" 
d="M97 0h-53l97 437h-80l10 46h80l9 44c21 95 69 150 150 150c29 0 52 -5 76 -21l-23 -42c-15 12 -34 16 -52 16c-56 0 -84 -38 -98 -103l-10 -44h99l-11 -46h-98z" />
    <glyph glyph-name="l.alt1" horiz-adv-x="256" 
d="M140 -12c-57 0 -96 26 -96 74c0 12 1 21 3 32l127 573h52l-125 -565c-2 -10 -3 -16 -3 -25c0 -28 21 -42 50 -42c20 0 40 9 51 18l10 -42c-15 -12 -39 -23 -69 -23z" />
    <glyph glyph-name="a.alt1" horiz-adv-x="521" 
d="M390 0h-53l12 54c-45 -43 -89 -66 -153 -66c-84 0 -163 44 -163 140c0 114 84 181 181 181c80 0 134 -27 174 -76l21 92c1 4 3 21 3 31c0 55 -52 94 -134 94c-58 0 -109 -26 -146 -62l-22 38c55 47 112 69 175 69c99 0 181 -41 181 -131c0 -12 -3 -32 -5 -42zM214 29
c58 0 104 23 144 64l23 105c-27 47 -87 70 -153 70c-82 0 -139 -58 -139 -135c0 -69 53 -104 125 -104z" />
    <glyph glyph-name="y.alt1" horiz-adv-x="540" 
d="M181 -196c-100 0 -162 24 -208 82l38 39c31 -51 94 -74 170 -74c98 0 151 60 172 153l16 72c-49 -44 -105 -83 -173 -83c-74 0 -140 32 -140 116c0 9 0 21 5 43l73 331h52l-72 -323c-2 -14 -4 -29 -4 -37c0 -65 52 -83 106 -83c62 0 124 41 164 84l80 359h52l-106 -479
c-32 -143 -116 -200 -225 -200z" />
    <glyph glyph-name="G.alt1" horiz-adv-x="711" 
d="M355 -12c-169 0 -288 115 -288 289c0 242 181 401 381 401c110 0 201 -53 249 -137l-51 -26c-41 75 -123 111 -207 111c-151 0 -310 -133 -310 -347c0 -147 95 -239 235 -239c155 0 247 109 286 240h-303l11 52h363c-43 -212 -166 -344 -366 -344z" />
    <glyph glyph-name="G.smcp.alt1" horiz-adv-x="647" 
d="M325 -12c-161 0 -271 103 -271 245c0 189 153 329 322 329c92 0 170 -36 226 -112l-47 -29c-37 58 -107 92 -178 92c-135 0 -266 -112 -266 -274c0 -122 96 -203 214 -203c105 0 202 77 227 193h-234l10 47h287c-15 -157 -136 -288 -290 -288z" />
    <glyph glyph-name="Gbreve.alt1" horiz-adv-x="746" 
d="M699 813c-52 -54 -122 -88 -194 -88c-71 0 -128 34 -157 88l33 25c23 -46 69 -75 130 -75c62 0 120 29 163 75zM355 -12c-169 0 -288 115 -288 289c0 242 181 401 381 401c110 0 201 -53 249 -137l-51 -26c-41 75 -123 111 -207 111c-151 0 -310 -133 -310 -347
c0 -147 95 -239 235 -239c155 0 247 109 286 240h-303l11 52h363c-43 -212 -166 -344 -366 -344z" />
    <glyph glyph-name="Gbreve.smcp.alt1" horiz-adv-x="646" 
d="M620 694c-52 -54 -122 -88 -194 -88c-71 0 -128 34 -157 88l33 25c23 -46 69 -75 130 -75c62 0 120 29 163 75zM325 -12c-161 0 -271 103 -271 245c0 189 153 329 322 329c92 0 170 -36 226 -112l-47 -29c-37 58 -107 92 -178 92c-135 0 -266 -112 -266 -274
c0 -122 96 -203 214 -203c105 0 202 77 227 193h-234l10 47h287c-15 -157 -136 -288 -290 -288z" />
    <glyph glyph-name="Gcommaaccent.alt1" horiz-adv-x="746" 
d="M359 -122c0 -53 -47 -111 -96 -137l-22 24c36 19 66 51 74 81h-7c-16 0 -31 15 -31 33c0 24 21 43 43 43s39 -15 39 -44zM355 -12c-169 0 -288 115 -288 289c0 242 181 401 381 401c110 0 201 -53 249 -137l-51 -26c-41 75 -123 111 -207 111c-151 0 -310 -133 -310 -347
c0 -147 95 -239 235 -239c155 0 247 109 286 240h-303l11 52h363c-43 -212 -166 -344 -366 -344z" />
    <glyph glyph-name="Gcommaaccent.smcp.alt1" horiz-adv-x="647" 
d="M309 -122c0 -53 -47 -111 -96 -137l-22 24c36 19 66 51 74 81h-7c-16 0 -31 15 -31 33c0 24 21 43 43 43s39 -15 39 -44zM325 -12c-161 0 -271 103 -271 245c0 189 153 329 322 329c92 0 170 -36 226 -112l-47 -29c-37 58 -107 92 -178 92c-135 0 -266 -112 -266 -274
c0 -122 96 -203 214 -203c105 0 202 77 227 193h-234l10 47h287c-15 -157 -136 -288 -290 -288z" />
    <glyph glyph-name="lslash.alt1" horiz-adv-x="287" 
d="M9 238l11 46l114 58l72 325h52l-66 -295l115 58l-10 -46l-115 -58l-49 -224c-2 -10 -3 -16 -3 -25c0 -28 21 -42 50 -42c20 0 40 9 51 18l10 -42c-15 -12 -39 -23 -69 -23c-57 0 -96 26 -96 74c0 12 1 21 3 32l45 202z" />
    <glyph glyph-name="lacute.alt1" horiz-adv-x="256" 
d="M402 872l-204 -144h-45l186 144h63zM140 -12c-57 0 -96 26 -96 74c0 12 1 21 3 32l127 573h52l-125 -565c-2 -10 -3 -16 -3 -25c0 -28 21 -42 50 -42c20 0 40 9 51 18l10 -42c-15 -12 -39 -23 -69 -23z" />
    <glyph glyph-name="lcommaaccent.alt1" horiz-adv-x="256" 
d="M91 -122c0 -53 -47 -111 -96 -137l-22 24c36 19 66 51 74 81h-7c-16 0 -31 15 -31 33c0 24 21 43 43 43s39 -15 39 -44zM140 -12c-57 0 -96 26 -96 74c0 12 1 21 3 32l127 573h52l-125 -565c-2 -10 -3 -16 -3 -25c0 -28 21 -42 50 -42c20 0 40 9 51 18l10 -42
c-15 -12 -39 -23 -69 -23z" />
    <glyph glyph-name="lcaron.alt1" horiz-adv-x="269" 
d="M369 635c0 -53 -47 -111 -96 -137l-22 24c36 19 66 51 74 81h-7c-16 0 -31 15 -31 33c0 24 21 43 43 43s39 -15 39 -44zM140 -12c-57 0 -96 26 -96 74c0 12 1 21 3 32l127 573h52l-125 -565c-2 -10 -3 -16 -3 -25c0 -28 21 -42 50 -42c20 0 40 9 51 18l10 -42
c-15 -12 -39 -23 -69 -23z" />
    <glyph glyph-name="aacute.alt1" horiz-adv-x="521" 
d="M526 700l-204 -144h-45l186 144h63zM390 0h-53l12 54c-45 -43 -89 -66 -153 -66c-84 0 -163 44 -163 140c0 114 84 181 181 181c80 0 134 -27 174 -76l21 92c1 4 3 21 3 31c0 55 -52 94 -134 94c-58 0 -109 -26 -146 -62l-22 38c55 47 112 69 175 69
c99 0 181 -41 181 -131c0 -12 -3 -32 -5 -42zM214 29c58 0 104 23 144 64l23 105c-27 47 -87 70 -153 70c-82 0 -139 -58 -139 -135c0 -69 53 -104 125 -104z" />
    <glyph glyph-name="agrave.alt1" horiz-adv-x="521" 
d="M399 556h-44l-140 144h62zM390 0h-53l12 54c-45 -43 -89 -66 -153 -66c-84 0 -163 44 -163 140c0 114 84 181 181 181c80 0 134 -27 174 -76l21 92c1 4 3 21 3 31c0 55 -52 94 -134 94c-58 0 -109 -26 -146 -62l-22 38c55 47 112 69 175 69c99 0 181 -41 181 -131
c0 -12 -3 -32 -5 -42zM214 29c58 0 104 23 144 64l23 105c-27 47 -87 70 -153 70c-82 0 -139 -58 -139 -135c0 -69 53 -104 125 -104z" />
    <glyph glyph-name="acircumflex.alt1" horiz-adv-x="521" 
d="M466 556h-38l-62 113l-108 -113h-42l129 144h54zM390 0h-53l12 54c-45 -43 -89 -66 -153 -66c-84 0 -163 44 -163 140c0 114 84 181 181 181c80 0 134 -27 174 -76l21 92c1 4 3 21 3 31c0 55 -52 94 -134 94c-58 0 -109 -26 -146 -62l-22 38c55 47 112 69 175 69
c99 0 181 -41 181 -131c0 -12 -3 -32 -5 -42zM214 29c58 0 104 23 144 64l23 105c-27 47 -87 70 -153 70c-82 0 -139 -58 -139 -135c0 -69 53 -104 125 -104z" />
    <glyph glyph-name="adieresis.alt1" horiz-adv-x="521" 
d="M486 605c0 -22 -19 -41 -41 -41c-19 0 -34 14 -34 33c0 22 20 41 42 41c19 0 33 -14 33 -33zM282 605c0 -22 -19 -41 -42 -41c-18 0 -33 14 -33 33c0 22 20 41 42 41c19 0 33 -14 33 -33zM390 0h-53l12 54c-45 -43 -89 -66 -153 -66c-84 0 -163 44 -163 140
c0 114 84 181 181 181c80 0 134 -27 174 -76l21 92c1 4 3 21 3 31c0 55 -52 94 -134 94c-58 0 -109 -26 -146 -62l-22 38c55 47 112 69 175 69c99 0 181 -41 181 -131c0 -12 -3 -32 -5 -42zM214 29c58 0 104 23 144 64l23 105c-27 47 -87 70 -153 70
c-82 0 -139 -58 -139 -135c0 -69 53 -104 125 -104z" />
    <glyph glyph-name="atilde.alt1" horiz-adv-x="521" 
d="M408 554c-75 0 -58 102 -117 102c-30 0 -53 -28 -69 -96h-36c15 75 52 134 112 134c75 0 59 -102 117 -102c30 0 53 29 70 96h36c-16 -75 -53 -134 -113 -134zM390 0h-53l12 54c-45 -43 -89 -66 -153 -66c-84 0 -163 44 -163 140c0 114 84 181 181 181
c80 0 134 -27 174 -76l21 92c1 4 3 21 3 31c0 55 -52 94 -134 94c-58 0 -109 -26 -146 -62l-22 38c55 47 112 69 175 69c99 0 181 -41 181 -131c0 -12 -3 -32 -5 -42zM214 29c58 0 104 23 144 64l23 105c-27 47 -87 70 -153 70c-82 0 -139 -58 -139 -135
c0 -69 53 -104 125 -104z" />
    <glyph glyph-name="aring.alt1" horiz-adv-x="521" 
d="M350 557c-51 0 -87 36 -87 87c0 56 48 105 105 105c51 0 87 -36 87 -87c0 -57 -49 -105 -105 -105zM351 589c38 0 72 32 72 70c0 34 -23 58 -56 58c-39 0 -72 -32 -72 -70c0 -34 22 -58 56 -58zM390 0h-53l12 54c-45 -43 -89 -66 -153 -66c-84 0 -163 44 -163 140
c0 114 84 181 181 181c80 0 134 -27 174 -76l21 92c1 4 3 21 3 31c0 55 -52 94 -134 94c-58 0 -109 -26 -146 -62l-22 38c55 47 112 69 175 69c99 0 181 -41 181 -131c0 -12 -3 -32 -5 -42zM214 29c58 0 104 23 144 64l23 105c-27 47 -87 70 -153 70
c-82 0 -139 -58 -139 -135c0 -69 53 -104 125 -104z" />
    <glyph glyph-name="amacron.alt1" horiz-adv-x="521" 
d="M523 591h-362l8 38h362zM390 0h-53l12 54c-45 -43 -89 -66 -153 -66c-84 0 -163 44 -163 140c0 114 84 181 181 181c80 0 134 -27 174 -76l21 92c1 4 3 21 3 31c0 55 -52 94 -134 94c-58 0 -109 -26 -146 -62l-22 38c55 47 112 69 175 69c99 0 181 -41 181 -131
c0 -12 -3 -32 -5 -42zM214 29c58 0 104 23 144 64l23 105c-27 47 -87 70 -153 70c-82 0 -139 -58 -139 -135c0 -69 53 -104 125 -104z" />
    <glyph glyph-name="abreve.alt1" horiz-adv-x="521" 
d="M531 654c-52 -54 -122 -88 -194 -88c-71 0 -128 34 -157 88l33 25c23 -46 69 -75 130 -75c62 0 120 29 163 75zM390 0h-53l12 54c-45 -43 -89 -66 -153 -66c-84 0 -163 44 -163 140c0 114 84 181 181 181c80 0 134 -27 174 -76l21 92c1 4 3 21 3 31c0 55 -52 94 -134 94
c-58 0 -109 -26 -146 -62l-22 38c55 47 112 69 175 69c99 0 181 -41 181 -131c0 -12 -3 -32 -5 -42zM214 29c58 0 104 23 144 64l23 105c-27 47 -87 70 -153 70c-82 0 -139 -58 -139 -135c0 -69 53 -104 125 -104z" />
    <glyph glyph-name="aogonek.alt1" horiz-adv-x="521" 
d="M390 0c-62 -27 -104 -62 -104 -110c0 -29 18 -43 46 -43c25 0 44 16 59 43l26 -18c-19 -31 -45 -58 -90 -58c-44 0 -77 24 -77 70c0 53 35 94 88 123l11 47c-45 -43 -89 -66 -153 -66c-84 0 -163 44 -163 140c0 114 84 181 181 181c80 0 134 -27 174 -76l21 92
c1 4 3 21 3 31c0 55 -52 94 -134 94c-58 0 -109 -26 -146 -62l-22 38c55 47 112 69 175 69c99 0 181 -41 181 -131c0 -12 -3 -32 -5 -42zM214 29c58 0 104 23 144 64l23 105c-27 47 -87 70 -153 70c-82 0 -139 -58 -139 -135c0 -69 53 -104 125 -104z" />
    <glyph glyph-name="yacute.alt1" horiz-adv-x="540" 
d="M525 700l-204 -144h-45l186 144h63zM181 -196c-100 0 -162 24 -208 82l38 39c31 -51 94 -74 170 -74c98 0 151 60 172 153l16 72c-49 -44 -105 -83 -173 -83c-74 0 -140 32 -140 116c0 9 0 21 5 43l73 331h52l-72 -323c-2 -14 -4 -29 -4 -37c0 -65 52 -83 106 -83
c62 0 124 41 164 84l80 359h52l-106 -479c-32 -143 -116 -200 -225 -200z" />
    <glyph glyph-name="ydieresis.alt1" horiz-adv-x="540" 
d="M483 605c0 -22 -19 -41 -41 -41c-19 0 -34 14 -34 33c0 22 20 41 42 41c19 0 33 -14 33 -33zM279 605c0 -22 -19 -41 -42 -41c-18 0 -33 14 -33 33c0 22 20 41 42 41c19 0 33 -14 33 -33zM181 -196c-100 0 -162 24 -208 82l38 39c31 -51 94 -74 170 -74
c98 0 151 60 172 153l16 72c-49 -44 -105 -83 -173 -83c-74 0 -140 32 -140 116c0 9 0 21 5 43l73 331h52l-72 -323c-2 -14 -4 -29 -4 -37c0 -65 52 -83 106 -83c62 0 124 41 164 84l80 359h52l-106 -479c-32 -143 -116 -200 -225 -200z" />
    <glyph glyph-name="ae.alt1" horiz-adv-x="901" 
d="M845 225h-405c-1 -3 -2 -18 -2 -27c0 -89 57 -165 175 -165c55 0 106 19 145 52l21 -38c-43 -35 -105 -59 -166 -59c-102 0 -173 43 -204 112c-45 -51 -103 -112 -210 -112c-88 0 -166 44 -166 140c0 119 89 181 181 181c75 0 141 -27 175 -73l20 89c2 10 3 20 3 31
c0 60 -59 94 -134 94c-60 0 -105 -25 -146 -62l-22 38c54 48 111 69 175 69c92 0 161 -33 165 -123c32 69 107 123 201 123c119 0 202 -81 202 -209c0 -22 -6 -57 -8 -61zM448 266h354c2 8 2 14 2 22c0 97 -62 162 -161 162c-113 0 -173 -100 -195 -184zM388 131
c-4 17 -7 39 -7 61c0 3 0 5 -1 7c-24 45 -91 69 -152 69c-82 0 -139 -58 -139 -135c0 -68 52 -104 124 -104c58 0 116 27 175 102z" />
    <glyph glyph-name="zero.pzero" horiz-adv-x="608" 
d="M276 -12c-69 0 -121 25 -156 68l-47 -56h-53l76 92c-21 41 -31 93 -31 152c0 194 114 433 308 433c68 0 119 -24 154 -67l47 57h53l-77 -93c21 -41 31 -93 31 -152c0 -194 -112 -434 -305 -434zM280 40c150 0 242 219 242 386c0 36 -5 69 -14 98l-351 -422
c25 -39 64 -62 123 -62zM125 240c0 -36 4 -69 13 -97l351 421c-25 38 -64 61 -122 61c-150 0 -242 -218 -242 -385z" />
    <glyph glyph-name="Gcircumflex.alt1" horiz-adv-x="746" 
d="M628 728h-38l-62 113l-108 -113h-42l129 144h54zM355 -12c-169 0 -288 115 -288 289c0 242 181 401 381 401c110 0 201 -53 249 -137l-51 -26c-41 75 -123 111 -207 111c-151 0 -310 -133 -310 -347c0 -147 95 -239 235 -239c155 0 247 109 286 240h-303l11 52h363
c-43 -212 -166 -344 -366 -344z" />
    <glyph glyph-name="Gdotaccent.alt1" horiz-adv-x="746" 
d="M548 774c0 -23 -20 -42 -43 -42c-19 0 -34 14 -34 34c0 22 20 42 43 42c19 0 34 -15 34 -34zM355 -12c-169 0 -288 115 -288 289c0 242 181 401 381 401c110 0 201 -53 249 -137l-51 -26c-41 75 -123 111 -207 111c-151 0 -310 -133 -310 -347c0 -147 95 -239 235 -239
c155 0 247 109 286 240h-303l11 52h363c-43 -212 -166 -344 -366 -344z" />
    <glyph glyph-name="Gcircumflex.smcp.alt1" horiz-adv-x="630" 
d="M325 -12c-161 0 -271 103 -271 245c0 189 153 329 322 329c92 0 170 -36 226 -112l-47 -29c-37 58 -107 92 -178 92c-135 0 -266 -112 -266 -274c0 -122 96 -203 214 -203c105 0 202 77 227 193h-234l10 47h287c-15 -157 -136 -288 -290 -288zM552 606h-38l-62 113
l-108 -113h-42l129 144h54z" />
    <glyph glyph-name="Gdotaccent.smcp.alt1" horiz-adv-x="630" 
d="M325 -12c-161 0 -271 103 -271 245c0 189 153 329 322 329c92 0 170 -36 226 -112l-47 -29c-37 58 -107 92 -178 92c-135 0 -266 -112 -266 -274c0 -122 96 -203 214 -203c105 0 202 77 227 193h-234l10 47h287c-15 -157 -136 -288 -290 -288zM480 677
c0 -23 -20 -42 -43 -42c-19 0 -34 14 -34 34c0 22 20 42 43 42c19 0 34 -15 34 -34z" />
    <glyph glyph-name="aeacute.alt1" horiz-adv-x="901" 
d="M845 225h-405c-1 -3 -2 -18 -2 -27c0 -89 57 -165 175 -165c55 0 106 19 145 52l21 -38c-43 -35 -105 -59 -166 -59c-102 0 -173 43 -204 112c-45 -51 -103 -112 -210 -112c-88 0 -166 44 -166 140c0 119 89 181 181 181c75 0 141 -27 175 -73l20 89c2 10 3 20 3 31
c0 60 -59 94 -134 94c-60 0 -105 -25 -146 -62l-22 38c54 48 111 69 175 69c92 0 161 -33 165 -123c32 69 107 123 201 123c119 0 202 -81 202 -209c0 -22 -6 -57 -8 -61zM448 266h354c2 8 2 14 2 22c0 97 -62 162 -161 162c-113 0 -173 -100 -195 -184zM388 131
c-4 17 -7 39 -7 61c0 3 0 5 -1 7c-24 45 -91 69 -152 69c-82 0 -139 -58 -139 -135c0 -68 52 -104 124 -104c58 0 116 27 175 102zM726 700l-204 -144h-45l186 144h63z" />
    <glyph glyph-name="ycircumflex.alt1" horiz-adv-x="540" 
d="M466 556h-38l-62 113l-108 -113h-42l129 144h54zM181 -196c-100 0 -162 24 -208 82l38 39c31 -51 94 -74 170 -74c98 0 151 60 172 153l16 72c-49 -44 -105 -83 -173 -83c-74 0 -140 32 -140 116c0 9 0 21 5 43l73 331h52l-72 -323c-2 -14 -4 -29 -4 -37
c0 -65 52 -83 106 -83c62 0 124 41 164 84l80 359h52l-106 -479c-32 -143 -116 -200 -225 -200z" />
    <glyph glyph-name="ldot.alt1" horiz-adv-x="273" 
d="M140 -12c-57 0 -96 26 -96 74c0 12 1 21 3 32l127 573h52l-125 -565c-2 -10 -3 -16 -3 -25c0 -28 21 -42 50 -42c20 0 40 9 51 18l10 -42c-15 -12 -39 -23 -69 -23zM240 201c-23 0 -41 18 -41 40c0 27 22 47 49 47c22 0 40 -17 40 -40c0 -26 -22 -47 -48 -47z" />
    <glyph glyph-name="fl.alt1" horiz-adv-x="521" 
d="M97 0h-53l97 437h-80l10 46h80l9 44c21 95 69 150 150 150c29 0 52 -5 76 -21l-23 -42c-15 12 -34 16 -52 16c-56 0 -84 -38 -98 -103l-10 -44h99l-11 -46h-98zM405 -12c-57 0 -96 26 -96 74c0 12 1 21 3 32l127 573h52l-125 -565c-2 -10 -3 -16 -3 -25
c0 -28 21 -42 50 -42c20 0 40 9 51 18l10 -42c-15 -12 -39 -23 -69 -23z" />
    <glyph glyph-name="f_f_l.alt1" horiz-adv-x="785" 
d="M97 0h-53l97 437h-80l10 46h80l9 44c19 91 66 150 150 150c40 0 69 -10 96 -37l-32 -37c-14 16 -33 27 -63 27c-56 0 -84 -38 -98 -103l-10 -44h99l-11 -46h-98zM362 0h-53l97 437h-80l10 46h80l9 44c21 95 69 150 150 150c29 0 52 -5 76 -21l-23 -42
c-15 12 -34 16 -52 16c-56 0 -84 -38 -98 -103l-10 -44h99l-11 -46h-98zM670 -12c-57 0 -96 26 -96 74c0 12 1 21 3 32l127 573h52l-125 -565c-2 -10 -3 -16 -3 -25c0 -28 21 -42 50 -42c20 0 40 9 51 18l10 -42c-15 -12 -39 -23 -69 -23z" />
    <glyph glyph-name="Amacron" unicode="&#x100;" horiz-adv-x="647" 
d="M578 0h-63l-30 164h-353l-102 -164h-69l420 667h71zM478 216l-72 390l-244 -390h316zM615 749h-362l8 38h362z" />
    <glyph glyph-name="amacron" unicode="&#x101;" horiz-adv-x="571" 
d="M299 495c79 0 141 -39 174 -94l17 82h53l-107 -483h-53l17 73c-40 -51 -97 -85 -166 -85c-111 0 -189 74 -189 198c0 163 101 309 254 309zM303 448c-121 0 -201 -125 -201 -252c0 -99 58 -161 146 -161c68 0 131 43 164 93l51 232c-24 48 -82 88 -160 88zM525 579h-362
l8 38h362z" />
    <glyph glyph-name="Abreve" unicode="&#x102;" horiz-adv-x="647" 
d="M578 0h-63l-30 164h-353l-102 -164h-69l420 667h71zM478 216l-72 390l-244 -390h316zM624 813c-52 -54 -122 -88 -194 -88c-71 0 -128 34 -157 88l33 25c23 -46 69 -75 130 -75c62 0 120 29 163 75z" />
    <glyph glyph-name="abreve" unicode="&#x103;" horiz-adv-x="571" 
d="M299 495c79 0 141 -39 174 -94l17 82h53l-107 -483h-53l17 73c-40 -51 -97 -85 -166 -85c-111 0 -189 74 -189 198c0 163 101 309 254 309zM303 448c-121 0 -201 -125 -201 -252c0 -99 58 -161 146 -161c68 0 131 43 164 93l51 232c-24 48 -82 88 -160 88zM537 654
c-52 -54 -122 -88 -194 -88c-71 0 -128 34 -157 88l33 25c23 -46 69 -75 130 -75c62 0 120 29 163 75z" />
    <glyph glyph-name="Aogonek" unicode="&#x104;" horiz-adv-x="647" 
d="M579 -110l26 -18c-19 -31 -45 -58 -90 -58c-44 0 -77 24 -77 70c0 49 30 87 77 116l-30 164h-353l-102 -164h-69l420 667h71l126 -667c-62 -27 -104 -62 -104 -110c0 -29 18 -43 46 -43c25 0 44 16 59 43zM478 216l-72 390l-244 -390h316z" />
    <glyph glyph-name="aogonek" unicode="&#x105;" horiz-adv-x="571" 
d="M437 -110l26 -18c-19 -31 -45 -58 -90 -58c-44 0 -77 24 -77 70c0 53 35 94 88 123l16 66c-40 -51 -97 -85 -166 -85c-111 0 -189 74 -189 198c0 163 101 309 254 309c79 0 141 -39 174 -94l17 82h53l-107 -483c-62 -27 -104 -62 -104 -110c0 -29 18 -43 46 -43
c25 0 44 16 59 43zM303 448c-121 0 -201 -125 -201 -252c0 -99 58 -161 146 -161c68 0 131 43 164 93l51 232c-24 48 -82 88 -160 88z" />
    <glyph glyph-name="Cacute" unicode="&#x106;" horiz-adv-x="671" 
d="M367 -12c-175 0 -300 115 -300 289c0 243 183 401 370 401c117 0 211 -51 262 -143l-55 -25c-46 83 -125 116 -211 116c-152 0 -304 -134 -304 -347c0 -143 93 -239 241 -239c65 0 129 24 189 76l40 -34c-67 -65 -152 -94 -232 -94zM691 872l-204 -144h-45l186 144h63z
" />
    <glyph glyph-name="cacute" unicode="&#x107;" horiz-adv-x="494" 
d="M261 -12c-124 0 -215 77 -215 214c0 159 117 293 268 293c83 0 140 -32 173 -88l-40 -30c-28 49 -78 71 -131 71c-133 0 -215 -120 -215 -247c0 -110 72 -166 165 -166c54 0 100 25 131 62l30 -36c-42 -43 -93 -73 -166 -73zM548 700l-204 -144h-45l186 144h63z" />
    <glyph glyph-name="Ccircumflex" unicode="&#x108;" horiz-adv-x="671" 
d="M367 -12c-175 0 -300 115 -300 289c0 243 183 401 370 401c117 0 211 -51 262 -143l-55 -25c-46 83 -125 116 -211 116c-152 0 -304 -134 -304 -347c0 -143 93 -239 241 -239c65 0 129 24 189 76l40 -34c-67 -65 -152 -94 -232 -94zM628 728h-38l-62 113l-108 -113h-42
l129 144h54z" />
    <glyph glyph-name="ccircumflex" unicode="&#x109;" horiz-adv-x="494" 
d="M261 -12c-124 0 -215 77 -215 214c0 159 117 293 268 293c83 0 140 -32 173 -88l-40 -30c-28 49 -78 71 -131 71c-133 0 -215 -120 -215 -247c0 -110 72 -166 165 -166c54 0 100 25 131 62l30 -36c-42 -43 -93 -73 -166 -73zM485 556h-38l-62 113l-108 -113h-42l129 144
h54z" />
    <glyph glyph-name="Cdotaccent" unicode="&#x10a;" horiz-adv-x="671" 
d="M367 -12c-175 0 -300 115 -300 289c0 243 183 401 370 401c117 0 211 -51 262 -143l-55 -25c-46 83 -125 116 -211 116c-152 0 -304 -134 -304 -347c0 -143 93 -239 241 -239c65 0 129 24 189 76l40 -34c-67 -65 -152 -94 -232 -94zM553 774c0 -23 -20 -42 -43 -42
c-19 0 -34 14 -34 34c0 22 20 42 43 42c19 0 34 -15 34 -34z" />
    <glyph glyph-name="cdotaccent" unicode="&#x10b;" horiz-adv-x="494" 
d="M261 -12c-124 0 -215 77 -215 214c0 159 117 293 268 293c83 0 140 -32 173 -88l-40 -30c-28 49 -78 71 -131 71c-133 0 -215 -120 -215 -247c0 -110 72 -166 165 -166c54 0 100 25 131 62l30 -36c-42 -43 -93 -73 -166 -73zM412 624c0 -23 -20 -42 -43 -42
c-19 0 -34 14 -34 34c0 22 20 42 43 42c19 0 34 -15 34 -34z" />
    <glyph glyph-name="Ccaron" unicode="&#x10c;" horiz-adv-x="671" 
d="M367 -12c-175 0 -300 115 -300 289c0 243 183 401 370 401c117 0 211 -51 262 -143l-55 -25c-46 83 -125 116 -211 116c-152 0 -304 -134 -304 -347c0 -143 93 -239 241 -239c65 0 129 24 189 76l40 -34c-67 -65 -152 -94 -232 -94zM532 728h-54l-68 144h38l61 -113
l109 113h42z" />
    <glyph glyph-name="ccaron" unicode="&#x10d;" horiz-adv-x="494" 
d="M261 -12c-124 0 -215 77 -215 214c0 159 117 293 268 293c83 0 140 -32 173 -88l-40 -30c-28 49 -78 71 -131 71c-133 0 -215 -120 -215 -247c0 -110 72 -166 165 -166c54 0 100 25 131 62l30 -36c-42 -43 -93 -73 -166 -73zM389 556h-54l-68 144h38l61 -113l109 113h42z
" />
    <glyph glyph-name="Dcaron" unicode="&#x10e;" horiz-adv-x="692" 
d="M241 0h-212l147 667h208c149 0 271 -119 271 -284c0 -184 -135 -383 -414 -383zM253 52h-2c211 0 344 152 344 329c0 135 -95 234 -222 234h-151l-125 -563h156zM482 728h-54l-68 144h38l61 -113l109 113h42z" />
    <glyph glyph-name="dcaron" unicode="&#x10f;" horiz-adv-x="625" 
d="M299 495c79 0 141 -39 174 -94l58 266h53l-148 -667h-53l17 73c-40 -51 -97 -85 -166 -85c-111 0 -189 74 -189 198c0 163 101 309 254 309zM303 448c-121 0 -201 -125 -201 -252c0 -99 58 -161 146 -161c68 0 131 43 164 93l51 232c-24 48 -82 88 -160 88zM710 636
c0 -53 -47 -111 -96 -137l-22 24c36 19 66 51 74 81h-7c-16 0 -31 15 -31 33c0 24 21 43 43 43s39 -15 39 -44z" />
    <glyph glyph-name="Dcroat" unicode="&#x110;" horiz-adv-x="721" 
d="M270 0h-212l68 309h-101l11 50h101l68 308h208c149 0 271 -119 271 -284c0 -184 -135 -383 -414 -383zM362 309h-179l-57 -257h154c211 0 344 152 344 329c0 135 -95 234 -222 234h-151l-57 -256h179z" />
    <glyph glyph-name="dcroat" unicode="&#x111;" horiz-adv-x="574" 
d="M299 495c79 0 141 -39 174 -94l30 137h-177l6 38h179l20 91h53l-20 -91h53l-6 -38h-56l-119 -538h-53l17 73c-40 -51 -97 -85 -166 -85c-111 0 -189 74 -189 198c0 163 101 309 254 309zM303 448c-121 0 -201 -125 -201 -252c0 -99 58 -161 146 -161c68 0 131 43 164 93
l51 232c-24 48 -82 88 -160 88z" />
    <glyph glyph-name="Emacron" unicode="&#x112;" horiz-adv-x="564" 
d="M452 0h-423l147 667h423l-11 -52h-366l-54 -247h358l-12 -52h-358l-59 -264h366zM584 749h-362l8 38h362z" />
    <glyph glyph-name="emacron" unicode="&#x113;" horiz-adv-x="567" 
d="M276 -12c-145 0 -230 87 -230 213c0 161 118 294 268 294c129 0 205 -91 205 -209c0 -21 -5 -49 -8 -61h-408c-1 -6 -2 -19 -2 -28c0 -89 59 -164 177 -164c49 0 104 17 146 52l20 -38c-43 -33 -105 -59 -168 -59zM465 266h3c1 5 1 16 1 22c0 94 -57 162 -161 162
c-97 0 -183 -85 -200 -184h357zM539 579h-362l8 38h362z" />
    <glyph glyph-name="Ebreve" unicode="&#x114;" horiz-adv-x="564" 
d="M452 0h-423l147 667h423l-11 -52h-366l-54 -247h358l-12 -52h-358l-59 -264h366zM592 813c-52 -54 -122 -88 -194 -88c-71 0 -128 34 -157 88l33 25c23 -46 69 -75 130 -75c62 0 120 29 163 75z" />
    <glyph glyph-name="ebreve" unicode="&#x115;" horiz-adv-x="567" 
d="M276 -12c-145 0 -230 87 -230 213c0 161 118 294 268 294c129 0 205 -91 205 -209c0 -21 -5 -49 -8 -61h-408c-1 -6 -2 -19 -2 -28c0 -89 59 -164 177 -164c49 0 104 17 146 52l20 -38c-43 -33 -105 -59 -168 -59zM465 266h3c1 5 1 16 1 22c0 94 -57 162 -161 162
c-97 0 -183 -85 -200 -184h357zM554 654c-52 -54 -122 -88 -194 -88c-71 0 -128 34 -157 88l33 25c23 -46 69 -75 130 -75c62 0 120 29 163 75z" />
    <glyph glyph-name="Edotaccent" unicode="&#x116;" horiz-adv-x="564" 
d="M452 0h-423l147 667h423l-11 -52h-366l-54 -247h358l-12 -52h-358l-59 -264h366zM455 774c0 -23 -20 -42 -43 -42c-19 0 -34 14 -34 34c0 22 20 42 43 42c19 0 34 -15 34 -34z" />
    <glyph glyph-name="edotaccent" unicode="&#x117;" horiz-adv-x="567" 
d="M276 -12c-145 0 -230 87 -230 213c0 161 118 294 268 294c129 0 205 -91 205 -209c0 -21 -5 -49 -8 -61h-408c-1 -6 -2 -19 -2 -28c0 -89 59 -164 177 -164c49 0 104 17 146 52l20 -38c-43 -33 -105 -59 -168 -59zM465 266h3c1 5 1 16 1 22c0 94 -57 162 -161 162
c-97 0 -183 -85 -200 -184h357zM409 624c0 -23 -20 -42 -43 -42c-19 0 -34 14 -34 34c0 22 20 42 43 42c19 0 34 -15 34 -34z" />
    <glyph glyph-name="Eogonek" unicode="&#x118;" horiz-adv-x="564" 
d="M452 -110l26 -18c-19 -31 -45 -58 -90 -58c-44 0 -77 24 -77 70c0 49 30 87 76 116h-358l147 667h423l-11 -52h-366l-54 -247h358l-12 -52h-358l-59 -264h366l-11 -52h-1c-62 -27 -104 -62 -104 -110c0 -29 18 -43 46 -43c25 0 44 16 59 43z" />
    <glyph glyph-name="eogonek" unicode="&#x119;" horiz-adv-x="567" 
d="M354 -110l26 -18c-19 -31 -45 -58 -90 -58c-44 0 -77 24 -77 70c0 42 22 77 58 104c-142 2 -225 88 -225 213c0 161 118 294 268 294c129 0 205 -91 205 -209c0 -21 -5 -49 -8 -61h-408c-1 -6 -2 -19 -2 -28c0 -89 59 -164 177 -164c49 0 104 17 146 52l20 -38
c-25 -20 -57 -37 -91 -47c-62 -27 -104 -62 -104 -110c0 -29 18 -43 46 -43c25 0 44 16 59 43zM468 266c1 5 1 16 1 22c0 94 -57 162 -161 162c-97 0 -183 -85 -200 -184h360z" />
    <glyph glyph-name="Ecaron" unicode="&#x11a;" horiz-adv-x="564" 
d="M452 0h-423l147 667h423l-11 -52h-366l-54 -247h358l-12 -52h-358l-59 -264h366zM432 728h-54l-68 144h38l61 -113l109 113h42z" />
    <glyph glyph-name="ecaron" unicode="&#x11b;" horiz-adv-x="567" 
d="M276 -12c-145 0 -230 87 -230 213c0 161 118 294 268 294c129 0 205 -91 205 -209c0 -21 -5 -49 -8 -61h-408c-1 -6 -2 -19 -2 -28c0 -89 59 -164 177 -164c49 0 104 17 146 52l20 -38c-43 -33 -105 -59 -168 -59zM465 266h3c1 5 1 16 1 22c0 94 -57 162 -161 162
c-97 0 -183 -85 -200 -184h357zM385 556h-54l-68 144h38l61 -113l109 113h42z" />
    <glyph glyph-name="Gcircumflex" unicode="&#x11c;" horiz-adv-x="711" 
d="M367 -12c-183 0 -300 121 -300 289c0 233 172 401 373 401c119 0 208 -54 257 -137l-51 -26c-41 74 -123 111 -213 111c-157 0 -304 -144 -304 -347c0 -146 96 -239 241 -239c85 0 149 38 194 80l35 160h-252l11 52h310l-53 -239c-69 -67 -154 -105 -248 -105zM633 728
h-38l-62 113l-108 -113h-42l129 144h54z" />
    <glyph glyph-name="gcircumflex" unicode="&#x11d;" horiz-adv-x="570" 
d="M212 -196c-90 0 -159 18 -208 82l37 39c34 -52 93 -74 171 -74c77 0 149 41 172 153l15 73c-39 -50 -99 -85 -171 -85c-102 0 -183 65 -183 201c0 155 97 302 251 302c69 0 140 -41 175 -94l19 82h53l-107 -479c-33 -147 -120 -200 -224 -200zM247 39c62 0 126 40 163 86
l53 234c-29 54 -96 89 -165 89c-122 0 -197 -128 -197 -248c0 -101 57 -161 146 -161zM482 550h-38l-62 113l-108 -113h-42l129 144h54z" />
    <glyph glyph-name="Gbreve" unicode="&#x11e;" horiz-adv-x="711" 
d="M367 -12c-183 0 -300 121 -300 289c0 233 172 401 373 401c119 0 208 -54 257 -137l-51 -26c-41 74 -123 111 -213 111c-157 0 -304 -144 -304 -347c0 -146 96 -239 241 -239c85 0 149 38 194 80l35 160h-252l11 52h310l-53 -239c-69 -67 -154 -105 -248 -105zM699 813
c-52 -54 -122 -88 -194 -88c-71 0 -128 34 -157 88l33 25c23 -46 69 -75 130 -75c62 0 120 29 163 75z" />
    <glyph glyph-name="gbreve" unicode="&#x11f;" horiz-adv-x="570" 
d="M212 -196c-90 0 -159 18 -208 82l37 39c34 -52 93 -74 171 -74c77 0 149 41 172 153l15 73c-39 -50 -99 -85 -171 -85c-102 0 -183 65 -183 201c0 155 97 302 251 302c69 0 140 -41 175 -94l19 82h53l-107 -479c-33 -147 -120 -200 -224 -200zM247 39c62 0 126 40 163 86
l53 234c-29 54 -96 89 -165 89c-122 0 -197 -128 -197 -248c0 -101 57 -161 146 -161zM550 654c-52 -54 -122 -88 -194 -88c-71 0 -128 34 -157 88l33 25c23 -46 69 -75 130 -75c62 0 120 29 163 75z" />
    <glyph glyph-name="Gdotaccent" unicode="&#x120;" horiz-adv-x="711" 
d="M367 -12c-183 0 -300 121 -300 289c0 233 172 401 373 401c119 0 208 -54 257 -137l-51 -26c-41 74 -123 111 -213 111c-157 0 -304 -144 -304 -347c0 -146 96 -239 241 -239c85 0 149 38 194 80l35 160h-252l11 52h310l-53 -239c-69 -67 -154 -105 -248 -105zM553 774
c0 -23 -20 -42 -43 -42c-19 0 -34 14 -34 34c0 22 20 42 43 42c19 0 34 -15 34 -34z" />
    <glyph glyph-name="gdotaccent" unicode="&#x121;" horiz-adv-x="570" 
d="M212 -196c-90 0 -159 18 -208 82l37 39c34 -52 93 -74 171 -74c77 0 149 41 172 153l15 73c-39 -50 -99 -85 -171 -85c-102 0 -183 65 -183 201c0 155 97 302 251 302c69 0 140 -41 175 -94l19 82h53l-107 -479c-33 -147 -120 -200 -224 -200zM247 39c62 0 126 40 163 86
l53 234c-29 54 -96 89 -165 89c-122 0 -197 -128 -197 -248c0 -101 57 -161 146 -161zM406 624c0 -23 -20 -42 -43 -42c-19 0 -34 14 -34 34c0 22 20 42 43 42c19 0 34 -15 34 -34z" />
    <glyph glyph-name="Gcommaaccent" unicode="&#x122;" horiz-adv-x="711" 
d="M367 -12c-183 0 -300 121 -300 289c0 233 172 401 373 401c119 0 208 -54 257 -137l-51 -26c-41 74 -123 111 -213 111c-157 0 -304 -144 -304 -347c0 -146 96 -239 241 -239c85 0 149 38 194 80l35 160h-252l11 52h310l-53 -239c-69 -67 -154 -105 -248 -105zM359 -122
c0 -53 -47 -111 -96 -137l-22 24c36 19 66 51 74 81h-7c-16 0 -31 15 -31 33c0 24 21 43 43 43s39 -15 39 -44z" />
    <glyph glyph-name="gcommaaccent" unicode="&#x123;" horiz-adv-x="570" 
d="M317 606c0 54 47 112 96 138l22 -24c-35 -19 -66 -51 -74 -81h7c16 0 31 -15 31 -34c0 -24 -20 -43 -43 -43c-22 0 -39 15 -39 44zM212 -196c-90 0 -159 18 -208 82l37 39c34 -52 93 -74 171 -74c77 0 149 41 172 153l15 73c-39 -50 -99 -85 -171 -85
c-102 0 -183 65 -183 201c0 155 97 302 251 302c69 0 140 -41 175 -94l19 82h53l-107 -479c-33 -147 -120 -200 -224 -200zM247 39c62 0 126 40 163 86l53 234c-29 54 -96 89 -165 89c-122 0 -197 -128 -197 -248c0 -101 57 -161 146 -161z" />
    <glyph glyph-name="Hcircumflex" unicode="&#x124;" horiz-adv-x="703" 
d="M567 0h-58l70 317h-423l-70 -317h-57l147 667h57l-65 -298h422l66 298h58zM581 728h-38l-62 113l-108 -113h-42l129 144h54z" />
    <glyph glyph-name="hcircumflex" unicode="&#x125;" horiz-adv-x="540" 
d="M405 0h-52l72 328c2 9 6 27 6 35c0 60 -46 85 -108 85c-60 0 -122 -42 -163 -85l-81 -363h-52l147 667h52l-56 -257c43 42 106 85 174 85c82 0 141 -39 141 -118c0 -8 -3 -30 -6 -41zM341 728h-38l-62 113l-108 -113h-42l129 144h54z" />
    <glyph glyph-name="Hbar" unicode="&#x126;" horiz-adv-x="724" 
d="M578 0h-58l70 317h-423l-70 -317h-57l110 501h-82l9 38h82l28 128h57l-28 -128h422l29 128h58l-28 -128h79l-8 -38h-80zM179 369h422l29 132h-422z" />
    <glyph glyph-name="hbar" unicode="&#x127;" horiz-adv-x="542" 
d="M407 0h-52l72 328c2 9 6 27 6 35c0 60 -46 85 -108 85c-60 0 -122 -42 -163 -85l-81 -363h-52l118 538h-71l8 38h72l20 91h52l-20 -91h162l-9 -38h-161l-28 -128c43 42 106 85 174 85c82 0 141 -39 141 -118c0 -8 -3 -30 -6 -41z" />
    <glyph glyph-name="Itilde" unicode="&#x128;" horiz-adv-x="223" 
d="M86 0h-57l147 667h57zM288 726c-75 0 -58 102 -117 102c-30 0 -53 -28 -69 -96h-36c15 75 52 134 112 134c75 0 59 -102 117 -102c30 0 53 29 70 96h36c-16 -75 -53 -134 -113 -134z" />
    <glyph glyph-name="itilde" unicode="&#x129;" horiz-adv-x="214" 
d="M79 0h-52l107 483h52zM245 542c-75 0 -58 102 -117 102c-30 0 -53 -28 -69 -96h-36c15 75 52 134 112 134c75 0 59 -102 117 -102c30 0 53 29 70 96h36c-16 -75 -53 -134 -113 -134z" />
    <glyph glyph-name="Imacron" unicode="&#x12a;" horiz-adv-x="223" 
d="M86 0h-57l147 667h57zM405 749h-362l8 38h362z" />
    <glyph glyph-name="imacron" unicode="&#x12b;" horiz-adv-x="214" 
d="M79 0h-52l107 483h52zM363 579h-362l8 38h362z" />
    <glyph glyph-name="Ibreve" unicode="&#x12c;" horiz-adv-x="223" 
d="M86 0h-57l147 667h57zM413 813c-52 -54 -122 -88 -194 -88c-71 0 -128 34 -157 88l33 25c23 -46 69 -75 130 -75c62 0 120 29 163 75z" />
    <glyph glyph-name="ibreve" unicode="&#x12d;" horiz-adv-x="214" 
d="M79 0h-52l107 483h52zM375 654c-52 -54 -122 -88 -194 -88c-71 0 -128 34 -157 88l33 25c23 -46 69 -75 130 -75c62 0 120 29 163 75z" />
    <glyph glyph-name="Iogonek" unicode="&#x12e;" horiz-adv-x="223" 
d="M87 -110l26 -18c-19 -31 -45 -58 -90 -58c-44 0 -77 24 -77 70c0 51 33 92 84 120l146 663h57l-147 -667c-62 -27 -104 -62 -104 -110c0 -29 18 -43 46 -43c25 0 44 16 59 43z" />
    <glyph glyph-name="iogonek" unicode="&#x12f;" horiz-adv-x="214" 
d="M80 -110l26 -18c-19 -31 -45 -58 -90 -58c-44 0 -77 24 -77 70c0 53 36 94 89 123l106 476h52l-107 -483c-62 -27 -104 -62 -104 -110c0 -29 18 -43 46 -43c25 0 44 16 59 43zM180 559c-20 0 -36 16 -36 35c0 27 25 44 45 44c21 0 37 -16 37 -35c0 -27 -25 -44 -46 -44z
" />
    <glyph glyph-name="Idotaccent" unicode="&#x130;" horiz-adv-x="223" 
d="M86 0h-57l147 667h57zM267 774c0 -23 -20 -42 -43 -42c-19 0 -34 14 -34 34c0 22 20 42 43 42c19 0 34 -15 34 -34z" />
    <glyph glyph-name="IJ" unicode="&#x132;" horiz-adv-x="693" 
d="M86 0h-57l147 667h57zM379 -12c-76 0 -142 30 -175 88l39 40c25 -47 71 -76 133 -76c92 0 145 63 165 153l105 474h57l-104 -474c-31 -139 -109 -205 -220 -205z" />
    <glyph glyph-name="ij" unicode="&#x133;" horiz-adv-x="427" 
d="M180 559c-20 0 -36 16 -36 35c0 27 25 44 45 44c21 0 37 -16 37 -35c0 -27 -25 -44 -46 -44zM79 0h-52l107 483h52zM140 -196c-45 0 -84 14 -107 43l31 40c15 -20 41 -36 70 -36c46 0 79 26 93 88l121 544h52l-121 -544c-20 -90 -62 -135 -139 -135zM394 559
c-20 0 -36 16 -36 35c0 27 25 44 45 44c21 0 37 -16 37 -35c0 -27 -25 -44 -46 -44z" />
    <glyph glyph-name="Jcircumflex" unicode="&#x134;" horiz-adv-x="470" 
d="M156 -12c-76 0 -142 30 -175 88l39 40c25 -47 71 -76 133 -76c92 0 145 63 165 153l105 474h57l-104 -474c-31 -139 -109 -205 -220 -205zM591 728h-38l-62 113l-108 -113h-42l129 144h54z" />
    <glyph glyph-name="jcircumflex" unicode="&#x135;" horiz-adv-x="214" 
d="M-74 -196c-45 0 -84 14 -107 43l31 40c15 -20 41 -36 70 -36c46 0 79 26 93 88l121 544h52l-121 -544c-20 -90 -62 -135 -139 -135zM303 556h-38l-62 113l-108 -113h-42l129 144h54z" />
    <glyph glyph-name="Kcommaaccent" unicode="&#x136;" horiz-adv-x="589" 
d="M508 0h-68l-208 317l-94 -84l-52 -233h-57l147 667h57l-79 -358l397 358h77l-354 -318zM260 -122c0 -53 -47 -111 -96 -137l-22 24c36 19 66 51 74 81h-7c-16 0 -31 15 -31 33c0 24 21 43 43 43s39 -15 39 -44z" />
    <glyph glyph-name="kcommaaccent" unicode="&#x137;" horiz-adv-x="505" 
d="M432 0h-64l-145 233l-112 -88l-32 -145h-52l147 667h52l-101 -456l342 272h73l-274 -218zM219 -122c0 -53 -47 -111 -96 -137l-22 24c36 19 66 51 74 81h-7c-16 0 -31 15 -31 33c0 24 21 43 43 43s39 -15 39 -44z" />
    <glyph glyph-name="kgreenlandic" unicode="&#x138;" horiz-adv-x="505" 
d="M432 0h-64l-145 233l-112 -88l-32 -145h-52l107 483h52l-61 -272l342 272h73l-274 -218z" />
    <glyph glyph-name="Lacute" unicode="&#x139;" horiz-adv-x="484" 
d="M396 0h-381l147 667h58l-136 -615h322zM517 872l-204 -144h-45l186 144h63z" />
    <glyph glyph-name="lacute" unicode="&#x13a;" horiz-adv-x="214" 
d="M79 0h-52l147 667h52zM402 872l-204 -144h-45l186 144h63z" />
    <glyph glyph-name="Lcommaaccent" unicode="&#x13b;" horiz-adv-x="484" 
d="M396 0h-381l147 667h58l-136 -615h322zM207 -122c0 -53 -47 -111 -96 -137l-22 24c36 19 66 51 74 81h-7c-16 0 -31 15 -31 33c0 24 21 43 43 43s39 -15 39 -44z" />
    <glyph glyph-name="lcommaaccent" unicode="&#x13c;" horiz-adv-x="214" 
d="M79 0h-52l147 667h52zM73 -122c0 -53 -47 -111 -96 -137l-22 24c36 19 66 51 74 81h-7c-16 0 -31 15 -31 33c0 24 21 43 43 43s39 -15 39 -44z" />
    <glyph glyph-name="Lcaron" unicode="&#x13d;" horiz-adv-x="484" 
d="M396 0h-381l147 667h58l-136 -615h322zM395 635c0 -53 -47 -111 -96 -137l-22 24c36 19 66 51 74 81h-7c-16 0 -31 15 -31 33c0 24 21 43 43 43s39 -15 39 -44z" />
    <glyph glyph-name="lcaron" unicode="&#x13e;" horiz-adv-x="264" 
d="M79 0h-52l147 667h52zM367 635c0 -53 -47 -111 -96 -137l-22 24c36 19 66 51 74 81h-7c-16 0 -31 15 -31 33c0 24 21 43 43 43s39 -15 39 -44z" />
    <glyph glyph-name="Ldot" unicode="&#x13f;" horiz-adv-x="494" 
d="M396 0h-381l147 667h58l-136 -615h322zM367 298c-23 0 -41 18 -41 40c0 27 22 47 49 47c22 0 40 -17 40 -40c0 -26 -22 -47 -48 -47z" />
    <glyph glyph-name="ldot" unicode="&#x140;" horiz-adv-x="273" 
d="M79 0h-52l147 667h52zM240 201c-23 0 -41 18 -41 40c0 27 22 47 49 47c22 0 40 -17 40 -40c0 -26 -22 -47 -48 -47z" />
    <glyph glyph-name="Nacute" unicode="&#x143;" horiz-adv-x="699" 
d="M562 0h-56l-292 578l-128 -578h-57l147 667h58l291 -570l127 570h57zM644 872l-204 -144h-45l186 144h63z" />
    <glyph glyph-name="nacute" unicode="&#x144;" horiz-adv-x="540" 
d="M407 0h-52l72 328c2 9 6 23 6 35c0 60 -46 85 -108 85c-60 0 -122 -41 -163 -84l-81 -364h-52l107 483h52l-16 -73c43 42 106 85 174 85c82 0 141 -39 141 -118c0 -9 -3 -30 -6 -41zM526 700l-204 -144h-45l186 144h63z" />
    <glyph glyph-name="Ncommaaccent" unicode="&#x145;" horiz-adv-x="699" 
d="M562 0h-56l-292 578l-128 -578h-57l147 667h58l291 -570l127 570h57zM316 -122c0 -53 -47 -111 -96 -137l-22 24c36 19 66 51 74 81h-7c-16 0 -31 15 -31 33c0 24 21 43 43 43s39 -15 39 -44z" />
    <glyph glyph-name="ncommaaccent" unicode="&#x146;" horiz-adv-x="540" 
d="M407 0h-52l72 328c2 9 6 23 6 35c0 60 -46 85 -108 85c-60 0 -122 -41 -163 -84l-81 -364h-52l107 483h52l-16 -73c43 42 106 85 174 85c82 0 141 -39 141 -118c0 -9 -3 -30 -6 -41zM236 -122c0 -53 -47 -111 -96 -137l-22 24c36 19 66 51 74 81h-7c-16 0 -31 15 -31 33
c0 24 21 43 43 43s39 -15 39 -44z" />
    <glyph glyph-name="Ncaron" unicode="&#x147;" horiz-adv-x="699" 
d="M562 0h-56l-292 578l-128 -578h-57l147 667h58l291 -570l127 570h57zM485 728h-54l-68 144h38l61 -113l109 113h42z" />
    <glyph glyph-name="ncaron" unicode="&#x148;" horiz-adv-x="540" 
d="M407 0h-52l72 328c2 9 6 23 6 35c0 60 -46 85 -108 85c-60 0 -122 -41 -163 -84l-81 -364h-52l107 483h52l-16 -73c43 42 106 85 174 85c82 0 141 -39 141 -118c0 -9 -3 -30 -6 -41zM368 556h-54l-68 144h38l61 -113l109 113h42z" />
    <glyph glyph-name="napostrophe" unicode="&#x149;" horiz-adv-x="540" 
d="M407 0h-52l72 328c2 9 6 23 6 35c0 60 -46 85 -108 85c-60 0 -122 -41 -163 -84l-81 -364h-52l107 483h52l-16 -73c43 42 106 85 174 85c82 0 141 -39 141 -118c0 -9 -3 -30 -6 -41zM249 690c0 -53 -47 -111 -96 -137l-22 24c36 19 66 51 74 81h-7c-16 0 -31 15 -31 33
c0 24 21 43 43 43s39 -15 39 -44z" />
    <glyph glyph-name="Eng" unicode="&#x14a;" horiz-adv-x="699" 
d="M344 -196c-81 0 -143 33 -175 88l38 37c23 -46 69 -76 134 -76c86 0 140 55 164 149l-291 576l-128 -578h-57l147 667h58l291 -570l127 570h57l-146 -662c-31 -140 -111 -201 -219 -201z" />
    <glyph glyph-name="eng" unicode="&#x14b;" horiz-adv-x="540" 
d="M252 -196c-43 0 -82 12 -107 43l31 40c15 -20 40 -36 70 -36c48 0 79 26 93 88l86 389c3 13 6 25 6 36c0 61 -49 84 -108 84c-60 0 -122 -41 -163 -84l-81 -364h-52l107 483h52l-16 -73c43 42 106 85 174 85c78 0 141 -36 141 -118c0 -13 -3 -26 -6 -41l-88 -397
c-19 -86 -60 -135 -139 -135z" />
    <glyph glyph-name="Omacron" unicode="&#x14c;" horiz-adv-x="764" 
d="M367 -12c-166 0 -300 103 -300 289c0 226 167 401 370 401c165 0 299 -103 299 -289c0 -225 -166 -401 -369 -401zM370 40c161 0 304 145 304 347c0 156 -110 239 -242 239c-162 0 -303 -145 -303 -347c0 -156 109 -239 241 -239zM674 749h-362l8 38h362z" />
    <glyph glyph-name="omacron" unicode="&#x14d;" horiz-adv-x="571" 
d="M258 -12c-130 0 -213 84 -213 212c0 153 113 295 266 295c130 0 213 -84 213 -212c0 -153 -113 -295 -266 -295zM259 35c121 0 208 121 208 246c0 101 -58 167 -157 167c-121 0 -208 -121 -208 -246c0 -101 58 -167 157 -167zM540 579h-362l8 38h362z" />
    <glyph glyph-name="Obreve" unicode="&#x14e;" horiz-adv-x="764" 
d="M367 -12c-166 0 -300 103 -300 289c0 226 167 401 370 401c165 0 299 -103 299 -289c0 -225 -166 -401 -369 -401zM370 40c161 0 304 145 304 347c0 156 -110 239 -242 239c-162 0 -303 -145 -303 -347c0 -156 109 -239 241 -239zM680 813c-52 -54 -122 -88 -194 -88
c-71 0 -128 34 -157 88l33 25c23 -46 69 -75 130 -75c62 0 120 29 163 75z" />
    <glyph glyph-name="obreve" unicode="&#x14f;" horiz-adv-x="571" 
d="M258 -12c-130 0 -213 84 -213 212c0 153 113 295 266 295c130 0 213 -84 213 -212c0 -153 -113 -295 -266 -295zM259 35c121 0 208 121 208 246c0 101 -58 167 -157 167c-121 0 -208 -121 -208 -246c0 -101 58 -167 157 -167zM552 654c-52 -54 -122 -88 -194 -88
c-71 0 -128 34 -157 88l33 25c23 -46 69 -75 130 -75c62 0 120 29 163 75z" />
    <glyph glyph-name="Ohungarumlaut" unicode="&#x150;" horiz-adv-x="764" 
d="M367 -12c-166 0 -300 103 -300 289c0 226 167 401 370 401c165 0 299 -103 299 -289c0 -225 -166 -401 -369 -401zM370 40c161 0 304 145 304 347c0 156 -110 239 -242 239c-162 0 -303 -145 -303 -347c0 -156 109 -239 241 -239zM569 872l-147 -144h-39l129 144h57z
M708 872l-147 -144h-39l129 144h57z" />
    <glyph glyph-name="ohungarumlaut" unicode="&#x151;" horiz-adv-x="571" 
d="M258 -12c-130 0 -213 84 -213 212c0 153 113 295 266 295c130 0 213 -84 213 -212c0 -153 -113 -295 -266 -295zM259 35c121 0 208 121 208 246c0 101 -58 167 -157 167c-121 0 -208 -121 -208 -246c0 -101 58 -167 157 -167zM434 700l-147 -144h-39l129 144h57zM573 700
l-147 -144h-39l129 144h57z" />
    <glyph glyph-name="Racute" unicode="&#x154;" horiz-adv-x="594" 
d="M489 0h-65l-126 276h-151l-61 -276h-57l147 667h229c90 0 181 -61 181 -168c0 -124 -90 -216 -228 -220zM343 328h2c117 0 179 78 179 168c0 70 -62 119 -125 119h-177l-63 -287h184zM592 872l-204 -144h-45l186 144h63z" />
    <glyph glyph-name="racute" unicode="&#x155;" horiz-adv-x="317" 
d="M79 0h-52l107 483h52l-18 -78c50 58 97 88 184 88l-13 -56c-6 1 -18 3 -35 3c-59 0 -116 -44 -147 -88zM444 700l-204 -144h-45l186 144h63z" />
    <glyph glyph-name="Rcommaaccent" unicode="&#x156;" horiz-adv-x="594" 
d="M489 0h-65l-126 276h-151l-61 -276h-57l147 667h229c90 0 181 -61 181 -168c0 -124 -90 -216 -228 -220zM343 328h2c117 0 179 78 179 168c0 70 -62 119 -125 119h-177l-63 -287h184zM264 -122c0 -53 -47 -111 -96 -137l-22 24c36 19 66 51 74 81h-7c-16 0 -31 15 -31 33
c0 24 21 43 43 43s39 -15 39 -44z" />
    <glyph glyph-name="rcommaaccent" unicode="&#x157;" horiz-adv-x="317" 
d="M79 0h-52l107 483h52l-18 -78c50 58 97 88 184 88l-13 -56c-6 1 -18 3 -35 3c-59 0 -116 -44 -147 -88zM125 -122c0 -53 -47 -111 -96 -137l-22 24c36 19 66 51 74 81h-7c-16 0 -31 15 -31 33c0 24 21 43 43 43s39 -15 39 -44z" />
    <glyph glyph-name="Rcaron" unicode="&#x158;" horiz-adv-x="594" 
d="M489 0h-65l-126 276h-151l-61 -276h-57l147 667h229c90 0 181 -61 181 -168c0 -124 -90 -216 -228 -220zM343 328h2c117 0 179 78 179 168c0 70 -62 119 -125 119h-177l-63 -287h184zM433 728h-54l-68 144h38l61 -113l109 113h42z" />
    <glyph glyph-name="rcaron" unicode="&#x159;" horiz-adv-x="317" 
d="M79 0h-52l107 483h52l-18 -78c50 58 97 88 184 88l-13 -56c-6 1 -18 3 -35 3c-59 0 -116 -44 -147 -88zM284 556h-54l-68 144h38l61 -113l109 113h42z" />
    <glyph glyph-name="Sacute" unicode="&#x15a;" horiz-adv-x="581" 
d="M279 -12c-114 0 -214 51 -255 117l42 41c46 -65 123 -106 218 -106c119 0 168 80 168 145c0 147 -333 121 -333 307c0 101 98 186 225 186c102 0 189 -42 230 -104l-43 -40c-42 63 -117 92 -192 92c-89 0 -158 -62 -158 -128c0 -134 334 -116 334 -306
c0 -100 -81 -204 -236 -204zM585 872l-204 -144h-45l186 144h63z" />
    <glyph glyph-name="sacute" unicode="&#x15b;" horiz-adv-x="459" 
d="M202 -12c-87 0 -154 29 -194 85l37 36c25 -40 84 -77 158 -77c80 0 128 48 128 100c0 103 -258 90 -258 220c0 78 64 143 176 143c83 0 149 -37 176 -79l-34 -34c-21 38 -82 69 -146 69c-73 0 -119 -38 -119 -87c0 -98 258 -83 258 -221c0 -80 -65 -155 -182 -155z
M487 700l-204 -144h-45l186 144h63z" />
    <glyph glyph-name="Scircumflex" unicode="&#x15c;" horiz-adv-x="581" 
d="M477 728h-38l-62 113l-108 -113h-42l129 144h54zM279 -12c-114 0 -214 51 -255 117l42 41c46 -65 123 -106 218 -106c119 0 168 80 168 145c0 147 -333 121 -333 307c0 101 98 186 225 186c102 0 189 -42 230 -104l-43 -40c-42 63 -117 92 -192 92
c-89 0 -158 -62 -158 -128c0 -134 334 -116 334 -306c0 -100 -81 -204 -236 -204z" />
    <glyph glyph-name="scircumflex" unicode="&#x15d;" horiz-adv-x="459" 
d="M202 -12c-87 0 -154 29 -194 85l37 36c25 -40 84 -77 158 -77c80 0 128 48 128 100c0 103 -258 90 -258 220c0 78 64 143 176 143c83 0 149 -37 176 -79l-34 -34c-21 38 -82 69 -146 69c-73 0 -119 -38 -119 -87c0 -98 258 -83 258 -221c0 -80 -65 -155 -182 -155z
M419 556h-38l-62 113l-108 -113h-42l129 144h54z" />
    <glyph glyph-name="Scedilla" unicode="&#x15e;" horiz-adv-x="581" 
d="M204 -189c-46 0 -82 16 -104 37l23 30c22 -23 54 -34 83 -34c45 0 66 23 66 51c0 20 -15 34 -40 34c-13 0 -27 -6 -37 -18l-24 16l39 68c-84 15 -154 57 -186 110l42 41c46 -65 123 -106 218 -106c119 0 168 80 168 145c0 147 -333 121 -333 307c0 101 98 186 225 186
c102 0 189 -42 230 -104l-43 -40c-42 63 -117 92 -192 92c-89 0 -158 -62 -158 -128c0 -134 334 -116 334 -306c0 -100 -81 -204 -236 -204c-12 0 -23 1 -34 2l-28 -46c11 8 22 11 34 11c34 0 58 -21 58 -57c0 -51 -42 -87 -105 -87z" />
    <glyph glyph-name="scedilla" unicode="&#x15f;" horiz-adv-x="459" 
d="M142 -189c-46 0 -82 16 -104 37l23 30c22 -23 54 -34 83 -34c45 0 66 23 66 51c0 20 -15 34 -40 34c-13 0 -27 -6 -37 -18l-24 16l38 66c-61 9 -108 36 -139 80l37 36c25 -40 84 -77 158 -77c80 0 128 48 128 100c0 103 -258 90 -258 220c0 78 64 143 176 143
c83 0 149 -37 176 -79l-34 -34c-21 38 -82 69 -146 69c-73 0 -119 -38 -119 -87c0 -98 258 -83 258 -221c0 -80 -65 -155 -182 -155c-7 0 -13 0 -20 1l-27 -45c11 8 22 11 34 11c34 0 58 -21 58 -57c0 -51 -42 -87 -105 -87z" />
    <glyph glyph-name="Tcommaaccent" unicode="&#x162;" horiz-adv-x="564" 
d="M257 0h-58l136 615h-218l11 52h494l-11 -52h-218zM248 -122c0 -53 -47 -111 -96 -137l-22 24c36 19 66 51 74 81h-7c-16 0 -31 15 -31 33c0 24 21 43 43 43s39 -15 39 -44z" />
    <glyph glyph-name="Tcommaaccent" unicode="&#x21a;" horiz-adv-x="564" 
d="M257 0h-58l136 615h-218l11 52h494l-11 -52h-218zM248 -122c0 -53 -47 -111 -96 -137l-22 24c36 19 66 51 74 81h-7c-16 0 -31 15 -31 33c0 24 21 43 43 43s39 -15 39 -44z" />
    <glyph glyph-name="tcommaaccent" unicode="&#x163;" horiz-adv-x="275" 
d="M151 -12c-60 0 -97 25 -97 80c0 5 1 17 4 26l76 343h-80l10 46h80l29 132h53l-29 -132h98l-11 -46h-98l-74 -335c-1 -6 -2 -12 -2 -21c0 -29 16 -46 49 -46c19 0 39 9 51 18l10 -42c-18 -13 -41 -23 -69 -23zM104 -122c0 -53 -47 -111 -96 -137l-22 24c36 19 66 51 74 81
h-7c-16 0 -31 15 -31 33c0 24 21 43 43 43s39 -15 39 -44z" />
    <glyph glyph-name="tcommaaccent" unicode="&#x21b;" horiz-adv-x="275" 
d="M151 -12c-60 0 -97 25 -97 80c0 5 1 17 4 26l76 343h-80l10 46h80l29 132h53l-29 -132h98l-11 -46h-98l-74 -335c-1 -6 -2 -12 -2 -21c0 -29 16 -46 49 -46c19 0 39 9 51 18l10 -42c-18 -13 -41 -23 -69 -23zM104 -122c0 -53 -47 -111 -96 -137l-22 24c36 19 66 51 74 81
h-7c-16 0 -31 15 -31 33c0 24 21 43 43 43s39 -15 39 -44z" />
    <glyph glyph-name="Tcaron" unicode="&#x164;" horiz-adv-x="564" 
d="M257 0h-58l136 615h-218l11 52h494l-11 -52h-218zM418 728h-54l-68 144h38l61 -113l109 113h42z" />
    <glyph glyph-name="tcaron" unicode="&#x165;" horiz-adv-x="285" 
d="M151 -12c-60 0 -97 25 -97 80c0 5 1 17 4 26l76 343h-80l10 46h80l29 132h53l-29 -132h98l-11 -46h-98l-74 -335c-1 -6 -2 -12 -2 -21c0 -29 16 -46 49 -46c19 0 39 9 51 18l10 -42c-18 -13 -41 -23 -69 -23zM387 690c0 -53 -47 -111 -96 -137l-22 24c36 19 66 51 74 81
h-7c-16 0 -31 15 -31 33c0 24 21 43 43 43s39 -15 39 -44z" />
    <glyph glyph-name="Tbar" unicode="&#x166;" horiz-adv-x="564" 
d="M257 0h-58l68 307h-158l9 38h157l60 270h-218l11 52h494l-11 -52h-218l-60 -270h158l-9 -38h-157z" />
    <glyph glyph-name="tbar" unicode="&#x167;" horiz-adv-x="275" 
d="M151 -12c-60 0 -97 25 -97 80c0 5 1 17 4 26l31 140h-80l8 38h80l37 165h-80l10 46h80l29 132h53l-29 -132h98l-11 -46h-98l-37 -165h71l-9 -38h-70l-29 -132c-1 -6 -2 -12 -2 -21c0 -29 16 -46 49 -46c19 0 39 9 51 18l10 -42c-18 -13 -41 -23 -69 -23z" />
    <glyph glyph-name="Utilde" unicode="&#x168;" horiz-adv-x="686" 
d="M328 -12c-154 0 -247 84 -247 217c0 21 3 40 5 51l90 411h58l-90 -410c-2 -8 -6 -26 -6 -45c0 -101 69 -172 190 -172c131 0 190 82 220 217l90 410h58l-90 -411c-36 -164 -109 -268 -278 -268zM522 726c-75 0 -58 102 -117 102c-30 0 -53 -28 -69 -96h-36
c15 75 52 134 112 134c75 0 59 -102 117 -102c30 0 53 29 70 96h36c-16 -75 -53 -134 -113 -134z" />
    <glyph glyph-name="utilde" unicode="&#x169;" horiz-adv-x="540" 
d="M133 483h53l-73 -327c-2 -9 -5 -24 -5 -36c0 -60 46 -85 107 -85s123 41 164 85l81 363h52l-107 -483h-52l16 73c-43 -42 -106 -85 -174 -85c-82 0 -141 39 -141 118c0 9 3 30 6 41zM408 554c-75 0 -58 102 -117 102c-30 0 -53 -28 -69 -96h-36c15 75 52 134 112 134
c75 0 59 -102 117 -102c30 0 53 29 70 96h36c-16 -75 -53 -134 -113 -134z" />
    <glyph glyph-name="Umacron" unicode="&#x16a;" horiz-adv-x="686" 
d="M328 -12c-154 0 -247 84 -247 217c0 21 3 40 5 51l90 411h58l-90 -410c-2 -8 -6 -26 -6 -45c0 -101 69 -172 190 -172c131 0 190 82 220 217l90 410h58l-90 -411c-37 -164 -109 -268 -278 -268zM636 749h-362l8 38h362z" />
    <glyph glyph-name="umacron" unicode="&#x16b;" horiz-adv-x="540" 
d="M133 483h53l-73 -327c-2 -9 -5 -24 -5 -36c0 -60 46 -85 107 -85s123 41 164 85l81 363h52l-107 -483h-52l16 73c-43 -42 -106 -85 -174 -85c-82 0 -141 39 -141 118c0 9 3 30 6 41zM525 579h-362l8 38h362z" />
    <glyph glyph-name="Ubreve" unicode="&#x16c;" horiz-adv-x="686" 
d="M328 -12c-154 0 -247 84 -247 217c0 21 3 40 5 51l90 411h58l-90 -410c-2 -8 -6 -26 -6 -45c0 -101 69 -172 190 -172c131 0 190 82 220 217l90 410h58l-90 -411c-36 -164 -109 -268 -278 -268zM647 813c-52 -54 -122 -88 -194 -88c-71 0 -128 34 -157 88l33 25
c23 -46 69 -75 130 -75c62 0 120 29 163 75z" />
    <glyph glyph-name="ubreve" unicode="&#x16d;" horiz-adv-x="540" 
d="M133 483h53l-73 -327c-2 -9 -5 -24 -5 -36c0 -60 46 -85 107 -85s123 41 164 85l81 363h52l-107 -483h-52l16 73c-43 -42 -106 -85 -174 -85c-82 0 -141 39 -141 118c0 9 3 30 6 41zM537 654c-52 -54 -122 -88 -194 -88c-71 0 -128 34 -157 88l33 25
c23 -46 69 -75 130 -75c62 0 120 29 163 75z" />
    <glyph glyph-name="Uring" unicode="&#x16e;" horiz-adv-x="686" 
d="M328 -12c-154 0 -247 84 -247 217c0 21 3 40 5 51l90 411h58l-90 -410c-2 -8 -6 -26 -6 -45c0 -101 69 -172 190 -172c131 0 190 82 220 217l90 410h58l-90 -411c-36 -164 -109 -268 -278 -268zM453 692c-51 0 -87 36 -87 87c0 56 48 105 105 105c51 0 87 -36 87 -87
c0 -57 -49 -105 -105 -105zM454 724c38 0 72 32 72 70c0 34 -23 58 -56 58c-39 0 -72 -32 -72 -70c0 -34 22 -58 56 -58z" />
    <glyph glyph-name="uring" unicode="&#x16f;" horiz-adv-x="540" 
d="M133 483h53l-73 -327c-2 -9 -5 -24 -5 -36c0 -60 46 -85 107 -85s123 41 164 85l81 363h52l-107 -483h-52l16 73c-43 -42 -106 -85 -174 -85c-82 0 -141 39 -141 118c0 9 3 30 6 41zM350 557c-51 0 -87 36 -87 87c0 56 48 105 105 105c51 0 87 -36 87 -87
c0 -57 -49 -105 -105 -105zM351 589c38 0 72 32 72 70c0 34 -23 58 -56 58c-39 0 -72 -32 -72 -70c0 -34 22 -58 56 -58z" />
    <glyph glyph-name="Uhungarumlaut" unicode="&#x170;" horiz-adv-x="686" 
d="M328 -12c-154 0 -247 84 -247 217c0 21 3 40 5 51l90 411h58l-90 -410c-2 -8 -6 -26 -6 -45c0 -101 69 -172 190 -172c131 0 190 82 220 217l90 410h58l-90 -411c-36 -164 -109 -268 -278 -268zM530 872l-147 -144h-39l129 144h57zM669 872l-147 -144h-39l129 144h57z
" />
    <glyph glyph-name="uhungarumlaut" unicode="&#x171;" horiz-adv-x="540" 
d="M133 483h53l-73 -327c-2 -9 -5 -24 -5 -36c0 -60 46 -85 107 -85s123 41 164 85l81 363h52l-107 -483h-52l16 73c-43 -42 -106 -85 -174 -85c-82 0 -141 39 -141 118c0 9 3 30 6 41zM418 700l-147 -144h-39l129 144h57zM557 700l-147 -144h-39l129 144h57z" />
    <glyph glyph-name="Uogonek" unicode="&#x172;" horiz-adv-x="686" 
d="M328 -12c-154 0 -247 84 -247 217c0 21 3 40 5 51l90 411h58l-90 -410c-2 -8 -6 -26 -6 -45c0 -101 69 -172 190 -172c131 0 190 82 220 217l90 410h58l-90 -411c-29 -132 -82 -225 -188 -256c-62 -27 -104 -62 -104 -110c0 -29 18 -43 46 -43c25 0 44 16 59 43l26 -18
c-19 -31 -45 -58 -90 -58c-44 0 -77 24 -77 70c0 42 22 77 58 104h-8z" />
    <glyph glyph-name="uogonek" unicode="&#x173;" horiz-adv-x="540" 
d="M406 -110l26 -18c-19 -31 -45 -58 -90 -58c-44 0 -77 24 -77 70c0 53 35 94 89 123l15 66c-43 -42 -106 -85 -174 -85c-82 0 -141 39 -141 118c0 9 3 30 6 41l73 336h53l-73 -327c-2 -9 -5 -24 -5 -36c0 -60 46 -85 107 -85s123 41 164 85l81 363h52l-107 -483
c-62 -27 -104 -62 -104 -110c0 -29 18 -43 46 -43c25 0 44 16 59 43z" />
    <glyph glyph-name="Wcircumflex" unicode="&#x174;" horiz-adv-x="867" 
d="M604 0h-64l-34 573l-286 -573h-64l-44 667h63l30 -587l294 587h52l34 -587l290 587h66zM666 728h-38l-62 113l-108 -113h-42l129 144h54z" />
    <glyph glyph-name="wcircumflex" unicode="&#x175;" horiz-adv-x="719" 
d="M491 0h-50l-44 413l-227 -413h-50l-50 483h53l38 -410l227 410h44l45 -410l220 410h58zM554 556h-38l-62 113l-108 -113h-42l129 144h54z" />
    <glyph glyph-name="Ycircumflex" unicode="&#x176;" horiz-adv-x="618" 
d="M543 728h-38l-62 113l-108 -113h-42l129 144h54zM284 0h-58l64 285l-182 382h64l153 -328l297 328h74l-349 -382z" />
    <glyph glyph-name="ycircumflex" unicode="&#x177;" horiz-adv-x="481" 
d="M-46 -186l20 50c10 -5 28 -9 47 -9c26 0 47 12 76 55l58 87l-95 486h56l81 -422l269 422h61l-381 -589c-38 -60 -80 -90 -135 -90c-20 0 -41 4 -57 10zM435 556h-38l-62 113l-108 -113h-42l129 144h54z" />
    <glyph glyph-name="Zacute" unicode="&#x179;" horiz-adv-x="581" 
d="M477 0h-481l11 50l522 565h-396l10 52h474l-10 -49l-523 -566h404zM585 872l-204 -144h-45l186 144h63z" />
    <glyph glyph-name="zacute" unicode="&#x17a;" horiz-adv-x="469" 
d="M359 0h-357l9 43l370 394h-282l10 46h353l-9 -42l-373 -395h288zM491 700l-204 -144h-45l186 144h63z" />
    <glyph glyph-name="Zdotaccent" unicode="&#x17b;" horiz-adv-x="581" 
d="M477 0h-481l11 50l522 565h-396l10 52h474l-10 -49l-523 -566h404zM444 774c0 -23 -20 -42 -43 -42c-19 0 -34 14 -34 34c0 22 20 42 43 42c19 0 34 -15 34 -34z" />
    <glyph glyph-name="zdotaccent" unicode="&#x17c;" horiz-adv-x="469" 
d="M359 0h-357l9 43l370 394h-282l10 46h353l-9 -42l-373 -395h288zM356 624c0 -23 -20 -42 -43 -42c-19 0 -34 14 -34 34c0 22 20 42 43 42c19 0 34 -15 34 -34z" />
    <glyph glyph-name="longs" unicode="&#x17f;" horiz-adv-x="265" 
d="M97 0h-53l97 437h-80l10 46h80l9 44c18 90 66 150 150 150c40 0 69 -10 96 -37l-32 -37c-14 16 -33 27 -63 27c-56 0 -84 -38 -98 -103z" />
    <glyph glyph-name="AEacute" unicode="&#x1fc;" horiz-adv-x="939" 
d="M825 0h-423l36 164h-271l-138 -164h-69l568 667h444l-11 -52h-365l-55 -247h358l-11 -52h-359l-58 -264h365zM450 216l85 385l-327 -385h242zM779 872l-204 -144h-45l186 144h63z" />
    <glyph glyph-name="aeacute" unicode="&#x1fd;" horiz-adv-x="947" 
d="M664 -12c-111 0 -178 60 -199 144l-29 -132h-53l16 73c-39 -51 -97 -85 -165 -85c-111 0 -189 74 -189 198c0 163 101 309 253 309c80 0 142 -39 174 -94l18 82h53l-20 -91c46 62 112 103 186 103c127 0 190 -89 190 -207c0 -22 -4 -51 -7 -63h-403c-1 -6 -2 -19 -2 -28
c0 -89 59 -164 177 -164c49 0 99 18 141 52l20 -38c-43 -33 -101 -59 -161 -59zM303 448c-121 0 -201 -125 -201 -252c0 -99 58 -161 146 -161c68 0 130 43 164 93l51 232c-24 48 -82 88 -160 88zM848 266c1 5 2 16 2 22c0 94 -52 162 -156 162c-97 0 -183 -85 -200 -184
h354zM687 700l-204 -144h-45l186 144h63z" />
    <glyph glyph-name="Oslashacute" unicode="&#x1fe;" horiz-adv-x="764" 
d="M678 872l-204 -144h-45l186 144h63zM367 -12c-72 0 -138 19 -189 56l-38 -44h-51l59 69c-50 49 -81 119 -81 208c0 226 167 401 370 401c70 0 134 -19 185 -54l37 43h52l-58 -68c51 -49 83 -120 83 -210c0 -225 -166 -401 -369 -401zM370 40c161 0 304 145 304 347
c0 71 -23 126 -60 166l-399 -465c42 -32 96 -48 155 -48zM129 279c0 -70 21 -125 57 -165l398 466c-42 30 -95 46 -152 46c-162 0 -303 -145 -303 -347z" />
    <glyph glyph-name="oslashacute" unicode="&#x1ff;" horiz-adv-x="571" 
d="M543 700l-204 -144h-45l186 144h63zM65 0h-46l66 66c-26 35 -40 81 -40 134c0 153 113 295 266 295c60 0 110 -18 147 -51l38 39h46l-61 -62c28 -36 43 -83 43 -138c0 -153 -113 -295 -266 -295c-63 0 -115 19 -152 54zM259 35c121 0 208 121 208 246c0 39 -9 73 -26 100
l-297 -301c27 -29 66 -45 115 -45zM102 202c0 -37 7 -70 22 -96l297 301c-27 26 -65 41 -111 41c-121 0 -208 -121 -208 -246z" />
    <glyph glyph-name="Scommaaccent" unicode="&#x218;" horiz-adv-x="584" 
d="M281 -12c-114 0 -214 51 -255 117l42 41c46 -65 123 -106 218 -106c119 0 168 80 168 145c0 147 -333 121 -333 307c0 101 98 186 225 186c102 0 189 -42 230 -104l-43 -40c-42 63 -117 92 -192 92c-89 0 -158 -62 -158 -128c0 -134 334 -116 334 -306
c0 -100 -81 -204 -236 -204zM254 -122c0 -53 -47 -111 -96 -137l-22 24c36 19 66 51 74 81h-7c-16 0 -31 15 -31 33c0 24 21 43 43 43s39 -15 39 -44z" />
    <glyph glyph-name="scommaaccent" unicode="&#x219;" horiz-adv-x="461" 
d="M202 -12c-87 0 -154 29 -194 85l37 36c25 -40 84 -77 158 -77c80 0 128 48 128 100c0 103 -258 90 -258 220c0 78 64 143 176 143c83 0 149 -37 176 -79l-34 -34c-21 38 -82 69 -146 69c-73 0 -119 -38 -119 -87c0 -98 258 -83 258 -221c0 -80 -65 -155 -182 -155z
M197 -122c0 -53 -47 -111 -96 -137l-22 24c36 19 66 51 74 81h-7c-16 0 -31 15 -31 33c0 24 21 43 43 43s39 -15 39 -44z" />
    <glyph glyph-name="hsuperior" unicode="&#x2b0;" horiz-adv-x="393" 
d="M392 326h-43l46 207c1 5 2 15 2 20c0 39 -26 59 -71 59c-41 0 -78 -28 -104 -54l-51 -232h-42l96 434h42l-36 -167c27 29 70 55 115 55c61 0 97 -28 97 -78c0 -6 -2 -22 -4 -32z" />
    <glyph glyph-name="hsuperior" unicode="&#xf637;" horiz-adv-x="393" 
d="M392 326h-43l46 207c1 5 2 15 2 20c0 39 -26 59 -71 59c-41 0 -78 -28 -104 -54l-51 -232h-42l96 434h42l-36 -167c27 29 70 55 115 55c61 0 97 -28 97 -78c0 -6 -2 -22 -4 -32z" />
    <glyph glyph-name="frenchfranc" unicode="&#x20a3;" horiz-adv-x="553" 
d="M97 0h-57l33 149h-83l8 37h83l106 481h423l-11 -52h-366l-54 -247h358l-12 -52h-358l-29 -130h222l-8 -37h-222z" />
    <glyph glyph-name="lira" unicode="&#x20a4;" horiz-adv-x="504" 
d="M36 325l9 39h85c-17 28 -32 58 -32 98c0 110 103 215 235 215c87 0 173 -46 193 -113l-53 -24c-13 50 -70 87 -138 87c-92 0 -175 -64 -175 -167c0 -40 14 -69 31 -96h192l-8 -39h-160c13 -22 23 -46 23 -77h119l-8 -38h-117c-17 -58 -69 -109 -111 -135c17 5 29 8 48 8
c67 0 107 -44 167 -44c41 0 73 19 96 41l16 -47c-32 -27 -69 -47 -114 -47c-91 0 -116 47 -205 47c-34 0 -75 -16 -116 -40l-12 48c87 34 161 100 178 169h-168l8 38h164c-2 29 -14 54 -28 77h-119z" />
    <glyph glyph-name="uni20A6" unicode="&#x20a6;" horiz-adv-x="722" 
d="M573 0h-56l-125 246h-241l-54 -246h-57l54 246h-83l9 38h82l24 107h-82l7 37h83l53 239h58l122 -239h242l54 239h57l-53 -239h81l-7 -37h-82l-24 -107h82l-9 -38h-81zM386 391l54 -107h137l24 107h-215zM183 391l-23 -107h213l-54 107h-136zM225 578l-34 -150h110z
M460 246l76 -149l33 149h-109z" />
    <glyph glyph-name="peseta" unicode="&#x20a7;" horiz-adv-x="624" 
d="M97 0h-57l99 452h-82l9 40h82l39 175h239c98 0 170 -78 170 -167v-8h77l-9 -40h-73c-19 -89 -92 -175 -242 -175h-190zM355 329c99 0 158 54 175 123h-333l-27 -123h185zM233 615l-27 -123h329v4c0 63 -52 119 -123 119h-179z" />
    <glyph glyph-name="rupee" unicode="&#x20a8;" horiz-adv-x="996" 
d="M489 0h-65l-126 276h-151l-61 -276h-57l147 667h229c90 0 181 -61 181 -168c0 -124 -90 -216 -228 -220zM343 328h2c117 0 179 78 179 168c0 70 -62 119 -125 119h-177l-63 -287h184zM738 -12c-87 0 -154 29 -194 85l37 36c25 -40 84 -77 158 -77c80 0 128 48 128 100
c0 103 -258 90 -258 220c0 78 64 143 176 143c83 0 149 -37 176 -79l-34 -34c-21 38 -82 69 -146 69c-73 0 -119 -38 -119 -87c0 -98 258 -83 258 -221c0 -80 -65 -155 -182 -155z" />
    <glyph glyph-name="uni20A9" unicode="&#x20a9;" horiz-adv-x="867" 
d="M604 0h-64l-15 246h-182l-123 -246h-64l-16 246h-116l8 38h105l-7 107h-74l8 37h64l-16 239h63l12 -239h192l120 239h52l14 -239h192l118 239h66l-121 -239h61l-7 -37h-73l-54 -107h103l-9 -38h-113zM567 391l6 -107h113l53 107h-172zM189 391l5 -107h113l53 107h-171z
M415 391l-53 -107h161l-7 107h-101zM575 246l10 -166l82 166h-92zM196 246l9 -166l83 166h-92zM506 573l-72 -145h80z" />
    <glyph glyph-name="afii57636" unicode="&#x20aa;" horiz-adv-x="810" 
d="M491 0h-267l87 393h52l-76 -345h207c100 0 152 54 176 164l74 338h53l-76 -340c-30 -136 -89 -210 -230 -210zM148 550h197c110 0 212 -42 212 -166c0 -16 -4 -45 -8 -63l-36 -165h-53l37 167c3 12 6 38 6 49c0 90 -66 130 -151 130h-162l-111 -502h-52z" />
    <glyph glyph-name="afii61289" unicode="&#x2113;" horiz-adv-x="454" 
d="M141 516l-94 -422c-2 -11 -3 -23 -3 -32c0 -48 40 -74 96 -74c28 0 50 8 69 23l-10 41c-11 -10 -32 -19 -51 -19c-35 0 -50 20 -50 43c0 9 1 17 3 25l43 196l202 118c60 35 143 82 143 149s-75 113 -156 113c-105 0 -170 -62 -192 -161zM334 456l-177 -103l35 159
c18 82 72 125 141 125c52 0 104 -30 104 -76c0 -45 -48 -73 -103 -105z" />
    <glyph glyph-name="afii61352" unicode="&#x2116;" horiz-adv-x="1104" 
d="M562 0h-56l-292 578l-128 -578h-57l147 667h58l291 -570l127 570h57zM937 350c-88 0 -145 57 -145 141c0 102 78 189 179 189c88 0 145 -57 145 -141c0 -102 -78 -189 -179 -189zM938 387c81 0 134 73 134 152c0 61 -41 103 -101 103c-81 0 -134 -72 -134 -151
c0 -61 40 -104 101 -104z" />
    <glyph glyph-name="published" unicode="&#x2117;" horiz-adv-x="778" 
d="M754 334c0 -190 -156 -345 -346 -345s-344 155 -344 345s154 345 344 345s346 -155 346 -345zM726 334c0 174 -144 317 -318 317s-316 -143 -316 -317s142 -317 316 -317s318 143 318 317zM589 434c0 -75 -62 -127 -143 -127h-123l-38 -176h-33l89 405h128
c69 0 120 -40 120 -102zM556 432c0 45 -38 72 -92 72h-97l-36 -165h121c63 0 104 38 104 93z" />
    <glyph glyph-name="servicemark" unicode="&#x2120;" horiz-adv-x="476" 
d="M484 447h-28l40 182l-115 -182h-8l-35 182l-40 -182h-28l48 220h42l29 -160l99 160h44zM247 511c0 -42 -33 -72 -85 -72c-47 0 -80 16 -96 40l22 19c12 -17 38 -33 72 -33c33 0 52 17 52 40c0 46 -114 41 -114 100c0 39 35 68 84 68c39 0 73 -15 86 -35l-23 -17
c-14 20 -40 28 -65 28c-30 0 -48 -18 -48 -37c0 -45 115 -36 115 -101z" />
    <glyph glyph-name="estimated" unicode="&#x212e;" horiz-adv-x="842" 
d="M829 324h-632c-3 0 -4 -2 -4 -5v-190c0 -9 2 -17 9 -23c60 -63 146 -103 240 -103c101 0 189 44 250 115h57c-71 -83 -183 -136 -309 -136c-215 0 -390 157 -390 351s175 351 390 351s390 -157 390 -351zM687 349v191c0 9 -4 18 -10 24c-60 61 -144 99 -236 99
c-94 0 -178 -40 -238 -102c-6 -6 -10 -15 -10 -24v-188c0 -3 2 -6 5 -6h485c3 0 4 3 4 6z" />
    <glyph glyph-name="arrowleft" unicode="&#x2190;" horiz-adv-x="582" 
d="M558 211h-269l12 -130l-281 205l281 204l-12 -129h269v-150z" />
    <glyph glyph-name="arrowup" unicode="&#x2191;" horiz-adv-x="582" 
d="M236 17v269l-130 -12l205 281l204 -281l-129 12v-269h-150z" />
    <glyph glyph-name="arrowright" unicode="&#x2192;" horiz-adv-x="582" 
d="M604 286l-281 -205l12 130h-268v150h268l-12 129z" />
    <glyph glyph-name="arrowdown" unicode="&#x2193;" horiz-adv-x="582" 
d="M386 555v-269l130 12l-205 -281l-204 281l129 -12v269h150z" />
    <glyph glyph-name="triangleright" unicode="&#x22b2;" horiz-adv-x="587" 
d="M609 286l-535 -309v618z" />
    <glyph glyph-name="triangleleft" unicode="&#x22b3;" horiz-adv-x="587" 
d="M555 595v-618l-535 309z" />
    <glyph glyph-name="blacksquare" unicode="&#x25a0;" horiz-adv-x="661" 
d="M638 0h-571v572h571v-572z" />
    <glyph glyph-name="triagup" unicode="&#x25b2;" horiz-adv-x="616" 
d="M637 29l-619 1l309 535z" />
    <glyph glyph-name="triagdn" unicode="&#x25bc;" horiz-adv-x="616" 
d="M637 510l-310 -535l-309 535h619z" />
    <glyph glyph-name="circlesolid" unicode="&#x25cf;" horiz-adv-x="695" 
d="M664 285c0 -164 -133 -297 -297 -297s-297 133 -297 297s133 297 297 297s297 -133 297 -297z" />
    <glyph glyph-name="blackstar" unicode="&#x2605;" horiz-adv-x="759" 
d="M779 421l-235 -171l90 -275l-235 170l-234 -170l89 275l-234 171h290l89 276l90 -276h290z" />
    <glyph glyph-name="ballotbox" unicode="&#x2610;" horiz-adv-x="661" 
d="M636 0h-571v572h571v-572zM592 41v490h-483v-490h483z" />
    <glyph glyph-name="boxchecked" unicode="&#x2611;" horiz-adv-x="661" 
d="M711 698l-69 -126h14v-572h-571v572h509l81 150zM612 41v474l-230 -424l-202 246l33 31l163 -201l196 364h-443v-490h483z" />
    <glyph glyph-name="diamond" unicode="&#x2666;" horiz-adv-x="501" 
d="M521 285l-251 -250l-250 250l250 251z" />
    <glyph glyph-name="checkmark" unicode="&#x2713;" horiz-adv-x="531" 
d="M551 698l-329 -607l-202 246l33 31l163 -201l299 555z" />
    <glyph glyph-name="perthousand.onum" unicode="&#xf628;" horiz-adv-x="867" 
d="M328 445c0 -81 -62 -155 -147 -155c-71 0 -118 45 -118 116c0 81 62 156 147 156c70 0 118 -46 118 -117zM573 550l-505 -550h-45l504 550h46zM286 443c0 46 -27 85 -77 85c-60 0 -105 -59 -105 -121c0 -45 28 -83 78 -83c60 0 104 58 104 119zM532 143
c0 -81 -62 -155 -147 -155c-70 0 -118 45 -118 117c0 81 62 156 147 156c70 0 118 -46 118 -118zM490 142c0 45 -26 84 -77 84c-60 0 -105 -59 -105 -120c0 -45 28 -83 78 -83c60 0 104 58 104 119zM816 143c0 -81 -62 -155 -147 -155c-70 0 -117 45 -117 117
c0 81 61 156 146 156c70 0 118 -46 118 -118zM775 142c0 45 -27 84 -78 84c-60 0 -104 -59 -104 -120c0 -45 27 -83 78 -83c59 0 104 58 104 119z" />
    <glyph glyph-name="zero.tzero" unicode="&#xf638;" horiz-adv-x="604" 
d="M274 -12c-69 0 -121 25 -156 68l-47 -56h-54l77 93c-21 41 -31 92 -31 151c0 194 114 433 308 433c67 0 119 -24 153 -66l47 56h54l-77 -93c21 -41 31 -93 31 -152c0 -194 -112 -434 -305 -434zM278 40c150 0 242 219 242 386c0 36 -5 69 -14 98l-351 -422
c25 -39 64 -62 123 -62zM123 240c0 -35 4 -68 13 -96l350 421c-24 37 -64 60 -121 60c-150 0 -242 -218 -242 -385z" />
    <glyph glyph-name="zero.tnum" unicode="&#xf639;" horiz-adv-x="588" 
d="M266 -12c-139 0 -211 102 -211 256c0 194 114 433 308 433c139 0 208 -101 208 -255c0 -194 -112 -434 -305 -434zM270 40c150 0 242 219 242 386c0 113 -43 199 -155 199c-150 0 -242 -218 -242 -385c0 -113 43 -200 155 -200z" />
    <glyph glyph-name="two.tnum" unicode="&#xf63a;" horiz-adv-x="588" 
d="M455 0h-440l14 60c262 167 476 310 476 449c0 73 -64 116 -154 116c-76 0 -133 -27 -173 -67l-31 40c47 47 125 79 206 79c109 0 213 -52 213 -166c0 -160 -220 -312 -451 -459h351z" />
    <glyph glyph-name="three.tnum" unicode="&#xf63b;" horiz-adv-x="588" 
d="M276 -12c-109 0 -209 57 -240 139l46 30c30 -72 107 -117 193 -117c109 0 176 68 176 160c0 70 -63 118 -159 118c-27 0 -46 -1 -57 -2l13 54c9 -1 62 -1 89 -1c89 0 173 45 173 137c0 66 -63 119 -162 119c-57 0 -117 -19 -171 -70l-28 40c50 51 127 82 202 82
c124 0 217 -59 217 -166c0 -106 -96 -167 -181 -173c64 -15 121 -64 121 -141c0 -113 -93 -209 -232 -209z" />
    <glyph glyph-name="four.tnum" unicode="&#xf63c;" horiz-adv-x="588" 
d="M376 0h-57l40 182h-316l13 55l386 430h81l-96 -433h98l-11 -52h-98zM370 234l83 376l-340 -376h257z" />
    <glyph glyph-name="five.tnum" unicode="&#xf63d;" horiz-adv-x="588" 
d="M274 -12c-114 0 -187 45 -229 135l46 33c35 -80 99 -116 188 -116c100 0 184 79 184 182c0 92 -69 142 -161 142c-55 0 -100 -17 -146 -50l-38 22l73 331h385l-11 -52h-328l-55 -247c30 23 82 46 143 46c104 0 198 -64 198 -187c0 -128 -102 -239 -249 -239z" />
    <glyph glyph-name="six.tnum" unicode="&#xf63e;" horiz-adv-x="588" 
d="M281 -12c-138 0 -214 87 -214 240c0 176 94 449 316 449c91 0 158 -39 192 -104l-43 -37c-25 56 -79 89 -152 89c-144 0 -214 -154 -244 -287c-3 -9 -4 -15 -5 -19c36 41 116 93 200 93c117 0 199 -65 199 -173c0 -133 -106 -251 -249 -251zM283 40c109 0 187 92 187 191
c0 81 -63 131 -157 131c-72 0 -137 -38 -189 -96c-1 -9 -2 -40 -2 -53c0 -101 56 -173 161 -173z" />
    <glyph glyph-name="seven.tnum" unicode="&#xf63f;" horiz-adv-x="588" 
d="M176 0h-66l414 615h-366l11 52h437l-9 -40z" />
    <glyph glyph-name="eight.tnum" unicode="&#xf640;" horiz-adv-x="588" 
d="M274 -12c-129 0 -229 58 -229 167c0 104 87 174 209 196c-58 22 -122 70 -122 143c0 125 120 183 225 183c113 0 215 -59 215 -161c0 -100 -83 -162 -196 -178c55 -23 131 -74 131 -160c0 -110 -105 -190 -233 -190zM321 368c109 9 190 57 190 142c0 65 -70 114 -156 114
s-165 -48 -165 -133c0 -63 76 -110 131 -123zM275 40c85 0 174 52 174 142c0 73 -82 122 -139 137c-116 -8 -204 -68 -204 -154c0 -82 78 -125 169 -125z" />
    <glyph glyph-name="nine.tnum" unicode="&#xf641;" horiz-adv-x="588" 
d="M345 678c138 0 214 -87 214 -240c0 -176 -93 -449 -316 -449c-91 0 -157 39 -191 104l42 37c25 -56 79 -89 153 -89c143 0 213 154 244 287c2 9 4 15 4 19c-36 -41 -116 -93 -200 -93c-117 0 -199 65 -199 173c0 133 107 251 249 251zM343 626c-108 0 -187 -92 -187 -191
c0 -81 63 -131 157 -131c72 0 138 38 189 96c1 9 2 40 2 53c0 101 -55 173 -161 173z" />
    <glyph glyph-name="percent.onum" unicode="&#xf642;" horiz-adv-x="582" 
d="M328 445c0 -81 -62 -155 -147 -155c-71 0 -118 45 -118 116c0 81 62 156 147 156c70 0 118 -46 118 -117zM573 550l-505 -550h-45l504 550h46zM286 443c0 46 -27 85 -77 85c-60 0 -105 -59 -105 -121c0 -45 28 -83 78 -83c60 0 104 58 104 119zM532 143
c0 -81 -62 -155 -147 -155c-70 0 -118 45 -118 117c0 81 62 156 147 156c70 0 118 -46 118 -118zM490 142c0 45 -26 84 -77 84c-60 0 -105 -59 -105 -120c0 -45 28 -83 78 -83c60 0 104 58 104 119z" />
    <glyph glyph-name="zero.tonum" unicode="&#xf643;" horiz-adv-x="588" 
d="M554 328c0 -135 -94 -340 -280 -340c-152 0 -228 92 -228 234c0 135 94 340 281 340c151 0 227 -92 227 -234zM494 325c0 117 -54 185 -168 185c-150 0 -220 -178 -220 -285c0 -117 55 -185 168 -185c151 0 220 178 220 285z" />
    <glyph glyph-name="one.tonum" unicode="&#xf644;" horiz-adv-x="588" 
d="M318 0h-57l103 472l-131 -114l-27 37l181 155h52z" />
    <glyph glyph-name="two.tonum" unicode="&#xf645;" horiz-adv-x="588" 
d="M442 0h-415l10 50c266 105 442 211 442 337c0 74 -65 123 -150 123c-75 0 -135 -25 -190 -78l-30 39c60 60 136 91 224 91c114 0 206 -59 206 -167c0 -148 -189 -264 -387 -343h301z" />
    <glyph glyph-name="three.tonum" unicode="&#xf646;" horiz-adv-x="588" 
d="M250 -138c-109 0 -209 57 -240 139l46 30c30 -72 107 -117 193 -117c109 0 176 68 176 160c0 70 -63 118 -159 118c-27 0 -46 -1 -57 -2l13 54c9 -1 62 -1 89 -1c89 0 173 45 173 137c0 66 -63 119 -162 119c-57 0 -117 -19 -171 -70l-28 40c50 51 127 82 202 82
c124 0 217 -59 217 -166c0 -106 -96 -167 -181 -173c64 -15 121 -64 121 -141c0 -113 -93 -209 -232 -209z" />
    <glyph glyph-name="four.tonum" unicode="&#xf647;" horiz-adv-x="588" 
d="M488 66h-97l-41 -183h-57l40 183h-316l12 52l391 432h77l-95 -432h97zM344 118l83 375l-340 -375h257z" />
    <glyph glyph-name="five.tonum" unicode="&#xf648;" horiz-adv-x="588" 
d="M248 -129c-114 0 -187 45 -229 135l46 33c35 -80 99 -116 188 -116c100 0 184 79 184 182c0 92 -69 142 -161 142c-55 0 -100 -17 -146 -50l-38 22l73 331h385l-11 -52h-328l-55 -247c30 23 82 46 143 46c104 0 198 -64 198 -187c0 -128 -102 -239 -249 -239z" />
    <glyph glyph-name="six.tonum" unicode="&#xf649;" horiz-adv-x="588" 
d="M281 -12c-138 0 -214 87 -214 240c0 176 94 449 316 449c91 0 158 -39 192 -104l-43 -37c-25 56 -79 89 -152 89c-144 0 -214 -154 -244 -287c-3 -9 -4 -15 -5 -19c36 41 116 93 200 93c117 0 199 -65 199 -173c0 -133 -106 -251 -249 -251zM283 40c109 0 187 92 187 191
c0 81 -63 131 -157 131c-72 0 -137 -38 -189 -96c-1 -9 -2 -40 -2 -53c0 -101 56 -173 161 -173z" />
    <glyph glyph-name="seven.tonum" unicode="&#xf64a;" horiz-adv-x="588" 
d="M150 -117h-66l414 615h-366l11 52h437l-9 -40z" />
    <glyph glyph-name="eight.tonum" unicode="&#xf64b;" horiz-adv-x="588" 
d="M274 -12c-129 0 -229 58 -229 167c0 104 87 174 209 196c-58 22 -122 70 -122 143c0 125 120 183 225 183c113 0 215 -59 215 -161c0 -100 -83 -162 -196 -178c55 -23 131 -74 131 -160c0 -110 -105 -190 -233 -190zM321 368c109 9 190 57 190 142c0 65 -70 114 -156 114
s-165 -48 -165 -133c0 -63 76 -110 131 -123zM275 40c85 0 174 52 174 142c0 73 -82 122 -139 137c-116 -8 -204 -68 -204 -154c0 -82 78 -125 169 -125z" />
    <glyph glyph-name="nine.tonum" unicode="&#xf64c;" horiz-adv-x="588" 
d="M319 561c138 0 214 -87 214 -240c0 -176 -93 -449 -316 -449c-91 0 -157 39 -191 104l42 37c25 -56 79 -89 153 -89c143 0 213 154 244 287c2 9 4 15 4 19c-36 -41 -116 -93 -200 -93c-117 0 -199 65 -199 173c0 133 107 251 249 251zM317 509c-108 0 -187 -92 -187 -191
c0 -81 63 -131 157 -131c72 0 138 38 189 96c1 9 2 40 2 53c0 101 -55 173 -161 173z" />
    <glyph glyph-name="colonmonetary.onum" unicode="&#xf64d;" horiz-adv-x="581" 
d="M184 -53l32 58c-20 7 -39 16 -55 26l-47 -84h-37l58 104c-51 43 -81 107 -81 186c0 177 150 325 324 325c14 0 27 -1 40 -3l23 40h36l-26 -47c20 -6 39 -13 56 -23l39 70h38l-49 -88c22 -17 41 -38 56 -61l-47 -24c-9 15 -21 28 -35 39l-236 -424c16 -3 32 -4 50 -4
c64 0 123 23 170 71l38 -31c-60 -58 -128 -89 -209 -89c-26 0 -51 3 -75 8l-27 -49h-36zM111 240c0 -57 19 -104 52 -139l229 411c-5 1 -10 1 -15 1c-138 0 -266 -119 -266 -273zM187 79c16 -12 35 -22 54 -29l241 434c-17 10 -36 18 -56 23z" />
    <glyph glyph-name="Euro.onum" unicode="&#xf64e;" horiz-adv-x="610" 
d="M431 318h-280c-7 -25 -11 -51 -11 -78v-9h272l-8 -37h-260c20 -96 102 -157 208 -157c64 0 123 23 170 71l38 -31c-60 -58 -128 -89 -209 -89c-141 0 -246 79 -265 206h-62l7 37h52v6c0 28 3 55 10 81h-42l8 38h47c49 119 168 206 301 206c91 0 172 -44 213 -112l-47 -24
c-33 53 -99 87 -167 87c-101 0 -196 -63 -240 -157h274z" />
    <glyph glyph-name="florin.onum" unicode="&#xf64f;" horiz-adv-x="354" 
d="M30 -119h-58l76 340h-54v41h62l34 150c21 96 64 149 141 149c29 0 54 -6 79 -30l-28 -41c-10 13 -26 19 -45 19c-52 0 -76 -43 -89 -102l-33 -145h117v-41h-126z" />
    <glyph glyph-name="numbersign.onum" unicode="&#xf650;" horiz-adv-x="488" 
d="M496 390l-19 -37h-92l-84 -152h93l-21 -39h-94l-90 -162h-45l90 162h-96l-89 -162h-45l89 162h-88l21 39h90l84 152h-90l19 37h91l90 160h45l-90 -160h95l91 160h45l-91 -160h91zM339 353h-94l-85 -152h96z" />
    <glyph glyph-name="sterling.onum" unicode="&#xf651;" horiz-adv-x="415" 
d="M9 223l9 39h89c-18 34 -37 70 -37 115c0 104 84 184 189 184c71 0 143 -38 164 -102l-47 -19c-14 53 -65 79 -115 79c-74 0 -137 -56 -137 -133c0 -49 23 -86 40 -124h134l-9 -39h-110c3 -11 4 -21 4 -32c0 -50 -44 -106 -83 -128c7 2 14 3 23 3c57 0 96 -31 141 -31
c33 0 59 15 76 32l18 -40c-22 -21 -50 -39 -99 -39c-74 0 -96 35 -167 35c-26 0 -57 -12 -92 -32l-11 44c86 33 143 94 143 150c0 13 -3 25 -7 38h-116z" />
    <glyph glyph-name="yen.onum" unicode="&#xf652;" horiz-adv-x="539" 
d="M245 0h-55l25 116h-221l8 38h222l18 80h-222l9 39h193l-143 277h64l135 -266l249 266h67l-262 -277h189l-9 -39h-216l-18 -80h216l-8 -38h-216z" />
    <glyph glyph-name="cent.onum" unicode="&#xf654;" horiz-adv-x="581" 
d="M322 -12h-15l-19 -84h-43l19 89c-125 20 -210 111 -210 244c0 177 150 325 324 325h13l12 55h44l-14 -61c68 -14 125 -52 158 -106l-47 -24c-26 41 -71 70 -122 82l-104 -471h5c64 0 123 23 170 71l38 -31c-60 -58 -128 -89 -209 -89zM111 240c0 -106 67 -180 164 -199
l105 472h-3c-138 0 -266 -119 -266 -273z" />
    <glyph glyph-name="zero.dnom" unicode="&#xf655;" 
d="M345 251c0 -87 -49 -258 -191 -258c-90 0 -136 64 -136 155c0 87 49 258 191 258c90 0 136 -63 136 -155zM299 252c0 73 -28 116 -91 116c-109 0 -144 -144 -144 -221c0 -73 28 -116 91 -116c109 0 144 144 144 221z" />
    <glyph glyph-name="one.dnom" unicode="&#xf656;" horiz-adv-x="214" 
d="M100 0h-46l74 337l-77 -66l-22 30l119 99h40z" />
    <glyph glyph-name="two.dnom" unicode="&#xf657;" 
d="M279 0h-281l9 39c167 101 290 177 290 260c0 48 -46 69 -91 69c-47 0 -86 -17 -113 -47l-22 30c33 35 81 55 135 55c63 0 137 -28 137 -105c0 -97 -130 -179 -269 -263h213z" />
    <glyph glyph-name="three.dnom" unicode="&#xf658;" 
d="M306 115c0 -59 -53 -122 -143 -122c-70 0 -125 26 -152 72l32 25c25 -39 68 -59 119 -59c61 0 98 40 98 90c0 39 -43 67 -104 67c-10 0 -21 0 -28 -1l8 38c15 -1 41 -2 59 -2c59 0 100 29 100 77c0 43 -46 68 -98 68c-42 0 -75 -14 -109 -44l-20 29c31 28 80 53 131 53
c74 0 141 -32 141 -100c0 -62 -49 -100 -111 -105c38 -7 77 -39 77 -86z" />
    <glyph glyph-name="four.dnom" unicode="&#xf659;" 
d="M313 107h-60l-24 -107h-44l23 107h-196l8 35l236 258h61l-57 -256h60zM216 144l47 211l-196 -211h149z" />
    <glyph glyph-name="five.dnom" unicode="&#xf65a;" 
d="M311 142c0 -85 -66 -149 -155 -149c-70 0 -121 29 -144 73l33 25c22 -37 58 -60 111 -60c64 0 109 45 109 105c0 53 -43 79 -93 79c-36 0 -65 -12 -94 -39l-31 14l47 210h248l-8 -38h-203l-32 -145c24 21 53 34 90 34c63 0 122 -40 122 -109z" />
    <glyph glyph-name="six.dnom" unicode="&#xf65b;" 
d="M317 142c0 -75 -53 -149 -152 -149c-96 0 -142 60 -142 143c0 142 82 270 197 270c53 0 102 -19 124 -50l-29 -31c-16 26 -50 43 -96 43c-100 0 -148 -136 -148 -178v-4c23 27 66 65 121 65c67 0 125 -36 125 -109zM271 136c0 51 -39 78 -95 78c-42 0 -77 -26 -108 -64
c-2 -5 -2 -14 -2 -22c0 -60 40 -97 98 -97c69 0 107 53 107 105z" />
    <glyph glyph-name="seven.dnom" unicode="&#xf65c;" horiz-adv-x="359" 
d="M342 369l-255 -369h-50l252 362h-228l8 38h280z" />
    <glyph glyph-name="eight.dnom" unicode="&#xf65d;" 
d="M307 106c0 -65 -63 -113 -148 -113c-81 0 -147 38 -147 105c0 57 54 104 129 112c-40 15 -78 42 -78 86c0 74 73 110 140 110c66 0 141 -31 141 -97c0 -53 -37 -98 -119 -108c41 -15 82 -47 82 -95zM299 300c0 48 -43 69 -96 69c-51 0 -96 -28 -96 -75
c0 -45 59 -68 81 -73c45 3 111 23 111 79zM262 108c0 36 -34 66 -82 81c-75 -5 -123 -40 -123 -88c0 -43 48 -72 100 -72c54 0 105 32 105 79z" />
    <glyph glyph-name="nine.dnom" unicode="&#xf65e;" 
d="M47 258c0 75 54 149 153 149c96 0 141 -60 141 -143c0 -142 -82 -270 -196 -270c-54 0 -102 19 -125 50l30 31c16 -26 50 -43 95 -43c100 0 148 136 148 178v4c-23 -27 -66 -65 -121 -65c-67 0 -125 36 -125 109zM93 264c0 -51 40 -78 96 -78c41 0 76 26 107 64
c2 5 2 14 2 22c0 60 -39 97 -98 97c-68 0 -107 -53 -107 -105z" />
    <glyph glyph-name="zero.numr" unicode="&#xf661;" 
d="M404 518c0 -87 -49 -258 -191 -258c-90 0 -136 64 -136 155c0 87 49 258 191 258c90 0 136 -63 136 -155zM358 519c0 73 -28 116 -91 116c-109 0 -144 -144 -144 -221c0 -73 28 -116 91 -116c109 0 144 144 144 221z" />
    <glyph glyph-name="one.numr" unicode="&#xf662;" horiz-adv-x="214" 
d="M159 267h-46l74 337l-77 -66l-22 30l119 99h40z" />
    <glyph glyph-name="two.numr" unicode="&#xf663;" 
d="M338 267h-281l9 39c167 101 290 177 290 260c0 48 -46 69 -91 69c-47 0 -86 -17 -113 -47l-22 30c33 35 81 55 135 55c63 0 137 -28 137 -105c0 -97 -130 -179 -269 -263h213z" />
    <glyph glyph-name="three.numr" unicode="&#xf664;" 
d="M365 382c0 -59 -53 -122 -143 -122c-70 0 -125 26 -152 72l32 25c25 -39 68 -59 119 -59c61 0 98 40 98 90c0 39 -43 67 -104 67c-10 0 -21 0 -28 -1l8 38c15 -1 41 -2 59 -2c59 0 100 29 100 77c0 43 -46 68 -98 68c-42 0 -75 -14 -109 -44l-20 29c31 28 80 53 131 53
c74 0 141 -32 141 -100c0 -62 -49 -100 -111 -105c38 -7 77 -39 77 -86z" />
    <glyph glyph-name="four.numr" unicode="&#xf665;" 
d="M372 374h-60l-24 -107h-44l23 107h-196l8 35l236 258h61l-57 -256h60zM275 411l47 211l-196 -211h149z" />
    <glyph glyph-name="five.numr" unicode="&#xf666;" 
d="M370 409c0 -85 -66 -149 -155 -149c-70 0 -121 29 -144 73l33 25c22 -37 58 -60 111 -60c64 0 109 45 109 105c0 53 -43 79 -93 79c-36 0 -65 -12 -94 -39l-31 14l47 210h248l-8 -38h-203l-32 -145c24 21 53 34 90 34c63 0 122 -40 122 -109z" />
    <glyph glyph-name="six.numr" unicode="&#xf667;" 
d="M376 409c0 -75 -53 -149 -152 -149c-96 0 -142 60 -142 143c0 142 82 270 197 270c53 0 102 -19 124 -50l-29 -31c-16 26 -50 43 -96 43c-100 0 -148 -136 -148 -178v-4c23 27 66 65 121 65c67 0 125 -36 125 -109zM330 403c0 51 -39 78 -95 78c-42 0 -77 -26 -108 -64
c-2 -5 -2 -14 -2 -22c0 -60 40 -97 98 -97c69 0 107 53 107 105z" />
    <glyph glyph-name="seven.numr" unicode="&#xf668;" horiz-adv-x="359" 
d="M401 636l-255 -369h-50l252 362h-228l8 38h280z" />
    <glyph glyph-name="eight.numr" unicode="&#xf669;" 
d="M366 373c0 -65 -63 -113 -148 -113c-81 0 -147 38 -147 105c0 57 54 104 129 112c-40 15 -78 42 -78 86c0 74 73 110 140 110c66 0 141 -31 141 -97c0 -53 -37 -98 -119 -108c41 -15 82 -47 82 -95zM358 567c0 48 -43 69 -96 69c-51 0 -96 -28 -96 -75
c0 -45 59 -68 81 -73c45 3 111 23 111 79zM321 375c0 36 -34 66 -82 81c-75 -5 -123 -40 -123 -88c0 -43 48 -72 100 -72c54 0 105 32 105 79z" />
    <glyph glyph-name="nine.numr" unicode="&#xf66a;" 
d="M106 525c0 75 54 149 153 149c96 0 141 -60 141 -143c0 -142 -82 -270 -196 -270c-54 0 -102 19 -125 50l30 31c16 -26 50 -43 95 -43c100 0 148 136 148 178v4c-23 -27 -66 -65 -121 -65c-67 0 -125 36 -125 109zM152 531c0 -51 40 -78 96 -78c41 0 76 26 107 64
c2 5 2 14 2 22c0 60 -39 97 -98 97c-68 0 -107 -53 -107 -105z" />
    <glyph glyph-name="Abreve.smcp" unicode="&#xf66d;" horiz-adv-x="562" 
d="M316 550h64l116 -550h-60l-28 133h-300l-85 -133h-65zM400 182l-63 308l-200 -308h263zM556 694c-52 -54 -122 -88 -194 -88c-71 0 -128 34 -157 88l33 25c23 -46 69 -75 130 -75c62 0 120 29 163 75z" />
    <glyph glyph-name="Amacron.smcp" unicode="&#xf66e;" horiz-adv-x="562" 
d="M316 550h64l116 -550h-60l-28 133h-300l-85 -133h-65zM400 182l-63 308l-200 -308h263zM548 630h-362l8 38h362z" />
    <glyph glyph-name="Aogonek.smcp" unicode="&#xf66f;" horiz-adv-x="562" 
d="M316 550h64l116 -550h-1c-62 -27 -104 -62 -104 -110c0 -29 18 -43 46 -43c25 0 44 16 59 43l26 -18c-19 -31 -45 -58 -90 -58c-44 0 -77 24 -77 70c0 50 31 90 80 118l-27 131h-300l-85 -133h-65zM400 182l-63 308l-200 -308h263z" />
    <glyph glyph-name="AEacute.smcp" unicode="&#xf670;" horiz-adv-x="811" 
d="M680 750l-204 -144h-45l186 144h63zM701 0h-369l30 133h-225l-114 -133h-65l476 550h388l-10 -49h-314l-43 -194h307l-10 -49h-308l-46 -209h314zM372 182l69 308l-266 -308h197z" />
    <glyph glyph-name="Cacute.smcp" unicode="&#xf671;" horiz-adv-x="581" 
d="M322 -12c-156 0 -268 97 -268 249c0 177 150 325 324 325c91 0 172 -44 213 -112l-47 -24c-33 53 -99 87 -167 87c-138 0 -266 -119 -266 -273c0 -122 90 -203 212 -203c64 0 123 23 170 71l38 -31c-60 -58 -128 -89 -209 -89zM613 750l-204 -144h-45l186 144h63z" />
    <glyph glyph-name="Ccaron.smcp" unicode="&#xf672;" horiz-adv-x="581" 
d="M322 -12c-156 0 -268 97 -268 249c0 177 150 325 324 325c91 0 172 -44 213 -112l-47 -24c-33 53 -99 87 -167 87c-138 0 -266 -119 -266 -273c0 -122 90 -203 212 -203c64 0 123 23 170 71l38 -31c-60 -58 -128 -89 -209 -89zM456 606h-54l-68 144h38l61 -113l109 113
h42z" />
    <glyph glyph-name="Ccircumflex.smcp" unicode="&#xf673;" horiz-adv-x="581" 
d="M322 -12c-156 0 -268 97 -268 249c0 177 150 325 324 325c91 0 172 -44 213 -112l-47 -24c-33 53 -99 87 -167 87c-138 0 -266 -119 -266 -273c0 -122 90 -203 212 -203c64 0 123 23 170 71l38 -31c-60 -58 -128 -89 -209 -89zM552 606h-38l-62 113l-108 -113h-42
l129 144h54z" />
    <glyph glyph-name="Cdotaccent.smcp" unicode="&#xf674;" horiz-adv-x="581" 
d="M322 -12c-156 0 -268 97 -268 249c0 177 150 325 324 325c91 0 172 -44 213 -112l-47 -24c-33 53 -99 87 -167 87c-138 0 -266 -119 -266 -273c0 -122 90 -203 212 -203c64 0 123 23 170 71l38 -31c-60 -58 -128 -89 -209 -89zM480 677c0 -23 -20 -42 -43 -42
c-19 0 -34 14 -34 34c0 22 20 42 43 42c19 0 34 -15 34 -34z" />
    <glyph glyph-name="Dcaron.smcp" unicode="&#xf675;" horiz-adv-x="611" 
d="M210 0h-197l121 550h166c155 0 256 -109 256 -238c0 -149 -113 -312 -346 -312zM220 49c181 0 278 133 278 260c0 111 -81 192 -206 192h-114l-100 -452h142zM401 606h-54l-68 144h38l61 -113l109 113h42z" />
    <glyph glyph-name="Dcroat.smcp" unicode="&#xf676;" horiz-adv-x="622" 
d="M222 0h-197l57 260h-68l10 41h67l55 249h166c155 0 256 -109 256 -238c0 -149 -113 -312 -346 -312zM232 49c181 0 278 133 278 260c0 111 -81 192 -206 192h-114l-45 -200h142l-9 -41h-142l-46 -211h142z" />
    <glyph glyph-name="Ebreve.smcp" unicode="&#xf677;" horiz-adv-x="505" 
d="M395 0h-368l121 550h368l-11 -49h-312l-44 -194h308l-11 -49h-308l-46 -209h313zM537 694c-52 -54 -122 -88 -194 -88c-71 0 -128 34 -157 88l33 25c23 -46 69 -75 130 -75c62 0 120 29 163 75z" />
    <glyph glyph-name="Ecaron.smcp" unicode="&#xf678;" horiz-adv-x="505" 
d="M395 0h-368l121 550h368l-11 -49h-312l-44 -194h308l-11 -49h-308l-46 -209h313zM375 606h-54l-68 144h38l61 -113l109 113h42z" />
    <glyph glyph-name="Edotaccent.smcp" unicode="&#xf679;" horiz-adv-x="505" 
d="M395 0h-368l121 550h368l-11 -49h-312l-44 -194h308l-11 -49h-308l-46 -209h313zM403 677c0 -23 -20 -42 -43 -42c-19 0 -34 14 -34 34c0 22 20 42 43 42c19 0 34 -15 34 -34z" />
    <glyph glyph-name="Emacron.smcp" unicode="&#xf67a;" horiz-adv-x="505" 
d="M395 0h-368l121 550h368l-11 -49h-312l-44 -194h308l-11 -49h-308l-46 -209h313zM528 630h-362l8 38h362z" />
    <glyph glyph-name="Eng.smcp" unicode="&#xf67b;" horiz-adv-x="625" 
d="M292 -196c-67 0 -123 23 -153 78l39 35c21 -39 56 -64 111 -64c84 0 126 53 140 124l5 25l-249 469l-103 -471h-55l121 550h56l250 -464l102 464h55l-127 -579c-24 -112 -90 -167 -192 -167z" />
    <glyph glyph-name="Eogonek.smcp" unicode="&#xf67c;" horiz-adv-x="505" 
d="M395 -110l26 -18c-19 -31 -45 -58 -90 -58c-44 0 -77 24 -77 70c0 49 30 87 76 116h-303l121 550h368l-11 -49h-312l-44 -194h308l-11 -49h-308l-46 -209h313l-10 -49h-1c-62 -27 -104 -62 -104 -110c0 -29 18 -43 46 -43c25 0 44 16 59 43z" />
    <glyph glyph-name="Gbreve.smcp" unicode="&#xf67d;" horiz-adv-x="630" 
d="M323 -12c-151 0 -270 96 -270 245c0 172 139 329 326 329c91 0 173 -44 219 -109l-47 -27c-31 46 -100 87 -175 87c-152 0 -265 -132 -265 -277c0 -117 93 -200 213 -200c66 0 117 23 147 44l33 150h-186l10 47h241l-48 -223c-47 -36 -111 -66 -198 -66zM620 694
c-52 -54 -122 -88 -194 -88c-71 0 -128 34 -157 88l33 25c23 -46 69 -75 130 -75c62 0 120 29 163 75z" />
    <glyph glyph-name="Gcircumflex.smcp" unicode="&#xf67e;" horiz-adv-x="630" 
d="M323 -12c-151 0 -270 96 -270 245c0 172 139 329 326 329c91 0 173 -44 219 -109l-47 -27c-31 46 -100 87 -175 87c-152 0 -265 -132 -265 -277c0 -117 93 -200 213 -200c66 0 117 23 147 44l33 150h-186l10 47h241l-48 -223c-47 -36 -111 -66 -198 -66zM550 606h-38
l-62 113l-108 -113h-42l129 144h54z" />
    <glyph glyph-name="Gcommaaccent.smcp" unicode="&#xf67f;" horiz-adv-x="630" 
d="M323 -12c-151 0 -270 96 -270 245c0 172 139 329 326 329c91 0 173 -44 219 -109l-47 -27c-31 46 -100 87 -175 87c-152 0 -265 -132 -265 -277c0 -117 93 -200 213 -200c66 0 117 23 147 44l33 150h-186l10 47h241l-48 -223c-47 -36 -111 -66 -198 -66zM309 -122
c0 -53 -47 -111 -96 -137l-22 24c36 19 66 51 74 81h-7c-16 0 -31 15 -31 33c0 24 21 43 43 43s39 -15 39 -44z" />
    <glyph glyph-name="Gdotaccent.smcp" unicode="&#xf680;" horiz-adv-x="630" 
d="M323 -12c-151 0 -270 96 -270 245c0 172 139 329 326 329c91 0 173 -44 219 -109l-47 -27c-31 46 -100 87 -175 87c-152 0 -265 -132 -265 -277c0 -117 93 -200 213 -200c66 0 117 23 147 44l33 150h-186l10 47h241l-48 -223c-47 -36 -111 -66 -198 -66zM480 677
c0 -23 -20 -42 -43 -42c-19 0 -34 14 -34 34c0 22 20 42 43 42c19 0 34 -15 34 -34z" />
    <glyph glyph-name="Hcircumflex.smcp" unicode="&#xf681;" horiz-adv-x="629" 
d="M494 0h-54l57 259h-358l-57 -259h-55l121 550h55l-54 -243h358l54 243h54zM517 606h-38l-62 113l-108 -113h-42l129 144h54z" />
    <glyph glyph-name="Hbar.smcp" unicode="&#xf682;" horiz-adv-x="650" 
d="M505 0h-54l57 259h-358l-57 -259h-55l90 411h-80l9 38h80l22 101h55l-23 -101h358l23 101h54l-22 -101h78l-8 -38h-79zM160 307h358l23 104h-358z" />
    <glyph glyph-name="Ibreve.smcp" unicode="&#xf683;" horiz-adv-x="215" 
d="M82 0h-55l121 550h55zM379 694c-52 -54 -122 -88 -194 -88c-71 0 -128 34 -157 88l33 25c23 -46 69 -75 130 -75c62 0 120 29 163 75z" />
    <glyph glyph-name="IJ.smcp" unicode="&#xf684;" horiz-adv-x="633" 
d="M82 0h-55l121 550h55zM341 -12c-74 0 -126 29 -153 78l39 35c22 -40 57 -64 111 -64c82 0 124 50 140 123l86 390h55l-86 -392c-26 -117 -90 -170 -192 -170z" />
    <glyph glyph-name="Imacron.smcp" unicode="&#xf685;" horiz-adv-x="215" 
d="M82 0h-55l121 550h55zM375 630h-362l8 38h362z" />
    <glyph glyph-name="Iogonek.smcp" unicode="&#xf686;" horiz-adv-x="215" 
d="M83 -110l26 -18c-19 -31 -45 -58 -90 -58c-44 0 -77 24 -77 70c0 52 34 92 86 121l120 545h55l-121 -550c-62 -27 -104 -62 -104 -110c0 -29 18 -43 46 -43c25 0 44 16 59 43z" />
    <glyph glyph-name="Itilde.smcp" unicode="&#xf687;" horiz-adv-x="215" 
d="M82 0h-55l121 550h55zM256 593c-75 0 -58 102 -117 102c-30 0 -53 -28 -69 -96h-36c15 75 52 134 112 134c75 0 59 -102 117 -102c30 0 53 29 70 96h36c-16 -75 -53 -134 -113 -134z" />
    <glyph glyph-name="Jcircumflex.smcp" unicode="&#xf688;" horiz-adv-x="417" 
d="M125 -12c-74 0 -126 29 -153 78l39 35c22 -40 57 -64 111 -64c82 0 124 50 140 123l86 390h55l-86 -392c-26 -117 -90 -170 -192 -170zM513 606h-38l-62 113l-108 -113h-42l129 144h54z" />
    <glyph glyph-name="Kcommaaccent.smcp" unicode="&#xf689;" horiz-adv-x="521" 
d="M447 0h-68l-180 257l-75 -66l-42 -191h-55l121 550h55l-64 -291l334 291h72l-305 -262zM226 -122c0 -53 -47 -111 -96 -137l-22 24c36 19 66 51 74 81h-7c-16 0 -31 15 -31 33c0 24 21 43 43 43s39 -15 39 -44z" />
    <glyph glyph-name="Lacute.smcp" unicode="&#xf68a;" horiz-adv-x="454" 
d="M359 0h-332l121 550h55l-111 -501h278zM519 750l-204 -144h-45l186 144h63z" />
    <glyph glyph-name="Lcaron.smcp" unicode="&#xf68b;" horiz-adv-x="454" 
d="M359 0h-332l121 550h55l-111 -501h278zM365 516c0 -53 -47 -111 -96 -137l-22 24c36 19 66 51 74 81h-7c-16 0 -31 15 -31 33c0 24 21 43 43 43s39 -15 39 -44z" />
    <glyph glyph-name="Lcommaaccent.smcp" unicode="&#xf68c;" horiz-adv-x="454" 
d="M359 0h-332l121 550h55l-111 -501h278zM207 -122c0 -53 -47 -111 -96 -137l-22 24c36 19 66 51 74 81h-7c-16 0 -31 15 -31 33c0 24 21 43 43 43s39 -15 39 -44z" />
    <glyph glyph-name="Ldot.smcp" unicode="&#xf68d;" horiz-adv-x="461" 
d="M359 0h-332l121 550h55l-111 -501h278zM349 246c-23 0 -41 18 -41 40c0 27 22 47 49 47c22 0 40 -17 40 -40c0 -26 -22 -47 -48 -47z" />
    <glyph glyph-name="Nacute.smcp" unicode="&#xf68e;" horiz-adv-x="625" 
d="M490 0h-54l-251 471l-103 -471h-55l121 550h56l250 -464l102 464h55zM579 750l-204 -144h-45l186 144h63z" />
    <glyph glyph-name="Ncaron.smcp" unicode="&#xf68f;" horiz-adv-x="625" 
d="M490 0h-54l-251 471l-103 -471h-55l121 550h56l250 -464l102 464h55zM422 606h-54l-68 144h38l61 -113l109 113h42z" />
    <glyph glyph-name="Ncommaaccent.smcp" unicode="&#xf690;" horiz-adv-x="625" 
d="M490 0h-54l-251 471l-103 -471h-55l121 550h56l250 -464l102 464h55zM270 -122c0 -53 -47 -111 -96 -137l-22 24c36 19 66 51 74 81h-7c-16 0 -31 15 -31 33c0 24 21 43 43 43s39 -15 39 -44z" />
    <glyph glyph-name="Obreve.smcp" unicode="&#xf691;" horiz-adv-x="666" 
d="M313 -12c-163 0 -259 105 -259 250c0 169 132 324 311 324c163 0 259 -105 259 -250c0 -169 -133 -324 -311 -324zM313 37c152 0 254 131 254 273c0 115 -74 203 -203 203c-151 0 -254 -131 -254 -273c0 -115 74 -203 203 -203zM607 694c-52 -54 -122 -88 -194 -88
c-71 0 -128 34 -157 88l33 25c23 -46 69 -75 130 -75c62 0 120 29 163 75z" />
    <glyph glyph-name="Ohungarumlaut.smcp" unicode="&#xf692;" horiz-adv-x="666" 
d="M313 -12c-163 0 -259 105 -259 250c0 169 132 324 311 324c163 0 259 -105 259 -250c0 -169 -133 -324 -311 -324zM313 37c152 0 254 131 254 273c0 115 -74 203 -203 203c-151 0 -254 -131 -254 -273c0 -115 74 -203 203 -203zM496 750l-147 -144h-39l129 144h57z
M635 750l-147 -144h-39l129 144h57z" />
    <glyph glyph-name="Omacron.smcp" unicode="&#xf693;" horiz-adv-x="666" 
d="M313 -12c-163 0 -259 105 -259 250c0 169 132 324 311 324c163 0 259 -105 259 -250c0 -169 -133 -324 -311 -324zM313 37c152 0 254 131 254 273c0 115 -74 203 -203 203c-151 0 -254 -131 -254 -273c0 -115 74 -203 203 -203zM599 638h-362l8 38h362z" />
    <glyph glyph-name="Oslashacute.smcp" unicode="&#xf694;" horiz-adv-x="666" 
d="M313 -12c-70 0 -127 19 -170 52l-38 -40h-51l61 66c-40 44 -61 103 -61 172c0 169 132 324 311 324c68 0 125 -19 167 -51l37 39h51l-60 -64c42 -44 64 -104 64 -174c0 -169 -133 -324 -311 -324zM313 37c152 0 254 131 254 273c0 53 -16 100 -45 135l-342 -365
c33 -27 78 -43 133 -43zM110 240c0 -52 15 -98 43 -134l342 365c-34 26 -77 42 -131 42c-151 0 -254 -131 -254 -273zM603 750l-204 -144h-45l186 144h63z" />
    <glyph glyph-name="Racute.smcp" unicode="&#xf695;" horiz-adv-x="533" 
d="M430 0h-66l-108 224h-125l-49 -224h-55l121 550h198c99 0 165 -60 165 -141c0 -89 -58 -179 -197 -183zM301 273h9c93 0 143 61 143 133c0 58 -48 95 -115 95h-145l-51 -228h159zM526 750l-204 -144h-45l186 144h63z" />
    <glyph glyph-name="Rcaron.smcp" unicode="&#xf696;" horiz-adv-x="533" 
d="M430 0h-66l-108 224h-125l-49 -224h-55l121 550h198c99 0 165 -60 165 -141c0 -89 -58 -179 -197 -183zM301 273h9c93 0 143 61 143 133c0 58 -48 95 -115 95h-145l-51 -228h159zM368 606h-54l-68 144h38l61 -113l109 113h42z" />
    <glyph glyph-name="Rcommaaccent.smcp" unicode="&#xf697;" horiz-adv-x="533" 
d="M430 0h-66l-108 224h-125l-49 -224h-55l121 550h198c99 0 165 -60 165 -141c0 -89 -58 -179 -197 -183zM301 273h9c93 0 143 61 143 133c0 58 -48 95 -115 95h-145l-51 -228h159zM226 -122c0 -53 -47 -111 -96 -137l-22 24c36 19 66 51 74 81h-7c-16 0 -31 15 -31 33
c0 24 21 43 43 43s39 -15 39 -44z" />
    <glyph glyph-name="Sacute.smcp" unicode="&#xf698;" horiz-adv-x="499" 
d="M236 -12c-94 0 -179 31 -226 98l41 36c35 -51 106 -85 187 -85c107 0 142 60 142 114c0 127 -291 97 -291 257c0 87 93 154 197 154c89 0 162 -38 200 -89l-39 -36c-31 48 -98 76 -162 76c-74 0 -137 -44 -137 -104c0 -115 291 -83 291 -256c0 -79 -58 -165 -203 -165z
M518 750l-204 -144h-45l186 144h63z" />
    <glyph glyph-name="Scedilla.smcp" unicode="&#xf699;" horiz-adv-x="499" 
d="M165 -189c-46 0 -82 16 -104 37l23 30c22 -23 54 -34 83 -34c45 0 66 23 66 51c0 20 -15 34 -40 34c-13 0 -27 -6 -37 -18l-24 16l39 67c-68 11 -125 41 -161 92l41 36c35 -51 106 -85 187 -85c107 0 142 60 142 114c0 127 -291 97 -291 257c0 87 93 154 197 154
c89 0 162 -38 200 -89l-39 -36c-31 48 -98 76 -162 76c-74 0 -137 -44 -137 -104c0 -115 291 -83 291 -256c0 -79 -58 -165 -203 -165c-10 0 -21 1 -31 1l-27 -45c11 8 22 11 34 11c34 0 58 -21 58 -57c0 -51 -42 -87 -105 -87z" />
    <glyph glyph-name="Scircumflex.smcp" unicode="&#xf69a;" horiz-adv-x="499" 
d="M236 -12c-94 0 -179 31 -226 98l41 36c35 -51 106 -85 187 -85c107 0 142 60 142 114c0 127 -291 97 -291 257c0 87 93 154 197 154c89 0 162 -38 200 -89l-39 -36c-31 48 -98 76 -162 76c-74 0 -137 -44 -137 -104c0 -115 291 -83 291 -256c0 -79 -58 -165 -203 -165z
M456 606h-38l-62 113l-108 -113h-42l129 144h54z" />
    <glyph glyph-name="Scommaaccent.smcp" unicode="&#xf69b;" horiz-adv-x="499" 
d="M236 -12c-94 0 -179 31 -226 98l41 36c35 -51 106 -85 187 -85c107 0 142 60 142 114c0 127 -291 97 -291 257c0 87 93 154 197 154c89 0 162 -38 200 -89l-39 -36c-31 48 -98 76 -162 76c-74 0 -137 -44 -137 -104c0 -115 291 -83 291 -256c0 -79 -58 -165 -203 -165z
M215 -122c0 -53 -47 -111 -96 -137l-22 24c36 19 66 51 74 81h-7c-16 0 -31 15 -31 33c0 24 21 43 43 43s39 -15 39 -44z" />
    <glyph glyph-name="Tbar.smcp" unicode="&#xf69c;" horiz-adv-x="465" 
d="M206 0h-55l56 256h-122l9 38h121l46 207h-176l11 49h408l-11 -49h-177l-46 -207h125l-9 -38h-124z" />
    <glyph glyph-name="Tcaron.smcp" unicode="&#xf69d;" horiz-adv-x="465" 
d="M206 0h-55l110 501h-176l11 49h408l-11 -49h-177zM342 606h-54l-68 144h38l61 -113l109 113h42z" />
    <glyph glyph-name="Tcommaaccent.smcp" unicode="&#xf69e;" horiz-adv-x="465" 
d="M206 0h-55l110 501h-176l11 49h408l-11 -49h-177zM194 -122c0 -53 -47 -111 -96 -137l-22 24c36 19 66 51 74 81h-7c-16 0 -31 15 -31 33c0 24 21 43 43 43s39 -15 39 -44z" />
    <glyph glyph-name="Ubreve.smcp" unicode="&#xf69f;" horiz-adv-x="613" 
d="M287 -12c-139 0 -221 66 -221 176c0 12 3 31 6 46l76 340h55l-75 -338c-2 -14 -4 -28 -4 -40c0 -89 64 -135 162 -135c104 0 158 61 183 175l75 338h55l-75 -340c-31 -142 -96 -222 -237 -222zM579 694c-52 -54 -122 -88 -194 -88c-71 0 -128 34 -157 88l33 25
c23 -46 69 -75 130 -75c62 0 120 29 163 75z" />
    <glyph glyph-name="Uhungarumlaut.smcp" unicode="&#xf6a0;" horiz-adv-x="613" 
d="M287 -12c-139 0 -221 66 -221 176c0 12 3 31 6 46l76 340h55l-75 -338c-2 -14 -4 -28 -4 -40c0 -89 64 -135 162 -135c104 0 158 61 183 175l75 338h55l-75 -340c-31 -142 -96 -222 -237 -222zM467 750l-147 -144h-39l129 144h57zM606 750l-147 -144h-39l129 144h57z" />
    <glyph glyph-name="Umacron.smcp" unicode="&#xf6a1;" horiz-adv-x="613" 
d="M287 -12c-139 0 -221 66 -221 176c0 12 3 31 6 46l76 340h55l-75 -338c-2 -14 -4 -28 -4 -40c0 -89 64 -135 162 -135c104 0 158 61 183 175l75 338h55l-75 -340c-31 -142 -96 -222 -237 -222zM575 630h-362l8 38h362z" />
    <glyph glyph-name="Uogonek.smcp" unicode="&#xf6a2;" horiz-adv-x="613" 
d="M287 -12c-139 0 -221 66 -221 176c0 12 3 31 6 46l76 340h55l-75 -338c-2 -14 -4 -28 -4 -40c0 -89 64 -135 162 -135c104 0 158 61 183 175l75 338h55l-75 -340c-24 -110 -69 -183 -153 -210c-62 -27 -104 -62 -104 -110c0 -29 18 -43 46 -43c25 0 44 16 59 43l26 -18
c-19 -31 -45 -58 -90 -58c-44 0 -77 24 -77 70c0 42 22 77 58 104h-2z" />
    <glyph glyph-name="Uring.smcp" unicode="&#xf6a3;" horiz-adv-x="613" 
d="M287 -12c-139 0 -221 66 -221 176c0 12 3 31 6 46l76 340h55l-75 -338c-2 -14 -4 -28 -4 -40c0 -89 64 -135 162 -135c104 0 158 61 183 175l75 338h55l-75 -340c-31 -142 -96 -222 -237 -222zM400 607c-51 0 -87 36 -87 87c0 56 48 105 105 105c51 0 87 -36 87 -87
c0 -57 -49 -105 -105 -105zM401 639c38 0 72 32 72 70c0 34 -23 58 -56 58c-39 0 -72 -32 -72 -70c0 -34 22 -58 56 -58z" />
    <glyph glyph-name="Utilde.smcp" unicode="&#xf6a4;" horiz-adv-x="613" 
d="M287 -12c-139 0 -221 66 -221 176c0 12 3 31 6 46l76 340h55l-75 -338c-2 -14 -4 -28 -4 -40c0 -89 64 -135 162 -135c104 0 158 61 183 175l75 338h55l-75 -340c-31 -142 -96 -222 -237 -222zM456 604c-75 0 -58 102 -117 102c-30 0 -53 -28 -69 -96h-36
c15 75 52 134 112 134c75 0 59 -102 117 -102c30 0 53 29 70 96h36c-16 -75 -53 -134 -113 -134z" />
    <glyph glyph-name="Wcircumflex.smcp" unicode="&#xf6a6;" horiz-adv-x="749" 
d="M580 606h-38l-62 113l-108 -113h-42l129 144h54zM515 0h-58l-35 463l-238 -463h-58l-44 550h59l32 -471l243 471h49l35 -472l240 472h61z" />
    <glyph glyph-name="Ycircumflex.smcp" unicode="&#xf6a9;" horiz-adv-x="539" 
d="M245 0h-55l52 235l-163 315h64l135 -266l249 266h67l-298 -315zM477 606h-38l-62 113l-108 -113h-42l129 144h54z" />
    <glyph glyph-name="Zacute.smcp" unicode="&#xf6ab;" horiz-adv-x="513" 
d="M418 0h-431l9 43l452 458h-350l10 49h424l-9 -44l-452 -457h357zM524 750l-204 -144h-45l186 144h63z" />
    <glyph glyph-name="Zdotaccent.smcp" unicode="&#xf6ac;" horiz-adv-x="513" 
d="M418 0h-431l9 43l452 458h-350l10 49h424l-9 -44l-452 -457h357zM395 677c0 -23 -20 -42 -43 -42c-19 0 -34 14 -34 34c0 22 20 42 43 42c19 0 34 -15 34 -34z" />
    <glyph glyph-name="Idotaccent.smcp" unicode="&#xf6ad;" horiz-adv-x="188" 
d="M68 0h-55l121 550h55zM227 677c0 -23 -20 -42 -43 -42c-19 0 -34 14 -34 34c0 22 20 42 43 42c19 0 34 -15 34 -34z" />
    <glyph glyph-name="parenleft.case" unicode="&#xf6ae;" horiz-adv-x="227" 
d="M137 -89l-36 -20c-34 80 -56 175 -56 283c0 207 88 416 251 601l26 -26c-137 -184 -221 -378 -221 -599c0 -75 16 -164 36 -239z" />
    <glyph glyph-name="parenright.case" unicode="&#xf6af;" horiz-adv-x="227" 
d="M129 755l36 20c34 -80 56 -175 56 -283c0 -207 -88 -416 -251 -601l-26 26c137 184 221 378 221 599c0 75 -16 164 -36 239z" />
    <glyph glyph-name="bracketleft.case" unicode="&#xf6b0;" horiz-adv-x="228" 
d="M134 -100h-173l192 868h174l-10 -43h-129l-174 -782h129z" />
    <glyph glyph-name="bracketright.case" unicode="&#xf6b1;" horiz-adv-x="228" 
d="M114 -100h-173l10 43h128l174 782h-130l10 43h174z" />
    <glyph glyph-name="braceleft.case" unicode="&#xf6b2;" horiz-adv-x="249" 
d="M155 -100h-49c-51 0 -101 37 -101 97c0 9 1 19 4 27l49 219c1 6 2 12 2 18c0 29 -15 53 -39 53l9 40c40 0 60 34 68 71l49 219c19 82 70 124 139 124h62l-10 -43h-62c-44 0 -74 -30 -85 -81l-51 -227c-9 -42 -28 -74 -64 -87c21 -11 29 -32 29 -54c0 -10 -1 -22 -4 -34
l-48 -218c-1 -6 -2 -14 -2 -21c0 -35 25 -60 58 -60h56z" />
    <glyph glyph-name="braceright.case" unicode="&#xf6b3;" horiz-adv-x="249" 
d="M133 768h49c51 0 100 -37 100 -97c0 -9 -1 -21 -3 -27l-49 -219c-1 -6 -2 -12 -2 -18c0 -29 15 -53 39 -53l-9 -40c-40 0 -60 -34 -68 -71l-49 -219c-19 -82 -70 -124 -139 -124h-62l10 43h61c45 0 75 30 86 81l50 227c9 42 29 74 65 88c-21 10 -29 31 -29 53
c0 10 1 22 4 34l48 218c1 6 2 14 2 21c0 35 -25 60 -58 60h-56z" />
    <glyph glyph-name="exclamdown.case" unicode="&#xf6b4;" horiz-adv-x="219" 
d="M143 493h41l-96 -493h-67zM198 677c23 0 40 -18 40 -41c0 -26 -22 -47 -48 -47c-23 0 -40 18 -40 40c0 27 22 48 48 48z" />
    <glyph glyph-name="questiondown.case" unicode="&#xf6b5;" horiz-adv-x="464" 
d="M258 462l46 24c18 -22 26 -44 26 -71c0 -144 -256 -132 -256 -277c0 -59 51 -100 139 -100c65 0 122 25 167 72l28 -39c-60 -59 -124 -85 -200 -85c-117 0 -196 59 -196 145c0 179 266 172 266 286c0 13 -5 30 -20 45zM330 672c23 0 40 -17 40 -40c0 -26 -21 -47 -48 -47
c-22 0 -40 18 -40 40c0 27 22 47 48 47z" />
    <glyph glyph-name="guillemotleft.case" unicode="&#xf6b6;" horiz-adv-x="402" 
d="M224 162h-53l-120 180l200 177h61l-204 -182zM349 162h-53l-120 180l200 177h61l-204 -182z" />
    <glyph glyph-name="guillemotright.case" unicode="&#xf6b7;" horiz-adv-x="402" 
d="M99 519h53l120 -180l-200 -177h-61l204 182zM224 519h53l120 -180l-200 -177h-62l205 182z" />
    <glyph glyph-name="guilsinglleft.case" unicode="&#xf6b8;" horiz-adv-x="277" 
d="M224 162h-53l-120 180l200 177h61l-204 -182z" />
    <glyph glyph-name="guilsinglright.case" unicode="&#xf6b9;" horiz-adv-x="277" 
d="M99 519h53l120 -180l-200 -177h-61l204 182z" />
    <glyph glyph-name="hyphen.case" unicode="&#xf6ba;" horiz-adv-x="300" 
d="M286 317h-240l10 48h240z" />
    <glyph glyph-name="endash.case" unicode="&#xf6bb;" horiz-adv-x="593" 
d="M579 317h-533l10 48h533z" />
    <glyph glyph-name="emdash.case" unicode="&#xf6bc;" horiz-adv-x="833" 
d="M819 317h-773l10 48h773z" />
    <glyph glyph-name="periodcentered.case" unicode="&#xf6bd;" horiz-adv-x="219" 
d="M127 299c-23 0 -41 18 -41 40c0 27 22 47 49 47c22 0 40 -17 40 -40c0 -26 -22 -47 -48 -47z" />
    <glyph glyph-name="bullet.case" unicode="&#xf6be;" horiz-adv-x="358" 
d="M305 351c0 -61 -54 -112 -115 -112c-53 0 -93 40 -93 93c0 61 54 112 115 112c53 0 93 -40 93 -93z" />
    <glyph glyph-name="cent.case" unicode="&#xf6bf;" horiz-adv-x="494" 
d="M281 79h-18l-19 -88h-44l21 94c-93 21 -155 94 -155 208c0 158 116 292 266 293l16 70h44l-17 -73c61 -9 105 -39 132 -85l-40 -30c-23 40 -60 62 -102 69l-91 -411h12c54 0 100 25 131 62l30 -36c-42 -43 -93 -73 -166 -73zM121 292c0 -88 45 -141 110 -159l91 405
c-125 -8 -201 -124 -201 -246z" />
    <glyph glyph-name="commaaccent" unicode="&#xf6c3;" horiz-adv-x="219" 
d="M70 -122c0 -53 -47 -111 -96 -137l-22 24c36 19 66 51 74 81h-7c-16 0 -31 15 -31 33c0 24 21 43 43 43s39 -15 39 -44z" />
    <glyph glyph-name="one.tnum" unicode="&#xf6dc;" horiz-adv-x="588" 
d="M318 0h-57l129 589l-131 -114l-27 37l181 155h52z" />
    <glyph glyph-name="Lslash.smcp" unicode="&#xf6f9;" horiz-adv-x="482" 
d="M-3 185l12 53l112 57l56 255h55l-50 -223l114 58l-12 -53l-113 -58l-50 -225h278l-11 -49h-332l53 242z" />
    <glyph glyph-name="OE.smcp" unicode="&#xf6fa;" horiz-adv-x="964" 
d="M854 0h-369l21 96c-51 -75 -125 -108 -202 -108c-155 0 -250 102 -250 250c0 168 130 324 311 324c92 0 178 -40 213 -141l28 129h369l-11 -49h-313l-44 -194h308l-11 -49h-307l-46 -209h313zM526 190l38 169c-25 112 -114 154 -199 154c-143 0 -255 -123 -255 -273
c0 -126 86 -203 203 -203c93 0 172 54 213 153z" />
    <glyph glyph-name="Scaron.smcp" unicode="&#xf6fd;" horiz-adv-x="499" 
d="M236 -12c-94 0 -179 31 -226 98l41 36c35 -51 106 -85 187 -85c107 0 142 60 142 114c0 127 -291 97 -291 257c0 87 93 154 197 154c89 0 162 -38 200 -89l-39 -36c-31 48 -98 76 -162 76c-74 0 -137 -44 -137 -104c0 -115 291 -83 291 -256c0 -79 -58 -165 -203 -165z
M360 606h-54l-68 144h38l61 -113l109 113h42z" />
    <glyph glyph-name="Zcaron.smcp" unicode="&#xf6ff;" horiz-adv-x="513" 
d="M418 0h-431l9 43l452 458h-350l10 49h424l-9 -44l-452 -457h357zM362 606h-54l-68 144h38l61 -113l109 113h42z" />
    <glyph glyph-name="exclam.smcp" unicode="&#xf721;" horiz-adv-x="176" 
d="M187 550l-101 -401h-39l75 401h65zM37 -10c-23 0 -40 18 -40 41c0 26 21 47 48 47c22 0 40 -18 40 -40c0 -27 -22 -48 -48 -48z" />
    <glyph glyph-name="dollar.onum" unicode="&#xf724;" horiz-adv-x="499" 
d="M236 -12c-7 0 -14 0 -20 1l-14 -63h-43l15 67c-69 11 -128 41 -164 93l41 36c27 -40 75 -69 134 -80l50 225c-73 28 -146 61 -146 141c0 87 93 154 197 154c5 0 9 -1 14 -1l15 67h43l-16 -72c63 -12 114 -43 144 -83l-39 -36c-24 36 -68 61 -116 71l-45 -203
c75 -28 153 -63 153 -152c0 -79 -58 -165 -203 -165zM380 151c0 51 -49 77 -106 100l-47 -214h11c107 0 142 60 142 114zM148 409c0 -45 44 -68 99 -89l42 193h-4c-74 0 -137 -44 -137 -104z" />
    <glyph glyph-name="ampersand.smcp" unicode="&#xf726;" horiz-adv-x="552" 
d="M449 0h-66c-14 17 -29 35 -43 53c-49 -40 -104 -65 -165 -65c-99 0 -170 53 -170 147c0 105 81 149 167 182c-15 36 -23 68 -23 96c0 86 73 149 153 149c61 0 121 -31 121 -100c0 -95 -93 -128 -185 -163c14 -27 33 -56 53 -85c23 -35 42 -63 62 -90c40 42 75 94 100 141
l40 -22c-35 -58 -73 -112 -115 -155c20 -27 43 -54 71 -88zM180 30c46 0 92 23 134 57c-27 36 -50 70 -67 96c-23 34 -42 67 -58 97c-71 -29 -130 -66 -130 -141c0 -63 45 -109 121 -109zM200 413c0 -22 8 -49 21 -79c80 29 153 57 153 126c0 40 -27 62 -70 62
c-59 0 -104 -45 -104 -109z" />
    <glyph glyph-name="zero.onum" unicode="&#xf730;" horiz-adv-x="608" 
d="M564 328c0 -135 -94 -340 -280 -340c-152 0 -228 92 -228 234c0 135 94 340 281 340c151 0 227 -92 227 -234zM504 325c0 117 -54 185 -168 185c-150 0 -220 -178 -220 -285c0 -117 55 -185 168 -185c151 0 220 178 220 285z" />
    <glyph glyph-name="one.onum" unicode="&#xf731;" horiz-adv-x="308" 
d="M171 0h-57l103 472l-131 -114l-27 37l181 155h52z" />
    <glyph glyph-name="two.onum" unicode="&#xf732;" horiz-adv-x="576" 
d="M425 0h-415l10 50c266 105 442 211 442 337c0 74 -65 123 -150 123c-75 0 -135 -25 -190 -78l-30 39c60 60 136 91 224 91c114 0 206 -59 206 -167c0 -148 -189 -264 -387 -343h301z" />
    <glyph glyph-name="three.onum" unicode="&#xf733;" horiz-adv-x="542" 
d="M213 -129c-109 0 -209 57 -240 139l46 30c30 -72 107 -117 193 -117c109 0 176 68 176 160c0 70 -63 118 -159 118c-27 0 -46 -1 -57 -2l13 54c9 -1 62 -1 89 -1c89 0 173 45 173 137c0 66 -63 119 -162 119c-57 0 -117 -19 -171 -70l-28 40c50 51 127 82 202 82
c124 0 217 -59 217 -166c0 -106 -96 -167 -181 -173c64 -15 121 -64 121 -141c0 -113 -93 -209 -232 -209z" />
    <glyph glyph-name="four.onum" unicode="&#xf734;" horiz-adv-x="541" 
d="M466 66h-97l-41 -183h-57l40 183h-316l12 52l391 432h77l-95 -432h97zM322 118l83 375l-340 -375h257z" />
    <glyph glyph-name="five.onum" unicode="&#xf735;" horiz-adv-x="582" 
d="M245 -129c-114 0 -187 45 -229 135l46 33c35 -80 99 -116 188 -116c100 0 184 79 184 182c0 92 -69 142 -161 142c-55 0 -100 -17 -146 -50l-38 22l73 331h385l-11 -52h-328l-55 -247c30 23 82 46 143 46c104 0 198 -64 198 -187c0 -128 -102 -239 -249 -239z" />
    <glyph glyph-name="six.onum" unicode="&#xf736;" horiz-adv-x="584" 
d="M275 -12c-138 0 -214 87 -214 240c0 176 94 449 316 449c91 0 158 -39 192 -104l-43 -37c-25 56 -79 89 -152 89c-144 0 -214 -154 -244 -287c-3 -9 -4 -15 -5 -19c36 41 116 93 200 93c117 0 199 -65 199 -173c0 -133 -106 -251 -249 -251zM277 40c109 0 187 92 187 191
c0 81 -63 131 -157 131c-72 0 -137 -38 -189 -96c-1 -9 -2 -40 -2 -53c0 -101 56 -173 161 -173z" />
    <glyph glyph-name="seven.onum" unicode="&#xf737;" horiz-adv-x="502" 
d="M107 -117h-66l414 615h-366l11 52h437l-9 -40z" />
    <glyph glyph-name="eight.onum" unicode="&#xf738;" horiz-adv-x="571" 
d="M266 -12c-129 0 -229 58 -229 167c0 104 87 174 209 196c-58 22 -122 70 -122 143c0 125 120 183 225 183c113 0 215 -59 215 -161c0 -100 -83 -162 -196 -178c55 -23 131 -74 131 -160c0 -110 -105 -190 -233 -190zM313 368c109 9 190 57 190 142c0 65 -70 114 -156 114
s-165 -48 -165 -133c0 -63 76 -110 131 -123zM267 40c85 0 174 52 174 142c0 73 -82 122 -139 137c-116 -8 -204 -68 -204 -154c0 -82 78 -125 169 -125z" />
    <glyph glyph-name="nine.onum" unicode="&#xf739;" horiz-adv-x="584" 
d="M321 561c138 0 214 -87 214 -240c0 -176 -93 -449 -316 -449c-91 0 -157 39 -191 104l42 37c25 -56 79 -89 153 -89c143 0 213 154 244 287c2 9 4 15 4 19c-36 -41 -116 -93 -200 -93c-117 0 -199 65 -199 173c0 133 107 251 249 251zM319 509c-108 0 -187 -92 -187 -191
c0 -81 63 -131 157 -131c72 0 138 38 189 96c1 9 2 40 2 53c0 101 -55 173 -161 173z" />
    <glyph glyph-name="question.smcp" unicode="&#xf73f;" horiz-adv-x="397" 
d="M412 438c0 -148 -229 -140 -229 -228c0 -10 6 -24 22 -38l-42 -21c-17 16 -28 34 -28 57c0 121 220 106 220 224c0 53 -48 83 -121 83c-64 0 -112 -27 -155 -70l-26 37c49 50 116 79 186 79c104 0 173 -51 173 -123zM138 -10c-22 0 -40 18 -40 41c0 26 22 47 49 47
c22 0 40 -18 40 -40c0 -27 -22 -48 -49 -48z" />
    <glyph glyph-name="A.smcp" unicode="&#xf761;" horiz-adv-x="562" 
d="M316 550h64l116 -550h-60l-28 133h-300l-85 -133h-65zM400 182l-63 308l-200 -308h263z" />
    <glyph glyph-name="B.smcp" unicode="&#xf762;" horiz-adv-x="541" 
d="M283 0h-256l121 550h213c85 0 159 -39 159 -124c0 -67 -44 -132 -125 -147c46 -16 79 -65 79 -114c0 -94 -69 -165 -191 -165zM92 49h193c75 0 131 49 131 117c0 53 -37 92 -103 92h-175zM327 307h17c76 0 117 56 117 112c0 57 -50 82 -111 82h-157l-45 -194h179z" />
    <glyph glyph-name="C.smcp" unicode="&#xf763;" horiz-adv-x="581" 
d="M322 -12c-156 0 -268 97 -268 249c0 177 150 325 324 325c91 0 172 -44 213 -112l-47 -24c-33 53 -99 87 -167 87c-138 0 -266 -119 -266 -273c0 -122 90 -203 212 -203c64 0 123 23 170 71l38 -31c-60 -58 -128 -89 -209 -89z" />
    <glyph glyph-name="D.smcp" unicode="&#xf764;" horiz-adv-x="611" 
d="M224 0h-197l121 550h166c155 0 256 -109 256 -238c0 -149 -113 -312 -346 -312zM234 49c181 0 278 133 278 260c0 111 -81 192 -206 192h-114l-100 -452h142z" />
    <glyph glyph-name="E.smcp" unicode="&#xf765;" horiz-adv-x="505" 
d="M395 0h-368l121 550h368l-11 -49h-312l-44 -194h308l-11 -49h-308l-46 -209h313z" />
    <glyph glyph-name="F.smcp" unicode="&#xf766;" horiz-adv-x="483" 
d="M82 0h-55l121 550h368l-11 -49h-312l-44 -194h308l-11 -49h-308z" />
    <glyph glyph-name="G.smcp" unicode="&#xf767;" horiz-adv-x="630" 
d="M323 -12c-151 0 -270 96 -270 245c0 172 139 329 326 329c91 0 173 -44 219 -109l-47 -27c-31 46 -100 87 -175 87c-152 0 -265 -132 -265 -277c0 -117 93 -200 213 -200c66 0 117 23 147 44l33 150h-186l10 47h241l-48 -223c-47 -36 -111 -66 -198 -66z" />
    <glyph glyph-name="H.smcp" unicode="&#xf768;" horiz-adv-x="629" 
d="M494 0h-54l57 259h-358l-57 -259h-55l121 550h55l-54 -243h358l54 243h54z" />
    <glyph glyph-name="I.smcp" unicode="&#xf769;" horiz-adv-x="216" 
d="M82 0h-55l121 550h55z" />
    <glyph glyph-name="J.smcp" unicode="&#xf76a;" horiz-adv-x="417" 
d="M125 -12c-74 0 -126 29 -153 78l39 35c22 -40 57 -64 111 -64c82 0 124 50 140 123l86 390h55l-86 -392c-26 -117 -90 -170 -192 -170z" />
    <glyph glyph-name="K.smcp" unicode="&#xf76b;" horiz-adv-x="521" 
d="M447 0h-68l-180 257l-75 -66l-42 -191h-55l121 550h55l-64 -291l334 291h72l-305 -262z" />
    <glyph glyph-name="L.smcp" unicode="&#xf76c;" horiz-adv-x="454" 
d="M359 0h-332l121 550h55l-111 -501h278z" />
    <glyph glyph-name="M.smcp" unicode="&#xf76d;" horiz-adv-x="703" 
d="M568 0h-55l105 475l-309 -475h-23l-99 475l-105 -475h-55l121 550h75l94 -452l294 452h78z" />
    <glyph glyph-name="N.smcp" unicode="&#xf76e;" horiz-adv-x="625" 
d="M490 0h-54l-251 471l-103 -471h-55l121 550h56l250 -464l102 464h55z" />
    <glyph glyph-name="O.smcp" unicode="&#xf76f;" horiz-adv-x="666" 
d="M313 -12c-163 0 -259 105 -259 250c0 169 132 324 311 324c163 0 259 -105 259 -250c0 -169 -133 -324 -311 -324zM313 37c152 0 254 131 254 273c0 115 -74 203 -203 203c-151 0 -254 -131 -254 -273c0 -115 74 -203 203 -203z" />
    <glyph glyph-name="P.smcp" unicode="&#xf770;" horiz-adv-x="509" 
d="M82 0h-55l121 550h195c102 0 167 -57 167 -139c0 -99 -75 -187 -199 -187h-180zM312 273h2c86 0 138 61 138 136c0 57 -43 92 -117 92h-142l-51 -228h170z" />
    <glyph glyph-name="Q.smcp" unicode="&#xf771;" horiz-adv-x="666" 
d="M313 -12c-163 0 -259 105 -259 250c0 169 132 324 311 324c163 0 259 -105 259 -250c0 -103 -50 -201 -128 -261l35 -49l-42 -29l-36 50c-41 -23 -89 -35 -140 -35zM313 37c41 0 79 9 112 26l-70 100l41 30l71 -102c63 52 100 133 100 219c0 115 -74 203 -203 203
c-151 0 -254 -131 -254 -273c0 -115 74 -203 203 -203z" />
    <glyph glyph-name="R.smcp" unicode="&#xf772;" horiz-adv-x="533" 
d="M430 0h-66l-108 224h-125l-49 -224h-55l121 550h198c99 0 165 -60 165 -141c0 -89 -58 -179 -197 -183zM301 273h9c93 0 143 61 143 133c0 58 -48 95 -115 95h-145l-51 -228h159z" />
    <glyph glyph-name="S.smcp" unicode="&#xf773;" horiz-adv-x="499" 
d="M236 -12c-94 0 -179 31 -226 98l41 36c35 -51 106 -85 187 -85c107 0 142 60 142 114c0 127 -291 97 -291 257c0 87 93 154 197 154c89 0 162 -38 200 -89l-39 -36c-31 48 -98 76 -162 76c-74 0 -137 -44 -137 -104c0 -115 291 -83 291 -256c0 -79 -58 -165 -203 -165z
" />
    <glyph glyph-name="T.smcp" unicode="&#xf774;" horiz-adv-x="465" 
d="M206 0h-55l110 501h-176l11 49h408l-11 -49h-177z" />
    <glyph glyph-name="U.smcp" unicode="&#xf775;" horiz-adv-x="613" 
d="M287 -12c-139 0 -221 66 -221 176c0 12 3 31 6 46l76 340h55l-75 -338c-2 -14 -4 -28 -4 -40c0 -89 64 -135 162 -135c104 0 158 61 183 175l75 338h55l-75 -340c-31 -142 -96 -222 -237 -222z" />
    <glyph glyph-name="V.smcp" unicode="&#xf776;" horiz-adv-x="562" 
d="M259 0h-64l-116 550h61l99 -488l315 488h63z" />
    <glyph glyph-name="W.smcp" unicode="&#xf777;" horiz-adv-x="749" 
d="M515 0h-58l-35 463l-238 -463h-58l-44 550h59l32 -471l243 471h49l35 -472l240 472h61z" />
    <glyph glyph-name="X.smcp" unicode="&#xf778;" horiz-adv-x="560" 
d="M492 0h-66l-145 244l-251 -244h-70l294 282l-160 268h66l134 -229l236 229h70l-278 -267z" />
    <glyph glyph-name="Y.smcp" unicode="&#xf779;" horiz-adv-x="539" 
d="M245 0h-55l52 235l-163 315h64l135 -266l249 266h67l-298 -315z" />
    <glyph glyph-name="Z.smcp" unicode="&#xf77a;" horiz-adv-x="513" 
d="M418 0h-431l9 43l452 458h-350l10 49h424l-9 -44l-452 -457h357z" />
    <glyph glyph-name="exclamdown.smcp" unicode="&#xf7a1;" horiz-adv-x="176" 
d="M-11 0l101 401h39l-75 -401h-65zM139 560c23 0 40 -18 40 -41c0 -26 -21 -47 -48 -47c-22 0 -40 18 -40 40c0 27 22 48 48 48z" />
    <glyph glyph-name="questiondown.smcp" unicode="&#xf7b8;" horiz-adv-x="397" 
d="M-15 112c0 148 229 140 229 228c0 10 -6 24 -22 38l42 21c17 -16 28 -34 28 -57c0 -121 -220 -106 -220 -224c0 -53 48 -83 121 -83c64 0 112 27 155 70l26 -37c-49 -50 -116 -79 -186 -79c-104 0 -173 51 -173 123zM259 560c22 0 40 -18 40 -41c0 -26 -22 -47 -49 -47
c-22 0 -40 18 -40 40c0 27 22 48 49 48z" />
    <glyph glyph-name="Agrave.smcp" unicode="&#xf7e0;" horiz-adv-x="562" 
d="M316 550h64l116 -550h-60l-28 133h-300l-85 -133h-65zM400 182l-63 308l-200 -308h263zM422 606h-44l-140 144h62z" />
    <glyph glyph-name="Aacute.smcp" unicode="&#xf7e1;" horiz-adv-x="562" 
d="M316 550h64l116 -550h-60l-28 133h-300l-85 -133h-65zM400 182l-63 308l-200 -308h263zM550 750l-204 -144h-45l186 144h63z" />
    <glyph glyph-name="Acircumflex.smcp" unicode="&#xf7e2;" horiz-adv-x="562" 
d="M316 550h64l116 -550h-60l-28 133h-300l-85 -133h-65zM400 182l-63 308l-200 -308h263zM488 606h-38l-62 113l-108 -113h-42l129 144h54z" />
    <glyph glyph-name="Atilde.smcp" unicode="&#xf7e3;" horiz-adv-x="562" 
d="M316 550h64l116 -550h-60l-28 133h-300l-85 -133h-65zM400 182l-63 308l-200 -308h263zM431 604c-75 0 -58 102 -117 102c-30 0 -53 -28 -69 -96h-36c15 75 52 134 112 134c75 0 59 -102 117 -102c30 0 53 29 70 96h36c-16 -75 -53 -134 -113 -134z" />
    <glyph glyph-name="Adieresis.smcp" unicode="&#xf7e4;" horiz-adv-x="562" 
d="M316 550h64l116 -550h-60l-28 133h-300l-85 -133h-65zM400 182l-63 308l-200 -308h263zM511 658c0 -22 -19 -41 -41 -41c-19 0 -34 14 -34 33c0 22 20 41 42 41c19 0 33 -14 33 -33zM307 658c0 -22 -19 -41 -42 -41c-18 0 -33 14 -33 33c0 22 20 41 42 41
c19 0 33 -14 33 -33z" />
    <glyph glyph-name="Aring.smcp" unicode="&#xf7e5;" horiz-adv-x="562" 
d="M316 550h64l116 -550h-60l-28 133h-300l-85 -133h-65zM400 182l-63 308l-200 -308h263zM373 607c-51 0 -87 36 -87 87c0 56 48 105 105 105c51 0 87 -36 87 -87c0 -57 -49 -105 -105 -105zM374 639c38 0 72 32 72 70c0 34 -23 58 -56 58c-39 0 -72 -32 -72 -70
c0 -34 22 -58 56 -58z" />
    <glyph glyph-name="AE.smcp" unicode="&#xf7e6;" horiz-adv-x="811" 
d="M701 0h-369l30 133h-225l-114 -133h-65l476 550h388l-10 -49h-314l-43 -194h307l-10 -49h-308l-46 -209h314zM372 182l69 308l-266 -308h197z" />
    <glyph glyph-name="Ccedilla.smcp" unicode="&#xf7e7;" horiz-adv-x="581" 
d="M263 -189c-46 0 -82 16 -104 37l23 30c22 -23 54 -34 83 -34c45 0 66 23 66 51c0 20 -15 34 -40 34c-13 0 -27 -6 -37 -18l-24 16l38 65c-128 20 -214 111 -214 245c0 177 150 325 324 325c91 0 172 -44 213 -112l-47 -24c-33 53 -99 87 -167 87
c-138 0 -266 -119 -266 -273c0 -122 90 -203 212 -203c64 0 123 23 170 71l38 -31c-60 -58 -128 -89 -209 -89c-7 0 -13 0 -19 1l-27 -45c11 8 22 11 34 11c34 0 58 -21 58 -57c0 -51 -42 -87 -105 -87z" />
    <glyph glyph-name="Egrave.smcp" unicode="&#xf7e8;" horiz-adv-x="505" 
d="M395 0h-368l121 550h368l-11 -49h-312l-44 -194h308l-11 -49h-308l-46 -209h313zM408 606h-44l-140 144h62z" />
    <glyph glyph-name="Eacute.smcp" unicode="&#xf7e9;" horiz-adv-x="505" 
d="M395 0h-368l121 550h368l-11 -49h-312l-44 -194h308l-11 -49h-308l-46 -209h313zM536 750l-204 -144h-45l186 144h63z" />
    <glyph glyph-name="Ecircumflex.smcp" unicode="&#xf7ea;" horiz-adv-x="505" 
d="M395 0h-368l121 550h368l-11 -49h-312l-44 -194h308l-11 -49h-308l-46 -209h313zM474 606h-38l-62 113l-108 -113h-42l129 144h54z" />
    <glyph glyph-name="Edieresis.smcp" unicode="&#xf7eb;" horiz-adv-x="505" 
d="M395 0h-368l121 550h368l-11 -49h-312l-44 -194h308l-11 -49h-308l-46 -209h313zM493 658c0 -22 -19 -41 -41 -41c-19 0 -34 14 -34 33c0 22 20 41 42 41c19 0 33 -14 33 -33zM289 658c0 -22 -19 -41 -42 -41c-18 0 -33 14 -33 33c0 22 20 41 42 41c19 0 33 -14 33 -33z
" />
    <glyph glyph-name="Igrave.smcp" unicode="&#xf7ec;" horiz-adv-x="215" 
d="M82 0h-55l121 550h55zM248 606h-44l-140 144h62z" />
    <glyph glyph-name="Iacute.smcp" unicode="&#xf7ed;" horiz-adv-x="215" 
d="M82 0h-55l121 550h55zM377 750l-204 -144h-45l186 144h63z" />
    <glyph glyph-name="Icircumflex.smcp" unicode="&#xf7ee;" horiz-adv-x="215" 
d="M82 0h-55l121 550h55zM314 606h-38l-62 113l-108 -113h-42l129 144h54z" />
    <glyph glyph-name="Idieresis.smcp" unicode="&#xf7ef;" horiz-adv-x="215" 
d="M82 0h-55l121 550h55zM338 658c0 -22 -19 -41 -41 -41c-19 0 -34 14 -34 33c0 22 20 41 42 41c19 0 33 -14 33 -33zM134 658c0 -22 -19 -41 -42 -41c-18 0 -33 14 -33 33c0 22 20 41 42 41c19 0 33 -14 33 -33z" />
    </font>
</defs>
</svg>
